<?xml version="1.0" encoding="UTF-8"?>
<svg width="20px" height="26px" viewBox="0 0 20 26" version="1.1" xmlns="http://www.w3.org/2000/svg" xmlns:xlink="http://www.w3.org/1999/xlink">
    <!-- Generator: Sketch 48.1 (47250) - http://www.bohemiancoding.com/sketch -->
    <title>bitcoin-selected</title>
    <desc>Created with Sketch.</desc>
    <defs></defs>
    <g id="Artboard-2" stroke="none" stroke-width="1" fill="none" fill-rule="evenodd" transform="translate(-28.000000, -20.000000)">
        <path d="M34.3151146,26.4432816 L34.3374673,30.9040013 L40.8686588,30.9040013 C42.0286408,30.9040013 42.9687297,29.9797674 42.963096,28.8432624 L42.9614605,28.5041986 C42.9558269,27.3673374 42.0064698,26.4432816 40.8464877,26.4432816 L35.2092257,26.4432816 L34.3151146,26.4432816 M43.7917845,37.684566 L43.7901489,37.3264476 C43.7839701,36.0585197 42.726302,35.0290407 41.4325667,35.0290407 L40.8891943,35.0290407 L34.3578211,35.0290407 L34.3825364,39.9821509 L35.2766475,39.9821509 L41.457282,39.9821509 C42.7510172,39.9821509 43.7983267,38.9508911 43.7917845,37.684566 M45.8649593,32.6210463 C47.1646917,33.7945919 47.9886551,35.4671169 47.9981051,37.3264476 L47.9999224,37.684566 C48.0173685,41.2244353 45.0915168,44.1055876 41.4776357,44.1055876 L41.3177134,44.1055876 L41.3271633,46 L37.1193889,46 L37.1099389,44.1055876 L35.385322,44.1055876 L35.3945903,46 L31.1868158,46 L31.1773658,44.1055876 L30.1952974,44.1055876 L28.1084928,44.1055876 L28.0879573,39.9821509 L30.1747619,39.9821509 L30.1500466,35.0290407 L30.1295111,30.9040013 L30.1073401,26.4432816 L28.0205355,26.4432816 L28,22.3184203 L30.0866229,22.3184203 L31.0690548,22.3184203 L31.0574241,20 L35.2653803,20 L35.2768293,22.3184203 L37.0014462,22.3184203 L36.9899972,20 L41.1977716,20 L41.2094024,22.3376529 C44.512707,22.534253 47.153061,25.2204079 47.1692349,28.5041986 L47.1708705,28.8432624 C47.177958,30.2661196 46.6869237,31.5741154 45.8649593,32.6210463" id="bitcoin-selected" fill="#2C9CDF"></path>
    </g>
</svg>