<svg xmlns="http://www.w3.org/2000/svg" width="20" height="20" viewBox="0 0 20 20">
    <g fill="none" fill-rule="nonzero">
        <path fill="#F7931A" d="M19.7 12.536c-1.336 5.274-6.762 8.485-12.12 7.17C2.225 18.39-1.036 13.046.3 7.772 1.637 2.498 7.063-.713 12.419.603c5.357 1.314 8.617 6.658 7.282 11.933z"/>
        <path fill="#FFF" d="M14.41 8.751c.198-1.31-.815-2.014-2.2-2.484l.45-1.775-1.098-.27-.438 1.729c-.288-.071-.584-.138-.879-.204l.441-1.74-1.097-.269-.45 1.775a37.19 37.19 0 0 1-.7-.163l.001-.005-1.513-.372-.292 1.154s.814.183.797.195c.445.11.525.399.512.628l-.512 2.022a.92.92 0 0 1 .114.036L7.43 8.98l-.718 2.832c-.054.133-.192.332-.503.257.011.015-.797-.196-.797-.196l-.545 1.236 1.428.35c.266.066.526.135.782.2l-.454 1.795 1.096.269.45-1.776c.3.08.59.154.874.223l-.448 1.768 1.097.27.454-1.793c1.871.349 3.278.208 3.87-1.458.478-1.341-.023-2.115-1.008-2.62.717-.163 1.257-.627 1.401-1.586zm-2.508 3.461c-.339 1.342-2.633.617-3.377.435l.603-2.378c.744.182 3.129.544 2.774 1.943zm.34-3.48c-.31 1.22-2.22.6-2.838.448l.546-2.157c.62.152 2.614.436 2.292 1.709z"/>
    </g>
</svg>
