<?xml version="1.0" encoding="utf-8"?>
<!-- Generator: Adobe Illustrator 22.1.0, SVG Export Plug-In . SVG Version: 6.00 Build 0)  -->
<svg version="1.1" id="Layer_2" xmlns="http://www.w3.org/2000/svg" xmlns:xlink="http://www.w3.org/1999/xlink" x="0px" y="0px"
	 viewBox="0 0 16 16" style="enable-background:new 0 0 16 16;" xml:space="preserve">
<style type="text/css">
	.st0{fill:#333333;}
</style>
<g>
	<path class="st0" d="M11.9,5.9C11.7,2.6,10,0,7.8,0C5.5,0,3.7,2.8,3.7,6.3c-1,1-1.6,2.4-1.6,4c0,3.1,2.6,5.7,5.7,5.7h0.5
		c3.1,0,5.7-2.6,5.7-5.7C13.9,8.5,13.1,6.9,11.9,5.9z M7.8,1.1c1.4,0,2.6,1.8,2.9,4.1C10,4.8,9.1,4.6,8.2,4.6H7.8
		c-1.1,0-2.1,0.3-3,0.8C5.1,3,6.3,1.1,7.8,1.1z M8.2,14.9H7.8c-2.6,0-4.6-2.1-4.6-4.6c0-2.6,2.1-4.6,4.6-4.6h0.5
		c2.6,0,4.6,2.1,4.6,4.6C12.9,12.9,10.8,14.9,8.2,14.9z"/>
	<path class="st0" d="M8,7.8c-0.7,0-1.3,0.6-1.3,1.3c0,0.5,0.3,1,0.8,1.2V13h1.1v-2.7C9,10.1,9.3,9.6,9.3,9.1C9.3,8.4,8.7,7.8,8,7.8
		z"/>
</g>
</svg>
