<?xml version="1.0" encoding="utf-8"?>
<!-- Generator: Adobe Illustrator 22.1.0, SVG Export Plug-In . SVG Version: 6.00 Build 0)  -->
<svg version="1.1" id="Layer_1" xmlns="http://www.w3.org/2000/svg" xmlns:xlink="http://www.w3.org/1999/xlink" x="0px" y="0px"
	 viewBox="0 0 16 16" style="enable-background:new 0 0 16 16;" xml:space="preserve">
<style type="text/css">
	.st0{fill:#ffffff;}
</style>
<g>
	<path class="st0" d="M15.3,7.6c-0.3,0-0.5,0.2-0.5,0.5c0,0.2,0,0.3,0,0.5c0,0.3,0.2,0.5,0.5,0.5c0,0,0,0,0,0c0.3,0,0.5-0.2,0.5-0.5
		c0-0.2,0-0.4,0-0.5C15.8,7.8,15.5,7.6,15.3,7.6z"/>
	<path class="st0" d="M11,14.2c-0.3,0.1-0.5,0.2-0.8,0.3c-0.3,0.1-0.4,0.4-0.3,0.6c0.1,0.2,0.3,0.3,0.5,0.3c0.1,0,0.1,0,0.2,0
		c0.3-0.1,0.6-0.2,0.9-0.4c0.2-0.1,0.3-0.4,0.2-0.7C11.6,14.2,11.3,14.1,11,14.2z"/>
	<path class="st0" d="M15,10c-0.3-0.1-0.5,0-0.6,0.3c-0.1,0.3-0.2,0.5-0.3,0.8c-0.1,0.2,0,0.5,0.2,0.7c0.1,0,0.1,0.1,0.2,0.1
		c0.2,0,0.4-0.1,0.4-0.3c0.1-0.3,0.3-0.6,0.4-0.9C15.4,10.4,15.3,10.1,15,10z"/>
	<path class="st0" d="M13.1,12.6c-0.2,0.2-0.4,0.4-0.6,0.6c-0.2,0.2-0.2,0.5,0,0.7c0.1,0.1,0.2,0.2,0.4,0.2c0.1,0,0.2,0,0.3-0.1
		c0.3-0.2,0.5-0.5,0.7-0.7c0.2-0.2,0.2-0.5,0-0.7C13.6,12.3,13.3,12.4,13.1,12.6z"/>
	<path class="st0" d="M15,5.1C15,5,15,5,15,5.1c0-0.1,0-0.2,0-0.2c0,0,0-0.1,0-0.1V2.5C15,2.2,14.8,2,14.5,2S14,2.2,14,2.5v0.7
		c-1.5-1.8-3.6-2.9-6-2.9c-4.3,0-7.8,3.5-7.8,7.8c0,4.2,3.4,7.7,7.6,7.8c0,0,0,0,0,0c0,0,0.1,0,0.1,0c0,0,0.1,0,0.1,0
		c0.2,0,0.4,0,0.5,0c0.3,0,0.5-0.3,0.5-0.5c0-0.3-0.3-0.5-0.5-0.5c-0.2,0-0.3,0-0.5,0c0,0-0.1,0-0.1,0c0,0-0.1,0-0.1,0
		c-3.6-0.1-6.6-3.1-6.6-6.8c0-3.7,3-6.8,6.8-6.8c2.4,0,4.5,1.2,5.7,3.2h-1.5c-0.3,0-0.5,0.2-0.5,0.5s0.2,0.5,0.5,0.5h2.3
		C14.8,5.6,15,5.3,15,5.1z"/>
	<path class="st0" d="M8,2.3c-0.3,0-0.5,0.2-0.5,0.5v5.3c0,0.1,0,0.1,0,0.2c0,0.1,0.1,0.1,0.1,0.2l2.3,2.3c0.1,0.1,0.2,0.1,0.4,0.1
		s0.3,0,0.4-0.1c0.2-0.2,0.2-0.5,0-0.7L8.5,7.9V2.8C8.5,2.6,8.3,2.3,8,2.3z"/>
</g>
</svg>
