<?xml version="1.0" encoding="utf-8"?>
<!-- Generator: Adobe Illustrator 22.1.0, SVG Export Plug-In . SVG Version: 6.00 Build 0)  -->
<svg version="1.1" id="Layer_3" xmlns="http://www.w3.org/2000/svg" xmlns:xlink="http://www.w3.org/1999/xlink" x="0px" y="0px"
	 viewBox="0 0 16 16" style="enable-background:new 0 0 16 16;" xml:space="preserve">
<style type="text/css">
	.st0{fill:#CCCCCC;}
</style>
<path class="st0" d="M16,8c0-2.3-3.5-4.2-8-4.2C6.9,3.8,5.9,4,4.9,4.2L2.9,2.1L2.2,2.7l1.7,1.7C1.5,5.2,0,6.5,0,8
	c0,2.3,3.5,4.2,8,4.2c1.1,0,2.1-0.1,3.1-0.3l2.1,2.1l0.7-0.7l-1.7-1.7C14.5,10.8,16,9.5,16,8z M8,11.2c-4.2,0-7-1.6-7-3.2
	c0-1.1,1.4-2.2,3.6-2.8l0.9,1C5.2,6.7,4.9,7.3,4.9,8c0,1.7,1.4,3.1,3.1,3.1c0.7,0,1.3-0.2,1.8-0.6l0.5,0.5C9.6,11.1,8.8,11.2,8,11.2
	z M9.8,9.1L6.9,6.2C7.2,6,7.6,5.9,8,5.9c1.2,0,2.1,0.9,2.1,2.1C10.1,8.4,10,8.8,9.8,9.1z M9.1,9.8C8.8,10,8.4,10.1,8,10.1
	c-1.2,0-2.1-0.9-2.1-2.1c0-0.4,0.1-0.8,0.3-1.1L9.1,9.8z M11.4,10.8l-0.9-1c0.4-0.5,0.6-1.1,0.6-1.8c0-1.7-1.4-3.1-3.1-3.1
	c-0.7,0-1.3,0.2-1.8,0.6L5.7,5C6.4,4.9,7.2,4.8,8,4.8c4.2,0,7,1.6,7,3.2C15,9.1,13.6,10.2,11.4,10.8z"/>
</svg>
