<?xml version="1.0" encoding="utf-8"?>
<!-- Generator: Adobe Illustrator 22.1.0, SVG Export Plug-In . SVG Version: 6.00 Build 0)  -->
<svg version="1.1" id="Layer_1" xmlns="http://www.w3.org/2000/svg" xmlns:xlink="http://www.w3.org/1999/xlink" x="0px" y="0px"
	 viewBox="0 0 16 16" style="enable-background:new 0 0 16 16;" xml:space="preserve">
<style type="text/css">
	.st0{fill:#333333;}
</style>
<path class="st0" d="M8,0C3.6,0,0,3.6,0,8c0,4.4,3.6,8,8,8c4.4,0,8-3.6,8-8C16,3.6,12.4,0,8,0z M1,8c0-3.8,3.1-7,7-7
	c1.7,0,3.3,0.6,4.5,1.7l-9.8,9.8C1.7,11.3,1,9.7,1,8z M8,15c-1.7,0-3.3-0.6-4.5-1.7l9.8-9.8C14.3,4.7,15,6.3,15,8
	C15,11.8,11.8,15,8,15z"/>
</svg>
