<?xml version="1.0" encoding="utf-8"?>
<!-- Generator: Adobe Illustrator 22.1.0, SVG Export Plug-In . SVG Version: 6.00 Build 0)  -->
<svg version="1.1" id="Layer_3" xmlns="http://www.w3.org/2000/svg" xmlns:xlink="http://www.w3.org/1999/xlink" x="0px" y="0px"
	 viewBox="0 0 16 16" style="enable-background:new 0 0 16 16;" xml:space="preserve">
<style type="text/css">
	.st0{fill:#333333;}
</style>
<g>
	<path class="st0" d="M8,12.2c-4.5,0-8-1.8-8-4.2c0-2.3,3.5-4.2,8-4.2c4.5,0,8,1.8,8,4.2C16,10.3,12.5,12.2,8,12.2z M8,4.8
		C3.8,4.8,1,6.5,1,8c0,1.5,2.8,3.2,7,3.2s7-1.6,7-3.2C15,6.5,12.2,4.8,8,4.8z"/>
</g>
<g>
	<path class="st0" d="M8,11.1c-1.7,0-3.1-1.4-3.1-3.1c0-1.7,1.4-3.1,3.1-3.1c1.7,0,3.1,1.4,3.1,3.1C11.1,9.7,9.7,11.1,8,11.1z
		 M8,5.9C6.8,5.9,5.9,6.8,5.9,8s0.9,2.1,2.1,2.1s2.1-0.9,2.1-2.1S9.2,5.9,8,5.9z"/>
</g>
</svg>
