<?xml version="1.0" encoding="utf-8"?>
<!-- Generator: Adobe Illustrator 23.0.1, SVG Export Plug-In . SVG Version: 6.00 Build 0)  -->
<svg version="1.1" id="Layer_1" xmlns="http://www.w3.org/2000/svg" xmlns:xlink="http://www.w3.org/1999/xlink" x="0px" y="0px"
	 viewBox="0 0 16 16" style="enable-background:new 0 0 16 16;" xml:space="preserve">
<style type="text/css">
	.st0{fill:#ffffff;}
</style>
<g>
	<path class="st0" d="M12.5,3.5v-3C12.5,0.2,12.3,0,12,0H4C3.7,0,3.5,0.2,3.5,0.5v3C1.5,3.7,0,5.3,0,7.4v1.3c0,2,1.5,3.6,3.5,3.8v3
		C3.5,15.8,3.7,16,4,16h8c0.3,0,0.5-0.2,0.5-0.5v-3c2-0.2,3.5-1.8,3.5-3.8V7.4C16,5.3,14.5,3.7,12.5,3.5z M11.5,1v2.5h-7V1H11.5z
		 M11.5,15h-7V9h7V15z M15,8.6c0,1.5-1.1,2.6-2.5,2.8v-3C12.5,8.2,12.3,8,12,8H4C3.7,8,3.5,8.2,3.5,8.5v3C2.1,11.3,1,10.1,1,8.6V7.4
		c0-1.6,1.3-2.9,2.9-2.9h8.3c1.6,0,2.9,1.3,2.9,2.9V8.6z"/>
	<path class="st0" d="M6,11.5h4c0.3,0,0.5-0.2,0.5-0.5s-0.2-0.5-0.5-0.5H6c-0.3,0-0.5,0.2-0.5,0.5S5.7,11.5,6,11.5z"/>
	<path class="st0" d="M6,13.5h4c0.3,0,0.5-0.2,0.5-0.5s-0.2-0.5-0.5-0.5H6c-0.3,0-0.5,0.2-0.5,0.5S5.7,13.5,6,13.5z"/>
</g>
</svg>
