<?xml version="1.0" encoding="utf-8"?>
<!-- Generator: Adobe Illustrator 22.1.0, SVG Export Plug-In . SVG Version: 6.00 Build 0)  -->
<svg version="1.1" id="Layer_1" xmlns="http://www.w3.org/2000/svg" xmlns:xlink="http://www.w3.org/1999/xlink" x="0px" y="0px"
	 viewBox="0 0 16 16" style="enable-background:new 0 0 16 16;" xml:space="preserve">
<style type="text/css">
	.st0{fill:rgba(255, 255, 255, 0.5);}
</style>
<g>
	<path class="st0" d="M4,4.4l0.7,0.7L7.6,2v8.7c0,0.3,0.2,0.5,0.5,0.5c0.3,0,0.5-0.2,0.5-0.5V2l2.9,3.1l0.7-0.7L8.1,0L4,4.4z"/>
	<path class="st0" d="M15.5,7C15.2,7,15,7.2,15,7.5v6.6c0,0.5-0.4,0.9-0.9,0.9H1.9C1.4,15,1,14.6,1,14.1V7.5C1,7.2,0.8,7,0.5,7
		S0,7.2,0,7.5v6.6c0,1,0.9,1.9,1.9,1.9h12.2c1,0,1.9-0.9,1.9-1.9V7.5C16,7.2,15.8,7,15.5,7z"/>
</g>
</svg>
