<?xml version="1.0" encoding="utf-8"?>
<!-- Generator: Adobe Illustrator 22.1.0, SVG Export Plug-In . SVG Version: 6.00 Build 0)  -->
<svg version="1.1" id="Layer_1" xmlns="http://www.w3.org/2000/svg" xmlns:xlink="http://www.w3.org/1999/xlink" x="0px" y="0px"
	 viewBox="0 0 16 16" style="enable-background:new 0 0 16 16;" xml:space="preserve">
<style type="text/css">
	.st0{fill:#333333;}
</style>
<g>
	<path class="st0" d="M12.2,6.8l-0.7-0.7L8.6,9.2V0.5C8.6,0.2,8.4,0,8.1,0C7.8,0,7.6,0.2,7.6,0.5v8.7L4.7,6.1L4,6.8l4.1,4.4
		L12.2,6.8z"/>
	<path class="st0" d="M15.5,7C15.2,7,15,7.2,15,7.5v6.6c0,0.5-0.4,0.9-0.9,0.9H1.9C1.4,15,1,14.6,1,14.1V7.5C1,7.2,0.8,7,0.5,7
		S0,7.2,0,7.5v6.6c0,1,0.9,1.9,1.9,1.9h12.2c1,0,1.9-0.9,1.9-1.9V7.5C16,7.2,15.8,7,15.5,7z"/>
</g>
</svg>
