<?xml version="1.0" encoding="utf-8"?>
<!-- Generator: Adobe Illustrator 22.1.0, SVG Export Plug-In . SVG Version: 6.00 Build 0)  -->
<svg version="1.1" id="Layer_2" xmlns="http://www.w3.org/2000/svg" xmlns:xlink="http://www.w3.org/1999/xlink" x="0px" y="0px"
	 viewBox="0 0 16 16" style="enable-background:new 0 0 16 16;" xml:space="preserve">
<style type="text/css">
	.st0{fill:#ffffff;}
</style>
<g>
	<path class="st0" d="M16,7.6c0-0.9-0.2-1.8-0.5-2.6l-1,0.4C14.8,6,15,6.8,15,7.6c0,2.7-1.8,5.1-4.3,5.9l1-1.6l-0.4-0.3l-1.6,2.6
		l2.7,1.4l0.2-0.5L11,14.4C13.9,13.4,16,10.7,16,7.6z"/>
	<path class="st0" d="M11,2.9l0,0.5l3.1,0.1l-0.2-3.1l-0.5,0l0.1,1.7c-1.3-1.1-3-1.8-4.7-1.8c-2.3,0-4.3,1-5.7,2.8l0.8,0.6
		c1.2-1.5,3-2.4,4.9-2.4c1.5,0,3,0.6,4.1,1.6L11,2.9z"/>
	<path class="st0" d="M2.6,7.6c0-0.4,0.1-0.8,0.1-1.3l0.9,1.6l0.4-0.3L2.6,5L0,6.7l0.3,0.4l1.4-0.9C1.6,6.7,1.6,7.1,1.6,7.6
		c0,3.7,2.7,6.8,6.4,7.2l0.1-1C4.9,13.4,2.6,10.7,2.6,7.6z"/>
</g>
</svg>
