<?xml version="1.0" encoding="utf-8"?>
<!-- Generator: Adobe Illustrator 22.1.0, SVG Export Plug-In . SVG Version: 6.00 Build 0)  -->
<svg version="1.1" id="Layer_2" xmlns="http://www.w3.org/2000/svg" xmlns:xlink="http://www.w3.org/1999/xlink" x="0px" y="0px"
	 viewBox="0 0 360 140" style="enable-background:new 0 0 360 140;" xml:space="preserve">
<style type="text/css">
	.st0{filter:url(#Adobe_OpacityMaskFilter);}
	.st1{fill:#FFFFFF;}
	.st2{opacity:0.28;mask:url(#mask-2_2_);}
</style>
<g id="Page-1">
	<g id="Group-17">
		<g id="Mask">
		</g>
		<defs>
			<filter id="Adobe_OpacityMaskFilter" filterUnits="userSpaceOnUse" x="0" y="0" width="360" height="140">
				<feColorMatrix  type="matrix" values="1 0 0 0 0  0 1 0 0 0  0 0 1 0 0  0 0 0 1 0"/>
			</filter>
		</defs>
		<mask maskUnits="userSpaceOnUse" x="0" y="0" width="360" height="140" id="mask-2_2_">
			<g class="st0">
				<polygon id="path-1_2_" class="st1" points="-3.8,-0.2 363.3,-0.2 363.3,157.5 -3.8,157.5 				"/>
			</g>
		</mask>
		<g class="st2">
			<g transform="translate(-166.000000, -276.000000)">
				<path id="Stroke-10" class="st1" d="M497.7,276l-28.1,13.7l-1.2,0.6l0,0l-0.2-0.1l-0.1-0.1l-1.1-0.5L439,276h-0.6l28.4,13.8
					l0.9,0.4l0.1,0.1l0.2,0.1l0,0l0.1,0l0.2,0.1c0.4-0.2,0.8-0.4,1.2-0.6c12.1-5.9,21.6-10.6,28.5-14H497.7z"/>
				<path id="Stroke-47" class="st1" d="M468.1,276c0,3.9,0,8.1,0,12.8v1.3l-0.1,0l0,0l-0.3,0.1l0,0l-0.8,0.4l-42.1,20.5l-42.9-20.9
					l-0.3-0.1l-0.3-0.1l0,0c0,0,0,0-0.1,0h0c-0.1,0.1-0.1,0.2,0,0.2l0.1,0.1l0.1,0.1l0.3,0.2l42.9,20.9l42.3-20.6l0.8-0.4l0.2-0.1h0
					l0,0l0.2-0.1l0.1-0.1l0,0V276H468.1z"/>
				<path id="Stroke-48" class="st1" d="M380.9,276v14.1l-0.1,0.1l-0.6,0.3l-42.6,20.8l-43-20.9l-0.3-0.1l-0.1,0V276H294v14.2l0.1,0
					l0,0l0.1,0l0.1,0.1h0l0.1,0l43.2,21l42.7-20.8l0.7-0.4l0.1,0l0.1,0V276H380.9z M294.3,290.1L294.3,290.1l-0.1-14.1H294v14.2
					l0.1,0l0,0l0.1,0l0.1,0.1h0l0.1,0l0.2-0.1L294.3,290.1z"/>
				<path class="st1" d="M207.2,276h0.2c0,8.2-0.1,12.9-0.1,14v0c0,0,0,0.1,0,0.1c0,0.1,0,0.1,0,0.1V276z"/>
				<path id="Stroke-49-Copy" class="st1" d="M207.1,290.4l43.5,21.2c0.1,0,0.1,0,0.2-0.1s0-0.1-0.1-0.2l-43.5-21.2
					c-0.1,0-0.1,0-0.2,0.1C207,290.3,207.1,290.4,207.1,290.4z"/>
				<path class="st1" d="M526,360.8v0.3l-13.2-6.5l-1.1-0.5l-0.3,0.1l-1,0.5l-41,20l-1,0.5V416h-0.3v-41l0.1,0l0,0l1.1-0.5h0l41-20
					l1-0.5h0l0,0h0l0.3-0.1h0l0.1,0c0,0,0.1,0,0.2,0.1c0,0,0.1,0,0.1,0.1c0.3,0.1,0.6,0.3,0.9,0.4C517.7,356.7,522,358.8,526,360.8z
					"/>
				<circle id="Oval-8-Copy-22" class="st1" cx="468.5" cy="374.8" r="0.9"/>
				<path id="Stroke-71-Copy" class="st1" d="M425.1,353.7v-42.2c-0.1-0.1-0.2,14-0.3,42.4l43.6,21.2l43.5-21.2c0-0.2,0-0.3-0.1-0.2
					l-43.4,21.1L425.1,353.7z"/>
				<path id="Stroke-72" class="st1" d="M468.3,375C468.3,375,468.3,374.9,468.3,375L468.3,375l-0.7-0.3v0l-41.2-20.1l-1.5-0.7
					l-0.1-0.1l0,0l-0.3,0.1l-0.6,0.3l-41.9,20.4l-0.7,0.3c0,0-0.1,0.1-0.1,0.1v0c0,0,0,0,0,0.1s0,0,0.1,0c0,0,0.1,0,0.1,0l0.6-0.3
					l41.9-20.4l0.6-0.3l0.2-0.1l0,0l1.5,0.7l41.4,20.1l0.5,0.3l0.1,0c0.1,0,0.1,0,0.2-0.1C468.3,375.1,468.3,375,468.3,375z"/>
				<path id="Stroke-74" class="st1" d="M294.4,374.6l-0.3-0.1L251.9,354l-0.8-0.4l-0.2-0.1l-0.1,0l-0.3,0.1l0,0c0,0,0,0,0,0
					l-1.2,0.6l-41.7,20.3l-0.3,0.1h0V416h0.3v-41.1h0l41.8-20.4l1.2-0.6l0.3-0.1l0.9,0.4l42.3,20.6l0.1,0.1V416h0.3v-41.3
					L294.4,374.6z"/>
				<path id="Stroke-74-Copy" class="st1" d="M294.4,375.1v-42.2c-0.1-0.1-0.2,14-0.3,42.4l43.6,21.2l43.5-21.2c0-0.2,0-0.3-0.1-0.2
					l-43.4,21.1L294.4,375.1z"/>
				<path class="st1" d="M207.6,332.6v42.5h0l-0.3,0.1L166,395.4v-0.3l41.3-20.1h0v-42.1c-0.1,0-0.1-0.1-0.2-0.1c0,0,0,0-0.1,0
					c-0.1,0-0.2-0.1-0.2-0.1c0,0-0.1,0-0.1,0c-22.4-10.9-36-17.6-40.8-20v-0.1l41.1,20l0.1,0h0l0.2,0.1L207.6,332.6z"/>
				<path id="Stroke-219" class="st1" d="M525.5,276H525l1,0.5v-0.3L525.5,276z M512.7,353.1l-1.2,0.6l-0.1,0l-1.1-0.5l-28.9-14.1
					l-13.4-6.5v-42.1l0.1,0l1.4-0.7l28.3-13.8h-0.6l-27.8,13.5l-1.1,0.5l-0.2,0.1l0,0l-0.3,0.1l0,0l0,0v42.5l42.4,20.6l1,0.5h0
					l0.2,0.1l0.3-0.1l0.2-0.1l0.2-0.1l0.8-0.4l13.2-6.4v-0.3L512.7,353.1z M510.1,353.3c-1.3-0.6-2.6-1.3-3.8-1.9
					c-0.5-0.2-0.9-0.5-1.4-0.7c-0.6-0.3-1.2-0.6-1.8-0.9c-0.2-0.1-0.3-0.1-0.4-0.2c-0.4-0.2-0.8-0.4-1.2-0.6c-2-1-3.9-1.9-5.6-2.8
					c-0.4-0.2-0.7-0.4-1.1-0.5c-2.8-1.4-5.4-2.6-7.8-3.8c-0.6-0.3-1.2-0.6-1.7-0.9c-0.4-0.2-0.8-0.4-1.2-0.6c-0.5-0.2-1-0.5-1.5-0.7
					c-0.3-0.2-0.6-0.3-0.9-0.5c-0.5-0.2-1-0.5-1.5-0.7c-0.4-0.2-0.8-0.4-1.2-0.6c-0.4-0.2-0.9-0.4-1.3-0.6c-1.9-0.9-3.5-1.7-4.8-2.4
					c-0.3-0.1-0.5-0.3-0.8-0.4c-0.6-0.3-1.1-0.5-1.6-0.8c-0.2-0.1-0.3-0.1-0.4-0.2c-1.2-0.6-2-1-2.2-1.1c0,0-0.1,0-0.1,0
					c0,0,0,0,0,0c0-0.1,0.1-0.1,0.2-0.1l0.1,0v-42.1l0.1,0l-0.1,0l0,0l0,0h0l-0.2-0.1l0,0v42.5l42.4,20.6c0,0,0,0,0-0.1
					C510.2,353.4,510.1,353.3,510.1,353.3z"/>
				<path class="st1" d="M410.2,276h0.6l-28.9,14.1l-0.3,0.1l-0.1,0.1l-0.2,0.1l-0.1,0l0,0l-0.1,0c0,0,0,0-0.1,0c0,0-0.1,0-0.1-0.1
					c0,0,0,0,0,0c0,0,0,0,0,0c0,0,0,0,0,0c0,0,0-0.1,0.1-0.1l0.1,0l0.1-0.1h0l0.1,0l0.5-0.2L410.2,276z"/>
				<path class="st1" d="M468.2,290.3C468.2,290.3,468.2,290.3,468.2,290.3c0,0.1-0.1,0.1-0.1,0.1c0,0,0,0-0.1,0h0l-0.2-0.1
					l-0.1-0.1l-0.9-0.4L438.4,276h0.6l27.9,13.6l1.1,0.5l0.1,0.1c0,0,0,0,0,0C468.2,290.2,468.2,290.3,468.2,290.3z"/>
				<path class="st1" d="M511.7,353.8v42.5l-38.1,18.5c-0.8,0.4-1.7,0.8-2.5,1.2h-0.6l41-19.9V354c0,0-0.1,0-0.1,0h0
					c-0.4-0.2-0.7-0.3-1.1-0.5c-0.1,0-0.1-0.1-0.2-0.1c-1.3-0.6-2.6-1.3-3.8-1.9c-0.5-0.2-0.9-0.5-1.4-0.7c-0.6-0.3-1.2-0.6-1.8-0.9
					c-0.2-0.1-0.3-0.1-0.4-0.2c-0.4-0.2-0.8-0.4-1.2-0.6c-2-1-3.9-1.9-5.6-2.8c-0.4-0.2-0.7-0.4-1.1-0.5c-2.8-1.4-5.4-2.6-7.8-3.8
					c-0.6-0.3-1.2-0.6-1.7-0.9c-0.4-0.2-0.8-0.4-1.2-0.6c-0.5-0.3-1-0.5-1.5-0.7c-0.3-0.2-0.6-0.3-0.9-0.5c-0.5-0.2-1-0.5-1.5-0.7
					c-0.4-0.2-0.8-0.4-1.2-0.6c-0.4-0.2-0.9-0.4-1.3-0.6c-1.9-0.9-3.5-1.7-4.8-2.4c-0.3-0.1-0.5-0.3-0.8-0.4
					c-0.6-0.3-1.1-0.5-1.6-0.8c-0.2-0.1-0.3-0.1-0.4-0.2c-1.2-0.6-2-1-2.2-1.1c0,0-0.1,0-0.1,0c0,0,0,0,0,0c0-0.1,0.1-0.1,0.2-0.1
					l0.1,0l13.4,6.5l28.9,14l1.1,0.5L511.7,353.8L511.7,353.8L511.7,353.8z"/>
				<path id="Stroke-222" class="st1" d="M294.2,290.4C294.2,290.4,294.2,290.4,294.2,290.4L294.2,290.4
					C294.2,290.4,294.2,290.3,294.2,290.4c0-0.1,0-0.1,0-0.1v-0.1c0-0.1,0-0.1,0-0.1c-0.1,0-0.1-0.1-0.2-0.1
					c-12.1-5.9-21.7-10.5-28.7-14h-0.6l29.3,14.2v42.2l-0.1,0.1l-0.8,0.4L251.7,353l-1,0.5l0,0l-1.3-0.6l-42-20.5v-42.2l0,0
					l29.2-14.2H236c-17.7,8.6-27.3,13.3-28.8,14.1c0,0,0,0,0,0c0,0,0,0,0,0c-0.1,0-0.1,0.1-0.1,0.1v0.1c0,26.5,0,40.5,0.1,42.1
					c0,0.1,0,0.2,0,0.2c0,0,0,0,0.1,0s0,0,0.1,0c0.1,0.1,0.2,0.1,0.3,0.2c23.5,11.4,37.4,18.2,41.7,20.3c0.6,0.3,1,0.5,1.3,0.6
					c0,0,0,0,0,0c0.1,0,0.1,0,0.1,0.1c0,0,0,0,0,0c0.1,0,0.1-0.1,0.2-0.1c0.1,0,0.1,0,0.2-0.1c0.3-0.1,0.5-0.3,0.8-0.4
					c23.6-11.5,37.4-18.2,41.3-20.1c0.3-0.2,0.6-0.3,0.8-0.4c0,0,0.1,0,0.1-0.1c0.2-0.1,0.3-0.1,0.3-0.1v-1.4
					C294.2,306.3,294.2,292.8,294.2,290.4z M293.9,332.5l-0.8,0.4L251.7,353l-1,0.5l0.1,0.1l0.1,0v0.1c0.1,0,0.1,0,0.2-0.1
					c0.3-0.1,0.5-0.3,0.8-0.4c23.6-11.5,37.4-18.2,41.3-20.1c0.3-0.2,0.6-0.3,0.8-0.4c0,0,0.1,0,0.1-0.1v-0.2L293.9,332.5z"/>
				<path id="Polygon-Copy-3" class="st1" d="M381.5,333.7L338,312.4c0,0-0.1,0-0.2,0c0,0-0.1,0-0.2,0l-0.1,0l-41.9,20.5l-1.3,0.6
					l0,0l-0.1,0.1c-0.1,0-0.1,0.1,0,0.2c0,0,0,0,0,0l0.1,0.1l0.1,0l43.2,19.8l0.1,0c0,0,0.1,0,0.2,0h0c0,0,0.1,0,0.1,0h0
					c0,0,0,0,0.1,0l43.5-20C381.6,333.8,381.6,333.7,381.5,333.7z M337.8,353.6C337.8,353.6,337.8,353.6,337.8,353.6l-0.3-0.1
					l-42.9-19.7l-0.1-0.1c0.3-0.2,0.6-0.3,1-0.5c25.8-12.6,39.8-19.5,42.1-20.5c0.1-0.1,0.2-0.1,0.3-0.1c0,0,0.1,0,0.1,0l43.2,21.2
					C353.2,346.6,338.7,353.2,337.8,353.6z"/>
				<polygon id="Line-2" class="st1" points="381.3,332.7 381.3,290.4 381,290.4 381,332.7 				"/>
				<polygon id="Line-2-Copy" class="st1" points="294,290.4 294,332.6 294.2,332.6 294.2,290.4 				"/>
				<polygon id="Line-2-Copy_1_" class="st1" points="294.4,332.7 294.4,290.3 293.9,290.3 293.9,332.7 				"/>
				<path class="st1" d="M323,276h0.6l-29,14.3l-0.2,0.1l-0.1,0h0c0,0,0,0,0,0h0c0,0,0,0-0.1,0c0,0,0,0,0,0s0,0,0,0v0
					c0,0,0-0.1,0.1-0.1c0,0,0,0,0,0l0.1-0.1L323,276z"/>
				<path class="st1" d="M381.5,290.3C381.5,290.3,381.5,290.3,381.5,290.3c0,0.1,0,0.1,0,0.1c0,0,0,0-0.1,0c0,0,0,0-0.1,0l-0.1,0
					l-0.2-0.1l0,0l-0.1,0l-0.2-0.1l-0.6-0.3L352,276h0.6l27.7,13.6l0.6,0.3l0.3,0.1l0.1,0.1h0L381.5,290.3
					C381.5,290.2,381.5,290.2,381.5,290.3z"/>
				<path id="Polygon-Copy-3_1_" class="st1" d="M294.9,333.8C294.9,333.8,294.9,333.8,294.9,333.8c-0.1,0-0.1,0-0.2,0.1l42.9,19.7
					v-0.1L294.9,333.8z M381.5,333.5L338,312.3c-0.1,0-0.1,0-0.2,0c-0.1,0-0.2,0-0.2,0l0,0l-41.8,20.5l-1.4,0.7l0,0l-0.2,0.1
					c-0.1,0.1-0.2,0.2-0.1,0.3c0,0.1,0.1,0.1,0.1,0.2l0.2,0.1l0.1,0l43.2,19.8l0,0c0.1,0,0.1,0,0.2,0c0,0,0,0,0,0c0.1,0,0.1,0,0.2,0
					l0,0l43.4-19.9C381.7,333.9,381.7,333.6,381.5,333.5z M294.8,333.8l0.4-0.2c0,0,0,0,0,0l42.3-20.7l0.3-0.1h0l43,21l-43,19.7h0
					l-0.3-0.1L294.8,333.8C294.9,333.8,294.9,333.8,294.8,333.8L294.8,333.8z M294.9,333.8C294.9,333.8,294.9,333.8,294.9,333.8
					c-0.1,0-0.1,0-0.2,0.1l42.9,19.7v-0.1L294.9,333.8z M294.9,333.8C294.9,333.8,294.9,333.8,294.9,333.8c-0.1,0-0.1,0-0.2,0.1
					l42.9,19.7v-0.1L294.9,333.8z"/>
				<path class="st1" d="M323,276h0.6l-29,14.3l-0.2,0.1l-0.1,0h0c0,0,0,0,0,0h0c0,0,0,0-0.1,0c0,0,0,0,0,0s0,0,0,0v0
					c0,0,0-0.1,0.1-0.1c0,0,0,0,0,0l0.1-0.1L323,276z"/>
				<path class="st1" d="M381.5,290.3C381.5,290.3,381.5,290.3,381.5,290.3c0,0.1,0,0.1,0,0.1c0,0,0,0-0.1,0c0,0,0,0-0.1,0l-0.1,0
					l-0.2-0.1l0,0l-0.1,0l-0.2-0.1l-0.6-0.3L352,276h0.6l27.7,13.6l0.6,0.3l0.3,0.1l0.1,0.1h0L381.5,290.3
					C381.5,290.2,381.5,290.2,381.5,290.3z"/>
				<path id="Stroke-223" class="st1" d="M207.3,290.1L207.3,290.1L207.3,290.1L178.4,276h-0.6l29.3,14.2v42.2l-0.3,0.1L166,352.4
					v0.3l41.1-20l0.1-0.1l0.1-0.1L207.3,290.1L207.3,290.1z M207.1,290.3v42.1l0.1,0C207.1,330.8,207.1,316.8,207.1,290.3z"/>
				<path id="Stroke-244" class="st1" d="M511.5,396.1L511.5,396.1l-41,19.9h0.6c0.8-0.4,1.7-0.8,2.5-1.2c0.8-0.4,1.6-0.8,2.3-1.1
					c0.7-0.4,1.5-0.7,2.2-1.1c22.4-10.9,33.6-16.4,33.6-16.4C511.6,396.1,511.5,396.1,511.5,396.1z"/>
				<polygon class="st1" points="424.8,396.3 465.3,416 464.7,416 424.6,396.5 384.5,416 383.9,416 424.6,396.2 				"/>
				<path id="Stroke-246" class="st1" d="M339,396.8l-1-0.5h0l-0.3-0.2l-0.2-0.1l0,0l0,0l-0.3,0.1l-0.9,0.4L296.6,416h0.6l39.2-19.1
					l1.1-0.5l0,0l0.2,0.1l1.2,0.6l39,19h0.6L339,396.8z"/>
				<path class="st1" d="M339.1,396.7l39.6,19.3h-0.6L339,397l-1.2-0.6l-0.3-0.1v-1.2c0-25.5,0.1-39.1,0.2-41c0,0,0-0.1,0-0.1
					c0-0.1,0-0.1,0-0.1h0v42.2l0.3,0.1L339.1,396.7z"/>
				<path class="st1" d="M424.8,353.8v42.5L384.3,416h-0.6l40.8-19.9V354c0,0,0,0-0.1,0c-0.2-0.1-0.4-0.2-0.7-0.3
					c-27.2-13.3-41.4-20.3-42.5-20.9c0,0,0,0-0.1,0l0.1,0l42.6,20.7L424.8,353.8L424.8,353.8z"/>
				<path id="Stroke-247" class="st1" d="M250.7,396.1L250.7,396.1l-41,19.9h0.6l40.4-19.7L291,416h0.6L250.7,396.1z"/>
				<polygon class="st1" points="204.7,416 204.1,416 166,397.5 166,397.2 				"/>
				<path id="Stroke-254-Copy" class="st1" d="M337.8,311.7l43.3-21.1l43.4,21.1c0.1-0.1-14.3-7.2-43.4-21.4l-43.6,21.2V354
					l43.5,21.2c0.1-0.1-14.3-7.2-43.3-21.4V311.7z"/>
				<path id="Stroke-256" class="st1" d="M250.8,353.5l-0.1-0.1l-1.3-0.6l-42.1-20.5l-0.2,0.1h0l-0.3,0.1L166,352.5v0.3l41.1-20
					l0.1-0.1l0.1,0l0.3,0.1l41.7,20.3l1.3,0.6l0.1,0v42.2L209.3,416h0.6l40.9-19.9l0.2-0.1L250.8,353.5L250.8,353.5z M166,396.8v0.3
					l38.7,18.9h0.6L166,396.8z M250.7,353.8C250.7,353.8,250.7,353.7,250.7,353.8l0,0.1l0.3-0.1v-0.1
					C250.8,353.7,250.8,353.7,250.7,353.8z"/>
				<circle id="Oval-8-Copy-5" class="st1" cx="337.7" cy="396.5" r="1.4"/>
				<circle id="Oval-8-Copy-14" class="st1" cx="425.1" cy="353.9" r="1.4"/>
				<circle id="Oval-8-Copy-10" class="st1" cx="294.4" cy="332.5" r="1.4"/>
				<circle id="Oval-8-Copy-9" class="st1" cx="511.5" cy="353.9" r="1.4"/>
				<circle id="Oval-8-Copy-11" class="st1" cx="468.2" cy="290.2" r="1.4"/>
				<circle id="Oval-8-Copy-20" class="st1" cx="381" cy="290.2" r="0.9"/>
				<circle id="Oval-8-Copy-25" class="st1" cx="251" cy="311.3" r="0.9"/>
				<circle id="Oval-8-Copy-18" class="st1" cx="381" cy="374.8" r="0.9"/>
				<circle id="Oval-8-Copy-16" class="st1" cx="250.8" cy="311.1" r="1.4"/>
				<circle id="Oval-8-Copy-24" class="st1" cx="250.5" cy="353.6" r="1.4"/>
			</g>
		</g>
	</g>
</g>
</svg>
