<?xml version="1.0" encoding="utf-8"?>
<!-- Generator: Adobe Illustrator 22.1.0, SVG Export Plug-In . SVG Version: 6.00 Build 0)  -->
<svg version="1.1" id="Layer_1" xmlns="http://www.w3.org/2000/svg" xmlns:xlink="http://www.w3.org/1999/xlink" x="0px" y="0px"
	 viewBox="0 0 10 10" style="enable-background:new 0 0 10 10;" xml:space="preserve">
<style type="text/css">
	.st0{fill:#242424;}
</style>
<path class="st0" d="M5.6,5l4.2-4.2c0.2-0.2,0.2-0.5,0-0.6C9.7,0,9.4,0,9.2,0.1L5,4.4L0.8,0.1C0.6,0,0.3,0,0.1,0.1S0,0.6,0.1,0.8
	L4.4,5L0.1,9.2C0,9.4,0,9.7,0.1,9.9C0.2,10,0.3,10,0.5,10s0.2,0,0.3-0.1L5,5.6l4.2,4.2C9.3,10,9.4,10,9.5,10c0.1,0,0.2,0,0.3-0.1
	c0.2-0.2,0.2-0.5,0-0.6L5.6,5z"/>
</svg>
