<?xml version="1.0" encoding="utf-8"?>
<!-- Generator: Adobe Illustrator 22.1.0, SVG Export Plug-In . SVG Version: 6.00 Build 0)  -->
<svg version="1.1" id="Layer_3" xmlns="http://www.w3.org/2000/svg" xmlns:xlink="http://www.w3.org/1999/xlink" x="0px" y="0px"
	 viewBox="0 0 24 24" style="enable-background:new 0 0 24 24;" xml:space="preserve">
<style type="text/css">
	.st0{fill:#fff;}
</style>
<path class="st0" d="M12,0C5.4,0,0,5.4,0,12s5.4,12,12,12s12-5.4,12-12S18.6,0,12,0z M17.4,15.7c-0.1,0.2-0.1,0.4-0.2,0.6
	c-0.1,0.5-0.3,1-0.4,1.6c0,0.1,0,0.1-0.1,0.1H7.1c-0.2,0-0.2,0-0.1-0.1c0.3-1.1,0.6-2.3,0.9-3.4c0-0.1,0-0.1,0-0.2
	c-0.2,0.1-0.3,0.1-0.5,0.2c-0.3,0.1-0.6,0.2-0.8,0.3c0,0,0,0,0,0c0,0,0,0-0.1,0c0,0,0,0,0-0.1c0.1-0.4,0.2-0.8,0.3-1.3
	C6.9,13.3,7,13.2,7,13c0-0.1,0-0.1,0.1-0.1c0.3-0.1,0.6-0.2,0.9-0.3c0.1,0,0.3-0.1,0.4-0.1c0.1,0,0.1-0.1,0.1-0.1
	c0.1-0.6,0.3-1.1,0.4-1.7c0.3-1.1,0.6-2.3,0.9-3.4c0.1-0.4,0.2-0.8,0.3-1.2c0-0.1,0-0.1,0.1-0.1h3.5c0.1,0,0.1,0,0.1,0.1
	c0,0.2-0.1,0.3-0.1,0.5c-0.2,0.6-0.3,1.2-0.5,1.7c-0.2,0.8-0.4,1.6-0.7,2.5c0,0,0,0.1,0,0.1c0,0,0,0.1,0,0c0.1,0,0.2-0.1,0.3-0.1
	c0.5-0.2,0.9-0.3,1.4-0.5c0,0,0,0,0,0c0,0,0.1,0,0,0.1c0,0.1,0,0.2-0.1,0.3c-0.1,0.4-0.2,0.9-0.4,1.3c0,0.1,0,0.1-0.1,0.1
	c-0.6,0.2-1.1,0.4-1.7,0.6c-0.1,0-0.1,0.1-0.1,0.1c-0.1,0.4-0.2,0.7-0.3,1.1c-0.1,0.5-0.3,1.1-0.4,1.6c0,0,0,0,0,0
	c0,0.1,0,0.1,0.1,0.1L17.4,15.7C17.5,15.7,17.5,15.7,17.4,15.7z"/>
</svg>
