<?xml version="1.0" encoding="utf-8"?>
<!-- Generator: Adobe Illustrator 22.1.0, SVG Export Plug-In . SVG Version: 6.00 Build 0)  -->
<svg version="1.1" id="Layer_3" xmlns="http://www.w3.org/2000/svg" xmlns:xlink="http://www.w3.org/1999/xlink" x="0px" y="0px"
	 viewBox="0 0 24 24" style="enable-background:new 0 0 24 24;" xml:space="preserve">
<style type="text/css">
	.st0{fill:#333333;}
</style>
<path class="st0" d="M20.7,16.3c-2.6,0-4.2-1.6-4.2-4.2c0-2.9,1.9-4.2,4.1-4.2c1.1,0,2,0.3,2.6,0.5l0.7-3c-0.6-0.3-1.9-0.6-3.6-0.6
	c-2.3,0-4.5,0.8-5.9,2.3c-0.2-0.6-0.5-1-1-1.4C13,5.2,12.4,5,11.8,4.8c-0.6-0.2-1.3-0.3-1.9-0.4c-0.1,0-0.1,0-0.1-0.1
	c0-1,0-2.1,0-3.1c0-0.1,0-0.1-0.1-0.1c-0.6,0-1.2,0-1.8,0c-0.1,0-0.1,0-0.1,0.1c0,1,0,2,0,3c0,0.1,0,0.1-0.1,0.1c-0.5,0-1,0-1.4,0
	c-0.1,0-0.1,0-0.1-0.1c0-1,0-2,0-3c0-0.1,0-0.1-0.1-0.1c-0.6,0-1.2,0-1.8,0c-0.2,0-0.1,0-0.1,0.1c0,1,0,2,0,3.1c0,0.1,0,0.1-0.1,0.1
	c-0.4,0-0.8,0-1.3,0c-0.9,0-1.8,0-2.6,0c-0.1,0-0.1,0-0.1,0.1c0,0.7,0,1.3,0,2c0,0,0,0.1,0.1,0.1c0.4,0,0.7,0,1.1,0
	c0.2,0,0.5,0,0.7,0.1c0.4,0.1,0.7,0.5,0.7,1c0,1.2,0,2.5,0,3.7c0,1.7,0,3.4,0,5.1c0,0.3-0.1,0.5-0.4,0.7c-0.1,0.1-0.2,0.1-0.4,0.1
	c-0.5,0-0.9,0-1.4,0c0,0-0.1,0-0.1,0.1c-0.1,0.8-0.3,1.5-0.4,2.3c0,0,0,0.1,0,0.1c0.2,0,0.3,0,0.5,0c1.1,0,2.3,0,3.4,0
	c0.1,0,0.1,0,0.1,0.1c0,1,0,2.1,0,3.2c0,0.1,0,0.1,0.1,0.1c0.6,0,1.2,0,1.8,0c0.1,0,0.1,0,0.1-0.1c0-1,0-2.1,0-3.1
	c0-0.1,0-0.1,0.1-0.1c0.5,0,1,0,1.4,0c0.1,0,0.1,0,0.1,0.1c0,1,0,2.1,0,3.1c0,0.1,0,0.1,0.1,0.1c0.6,0,1.2,0,1.8,0
	c0.1,0,0.1,0,0.1-0.1c0-1,0-2.1,0-3.1c0-0.1,0-0.1,0.1-0.1c0.6,0,1.2-0.1,1.9-0.2c0.7-0.1,1.3-0.3,1.9-0.6c0.5-0.3,1-0.6,1.3-1
	c1.2,1,3,1.7,5.3,1.7c1.7,0,3-0.3,3.6-0.6l-0.5-3C22.6,16.1,21.6,16.3,20.7,16.3z M6.2,10.6c0-0.8,0-1.7,0-2.5c0-0.5,0-0.9,0-1.4
	c0,0,0-0.1,0.1-0.1c0.8,0,1.6,0,2.4,0.1c0.5,0.1,1,0.2,1.4,0.4c0.4,0.2,0.7,0.5,0.8,0.9c0.2,0.7,0.1,1.6-0.9,2.1
	c-0.3,0.1-0.5,0.2-0.8,0.3c-0.7,0.2-1.3,0.2-1.9,0.2C6.9,10.7,6.6,10.7,6.2,10.6C6.2,10.7,6.2,10.7,6.2,10.6z M11,16.5
	c-0.4,0.2-0.8,0.4-1.1,0.5c-0.7,0.2-1.2,0.2-1.7,0.2c-0.6,0-1.3,0-1.9,0c-0.1,0-0.1,0-0.1-0.1c0-1.4,0-2.8,0-4.2
	c0-0.1,0-0.1,0.1-0.1c0.6,0,1.2,0,1.7,0c0.7,0,1.5,0.1,2.2,0.3c0.4,0.1,0.7,0.3,1,0.5C12,14.3,12.1,15.8,11,16.5z"/>
</svg>
