<?xml version="1.0" encoding="utf-8"?>
<!-- Generator: Adobe Illustrator 22.1.0, SVG Export Plug-In . SVG Version: 6.00 Build 0)  -->
<svg version="1.1" id="Layer_3" xmlns="http://www.w3.org/2000/svg" xmlns:xlink="http://www.w3.org/1999/xlink" x="0px" y="0px"
	 viewBox="0 0 24 24" style="enable-background:new 0 0 24 24;" xml:space="preserve">
<style type="text/css">
	.st0{fill:#fff;}
</style>
<path class="st0" d="M15.6,0.6C14,1.6,13.1,3.2,13.1,5c0,0.9,0.4,1.9,0.8,2.7c0.4,0.7,0.6,2-0.7,2.7c-0.9,0.6-2.1,0.2-2.7-0.7
	c-0.6-0.7-1.2-1.5-2-2c-1.6-0.9-3.4-0.9-5,0S0.9,10.2,0.9,12s0.9,3.4,2.5,4.4c1.6,0.9,3.4,0.9,5,0c0.8-0.5,1.5-1.2,1.9-2
	c0.4-0.7,1.4-1.5,2.7-0.7c0.9,0.6,1.2,1.8,0.7,2.7c-0.5,0.8-0.7,1.8-0.7,2.7c0,1.8,0.9,3.4,2.5,4.4c1.6,0.9,3.4,0.9,5,0
	c1.6-0.9,2.5-2.6,2.5-4.4c0-1.8-0.9-3.4-2.5-4.4c-0.8-0.5-1.8-0.7-2.8-0.7c-0.8,0-1.9-0.6-1.9-1.9c0-1.1,0.8-1.9,1.9-1.9
	c0.9,0,1.9-0.2,2.8-0.7c1.6-0.9,2.5-2.6,2.5-4.4s-0.9-3.4-2.5-4.4C19.8,0.2,18.9,0,18.1,0C17.2,0,16.3,0.2,15.6,0.6"/>
</svg>
