<?xml version="1.0" encoding="utf-8"?>
<!-- Generator: Adobe Illustrator 22.1.0, SVG Export Plug-In . SVG Version: 6.00 Build 0)  -->
<svg version="1.1" id="Layer_2_1_" xmlns="http://www.w3.org/2000/svg" xmlns:xlink="http://www.w3.org/1999/xlink" x="0px" y="0px"
	 viewBox="0 0 24 24" style="enable-background:new 0 0 24 24;" xml:space="preserve">
<style type="text/css">
	.st0{fill:#333333;}
</style>
<path class="st0" d="M18.1,15.5c0-3.3-2.4-4.5-4.7-5.3V5.2c1.2,0.1,2.4,0.4,3.6,0.8l0.4-3c-1.1-0.5-2.6-0.8-4.1-0.9V0
	c-0.1,0-0.1,0-0.2,0c-0.9,0.1-1.8-0.1-2.7,0v2.2C7.4,2.8,6,5,6,7.5c0,3.2,2.3,4.4,4.6,5.2v5.5c-1.5-0.1-2.9-0.6-4.2-1.3L5.9,20
	c1.3,0.7,2.9,1.2,4.7,1.3V24h2.9v-2.8C16.5,20.6,18.1,18.5,18.1,15.5z M9.3,7.4c0-0.8,0.3-1.5,1.3-1.9v3.6C9.8,8.7,9.3,8.2,9.3,7.4z
	 M13.5,18v-4.1c0.8,0.4,1.4,1,1.4,1.9C14.8,16.8,14.4,17.6,13.5,18z"/>
</svg>
