<?xml version="1.0" encoding="utf-8"?>
<!-- Generator: Adobe Illustrator 22.1.0, SVG Export Plug-In . SVG Version: 6.00 Build 0)  -->
<svg version="1.1" id="Layer_3" xmlns="http://www.w3.org/2000/svg" xmlns:xlink="http://www.w3.org/1999/xlink" x="0px" y="0px"
	 viewBox="0 0 24 24" style="enable-background:new 0 0 24 24;" xml:space="preserve">
<style type="text/css">
	.st0{fill:#333333;}
</style>
<g>
	<path class="st0" d="M4,10.5h1.6C5.1,9.4,4.8,8.2,4.8,6.8C4.8,3.2,7,0,13.5,0c2.4,0,4.3,0.5,5.7,1.1l-0.5,3.7
		c-1.2-0.5-3-0.9-4.8-0.9c-3.6,0-4.9,1.5-4.9,3.5c0,1.1,0.2,2.2,0.6,3.2h7.9v3.2h-7.1c0.1,0.6,0.2,1.2,0.2,2c0,2.1-0.8,3.6-2.2,4.5
		l0,0.1c1.8-0.4,3.8-0.5,6.1-0.5c2.1,0,4,0.1,5.9,0.4L20.2,24c-2.7-0.3-5-0.5-7.6-0.5c-2.9,0-5.4,0.1-8.8,0.4l-0.2-3.7
		c1.9-0.5,3-2.3,3-4.3c0-0.8-0.1-1.5-0.2-2.2H4.2L4,10.5z"/>
</g>
</svg>
