<?xml version="1.0" encoding="utf-8"?>
<!-- Generator: Adobe Illustrator 22.1.0, SVG Export Plug-In . SVG Version: 6.00 Build 0)  -->
<svg version="1.1" id="Layer_3" xmlns="http://www.w3.org/2000/svg" xmlns:xlink="http://www.w3.org/1999/xlink" x="0px" y="0px"
	 viewBox="0 0 24 24" style="enable-background:new 0 0 24 24;" xml:space="preserve">
<style type="text/css">
	.st0{fill:#fff;}
</style>
<g>
	<path class="st0" d="M16.9,15.1H9.8c0.7,3.9,2.8,5.4,6.4,5.4c1.6,0,3.3-0.5,4.7-1.2l0.3,3.3c-1.6,0.9-3.7,1.4-6.2,1.4
		c-5.8,0-8.9-2.9-9.6-8.9H2.7v-2.2h2.5v-1.6H2.7V8.9h2.7C6.3,3.4,9.7,0,15.3,0c2.3,0,4.2,0.4,5.6,1l-0.8,3.5
		c-1.2-0.5-2.3-0.7-3.9-0.7c-3.6,0-5.7,1.7-6.4,5.1h8.8l-0.5,2.3H9.6v1.6h7.9L16.9,15.1z"/>
</g>
</svg>
