<?xml version="1.0" encoding="utf-8"?>
<!-- Generator: Adobe Illustrator 22.1.0, SVG Export Plug-In . SVG Version: 6.00 Build 0)  -->
<svg version="1.1" id="Layer_2" xmlns="http://www.w3.org/2000/svg" xmlns:xlink="http://www.w3.org/1999/xlink" x="0px" y="0px"
	 viewBox="0 0 24 24" style="enable-background:new 0 0 24 24;" xml:space="preserve">
<style type="text/css">
	.st0{fill:#333333;}
</style>
<g>
	<path class="st0" d="M11.9,8.7V0c-0.3,0.5-0.6,0.9-0.8,1.4C10.5,2.3,10,3.2,9.4,4.1C8.9,5,8.3,6,7.7,6.9C7.2,7.8,6.6,8.8,6.1,9.7
		c-0.4,0.7-0.9,1.5-1.3,2.2c0,0-0.1,0.1-0.1,0.1L11.9,8.7z"/>
	<path class="st0" d="M12.1,8.7l7.2,3.3c-2-3.4-4.1-6.7-6.1-10.1c-0.4-0.6-0.7-1.2-1.1-1.8V8.7z"/>
	<path class="st0" d="M12,8.9l-7.3,3.3c2.3,1.4,4.6,2.7,6.9,4.1c0.1,0.1,0.2,0.1,0.3,0.2c0,0,0,0,0.1,0c0,0,0-0.1,0-0.1
		c0,0,0,0.1,0,0.1c0,0,0,0,0.1,0c0.6-0.4,1.3-0.8,1.9-1.1c0.2-0.1,0.5-0.3,0.7-0.4c0.8-0.5,1.6-0.9,2.4-1.4c0.2-0.1,0.4-0.2,0.6-0.4
		c0.5-0.3,1.1-0.6,1.6-0.9L12,8.9z"/>
	<path class="st0" d="M19.3,13.6c-0.2,0.1-0.5,0.3-0.7,0.4c-2.2,1.3-6.4,3.8-6.6,3.9c-0.1,0-0.4-0.2-0.6-0.3
		c-0.8-0.5-1.6-0.9-2.4-1.4c-0.6-0.4-1.3-0.7-1.9-1.1c-0.7-0.4-1.5-0.9-2.3-1.3c-0.1-0.1-0.2-0.1-0.3-0.2c0,0,0,0,0,0
		c0,0.1,0.1,0.2,0.2,0.2c0.5,0.7,1,1.4,1.4,2c0.6,0.9,1.2,1.7,1.8,2.6c0.5,0.6,0.9,1.3,1.4,1.9c0.6,0.8,1.2,1.7,1.8,2.5
		c0.3,0.4,0.5,0.8,0.8,1.1v0c0,0,0,0,0,0c0,0,0,0,0,0v0c0.2-0.3,4-5.6,5.8-8.2C18.3,15.1,18.8,14.4,19.3,13.6
		C19.4,13.6,19.4,13.6,19.3,13.6C19.4,13.6,19.3,13.6,19.3,13.6z"/>
</g>
</svg>
