<?xml version="1.0" encoding="UTF-8"?>
<svg width="20px" height="24px" viewBox="0 0 20 24" version="1.1" xmlns="http://www.w3.org/2000/svg" xmlns:xlink="http://www.w3.org/1999/xlink">
    <!-- Generator: Sketch 49.3 (51167) - http://www.bohemiancoding.com/sketch -->
    <title>dime-word-grey</title>
    <desc>Created with Sketch.</desc>
    <defs></defs>
    <g id="Page-1" stroke="none" stroke-width="1" fill="none" fill-rule="evenodd">
        <g id="dime-word-grey" fill="#333333">
            <g id="dime-flags---grey-copy" fill-rule="nonzero">
                <g id="Group-9">
                    <path d="M12.3780527,3.30473704 C14.8216323,1.84243762 17.3089104,0.696779135 19.5233296,0.718774281 C19.8352867,0.721223394 20,0.858373713 20,1.17430927 L20,8.67349278 C20,8.99922478 19.8427736,9.12657865 19.5183383,9.12657865 C15.9046275,9.07514728 11.3026368,12.6043189 7.61904762,15.0877193 L7.61904762,11.5855943 C5.17639631,13.024002 2.68997875,14.1510962 0.476382334,14.1294626 C0.164613791,14.1270543 0,13.9921898 0,13.6815199 L0,6.30732275 C0,5.98701961 0.157131346,5.8617883 0.48137063,5.8617883 C4.08541499,5.91236248 8.69210698,2.44201041 12.3809524,0 L12.3780527,3.30473704 Z" id="Combined-Shape"></path>
                </g>
            </g>
            <path d="M0,20.5530253 C0,18.9348419 0.943650668,17.8895558 2.27469477,17.8895558 C2.91041732,17.8895558 3.51634039,18.1810298 3.83420166,18.7237745 L3.85406799,18.7237745 C3.85406799,18.7237745 3.83420166,18.5730121 3.83420166,18.3820463 L3.83420166,16 L4.7877855,16 L4.7877855,23.0958849 L3.87393432,23.0958849 L3.87393432,22.5832927 C3.87393432,22.3822761 3.90373382,22.2415645 3.90373382,22.2415645 L3.88386749,22.2415645 C3.5958057,22.79436 3.00974897,23.2164948 2.21509578,23.2164948 C0.864185349,23.2164948 0,22.1310054 0,20.5530253 Z M0.983383328,20.5530253 C0.983383328,21.6586164 1.56944006,22.3722253 2.40382591,22.3722253 C3.14881328,22.3722253 3.85406799,21.8294805 3.85406799,20.5429745 C3.85406799,19.6283491 3.38720924,18.7438762 2.42369224,18.7438762 C1.63897221,18.7438762 0.983383328,19.39718 0.983383328,20.5530253 Z M5.53428586,16.9849812 L5.53428586,16 L6.52760236,16 L6.52760236,16.9849812 L5.53428586,16.9849812 Z M5.55415219,23.0958849 L5.55415219,18.0101657 L6.51766919,18.0101657 L6.51766919,23.0958849 L5.55415219,23.0958849 Z M7.27410273,23.0958849 L7.27410273,18.0101657 L8.20782023,18.0101657 L8.20782023,18.7036729 C8.20782023,18.9147403 8.17802073,19.0856043 8.17802073,19.0856043 L8.19788706,19.0856043 C8.43628302,18.4926055 9.1514709,17.8895558 9.94612409,17.8895558 C10.7904431,17.8895558 11.2771682,18.2815381 11.446032,19.045401 L11.4658983,19.045401 C11.7440269,18.4524021 12.4393485,17.8895558 13.253868,17.8895558 C14.396182,17.8895558 14.9127066,18.5428596 14.9127066,19.8394165 L14.9127066,23.0958849 L13.9491896,23.0958849 L13.9491896,20.0504839 C13.9491896,19.3368751 13.8101252,18.7740287 13.0651379,18.7740287 C12.1314204,18.7740287 11.5751631,19.748959 11.5751631,20.7238894 L11.5751631,23.0958849 L10.6116461,23.0958849 L10.6116461,20.0504839 C10.6116461,19.3871292 10.5123145,18.7740287 9.74746079,18.7740287 C8.79387696,18.7740287 8.23761972,19.7791115 8.23761972,20.7238894 L8.23761972,23.0958849 L7.27410273,23.0958849 Z M15.301613,20.5530253 C15.301613,18.9348419 16.3942611,17.8895558 17.8246369,17.8895558 C19.2450795,17.8895558 20,18.9649944 20,20.2716021 C20,20.4022629 19.9801337,20.5429745 19.9602673,20.6836861 L16.3048626,20.6836861 C16.3545285,21.7792264 17.1293153,22.3722253 18.0332333,22.3722253 C18.5696243,22.3722253 19.1159483,22.1410562 19.5132749,21.7792264 L19.9205347,22.4928352 C19.4338096,22.9451225 18.6689559,23.2164948 17.9736344,23.2164948 C16.3942611,23.2164948 15.301613,22.0606496 15.301613,20.5530253 Z M16.3346621,19.9801281 L19.0265498,19.9801281 C18.9967503,19.105706 18.4603594,18.6433679 17.8047706,18.6433679 C17.0597832,18.6433679 16.4737264,19.1358585 16.3346621,19.9801281 Z" id="dime-copy-3"></path>
        </g>
    </g>
</svg>