<?xml version="1.0" encoding="UTF-8"?>
<svg width="247px" height="93px" viewBox="0 0 247 93" version="1.1" xmlns="http://www.w3.org/2000/svg" xmlns:xlink="http://www.w3.org/1999/xlink">
    <!-- Generator: Sketch 49.3 (51167) - http://www.bohemiancoding.com/sketch -->
    <title>ccx-dark</title>
    <desc>Created with Sketch.</desc>
    <defs>
        <linearGradient x1="51.0873258%" y1="0%" x2="51.0873265%" y2="98.9924279%" id="linearGradient-1">
            <stop stop-color="#ED8A35" offset="0%"></stop>
            <stop stop-color="#DB4F16" offset="100%"></stop>
        </linearGradient>
        <linearGradient x1="50%" y1="0%" x2="0%" y2="92.5607639%" id="linearGradient-2">
            <stop stop-color="#50E3C2" offset="0%"></stop>
            <stop stop-color="#2CBEDF" offset="100%"></stop>
        </linearGradient>
    </defs>
    <g id="Page-1" stroke="none" stroke-width="1" fill="none" fill-rule="evenodd">
        <g id="ccx-1" transform="translate(-227.000000, -185.000000)">
            <g id="ccx-dark" transform="translate(226.000000, 185.000000)">
                <g id="Group-11" fill="#12101E" fill-rule="nonzero">
                    <g id="Group-2" transform="translate(0.729730, 0.162162)">
                        <g id="Asset-1">
                            <path d="M47.1614451,0.453769559 C68.8739882,0.453769559 79.6522818,13.2930016 79.6522818,13.2930016 L71.7851672,25.1107309 C65.360896,18.7681113 56.7926433,15.1637183 47.8372545,15.036601 C30.4048375,15.036601 17.7377433,28.2280753 17.7377433,46.2981055 C17.7377433,64.3681357 30.4394944,77.8414038 48.3917648,77.8414038 C64.4725629,77.8414038 75.077572,66.0412866 75.077572,66.0412866 L81.7490238,78.3697673 C81.7490238,78.3697673 69.7750674,92.4594595 47.196102,92.4594595 C20.0077698,92.4594595 0.842508231,72.821951 0.842508231,46.4390024 C0.842508231,20.4259082 20.0077698,0.453769559 47.1614451,0.453769559 Z" id="Shape"></path>
                        </g>
                    </g>
                </g>
                <g id="Group-11" transform="translate(83.000000, 0.000000)" fill="#12101E" fill-rule="nonzero">
                    <g id="Group-2" transform="translate(0.729730, 0.162162)">
                        <g id="Asset-1">
                            <path d="M47.1614451,0.453769559 C68.8739882,0.453769559 79.6522818,13.2930016 79.6522818,13.2930016 L71.7851672,25.1107309 C65.360896,18.7681113 56.7926433,15.1637183 47.8372545,15.036601 C30.4048375,15.036601 17.7377433,28.2280753 17.7377433,46.2981055 C17.7377433,64.3681357 30.4394944,77.8414038 48.3917648,77.8414038 C64.4725629,77.8414038 75.077572,66.0412866 75.077572,66.0412866 L81.7490238,78.3697673 C81.7490238,78.3697673 69.7750674,92.4594595 47.196102,92.4594595 C20.0077698,92.4594595 0.842508231,72.821951 0.842508231,46.4390024 C0.842508231,20.4259082 20.0077698,0.453769559 47.1614451,0.453769559 Z" id="Shape"></path>
                        </g>
                    </g>
                </g>
                <g id="Group-62" transform="translate(166.000000, 5.000000)">
                    <g id="Group-27">
                        <path d="M27.1152175,-3.55271368e-15 L37,17 L46.9350378,-6.21724894e-15 L74,0 L37,62 L1.42108547e-14,-7.10542736e-15 L27.1152175,-4.50184346e-15 Z" id="Combined-Shape" fill="url(#linearGradient-1)"></path>
                        <path d="M54.9107183,84 L45.0259358,67 L35.0908979,84 L8,84 L45,22 L82,84 L54.9107183,84 Z" id="Combined-Shape" fill="url(#linearGradient-2)"></path>
                    </g>
                </g>
            </g>
        </g>
    </g>
</svg>