<?xml version="1.0" encoding="utf-8"?>
<!-- Generator: Adobe Illustrator 22.1.0, SVG Export Plug-In . SVG Version: 6.00 Build 0)  -->
<svg version="1.1" id="Layer_3" xmlns="http://www.w3.org/2000/svg" xmlns:xlink="http://www.w3.org/1999/xlink" x="0px" y="0px"
	 viewBox="0 0 40 40" style="enable-background:new 0 0 40 40;" xml:space="preserve">
<style type="text/css">
	.st0{fill:#333333;}
</style>
<path class="st0" d="M1.6,39l5.8-11.1C7.8,28,8.1,28,8.5,28c1,0,1.8-0.5,2.3-1.3l4.1,2c-0.1,0.2-0.1,0.4-0.1,0.6
	c0,1.5,1.2,2.7,2.7,2.7c1.5,0,2.7-1.2,2.7-2.7c0-0.1,0-0.2,0-0.3l3.9-1.8c0.5,0.8,1.3,1.4,2.4,1.4c1.1,0,2.1-0.7,2.5-1.7l3.8,1
	c0,0.1,0,0.2,0,0.3c0,1.5,1.2,2.7,2.7,2.7c1.5,0,2.7-1.2,2.7-2.7s-1.2-2.7-2.7-2.7c-1,0-1.9,0.6-2.4,1.4l-3.9-1
	c0-1.5-1.2-2.6-2.7-2.6c-1.5,0-2.7,1.2-2.7,2.7c0,0.1,0,0.2,0,0.3l-3.9,1.8c-0.1-0.2-0.3-0.5-0.5-0.7l5.8-8.9
	c0.4,0.2,0.8,0.3,1.3,0.3c1.5,0,2.7-1.2,2.7-2.7c0-0.4-0.1-0.8-0.2-1.1l4.3-2.7c0.5,0.7,1.3,1.1,2.2,1.1c1.5,0,2.7-1.2,2.7-2.7
	s-1.2-2.7-2.7-2.7c-1.5,0-2.7,1.2-2.7,2.7c0,0.2,0,0.4,0.1,0.6l-4.5,2.8c-0.5-0.5-1.1-0.8-1.9-0.8c-1.5,0-2.7,1.2-2.7,2.7
	c0,0.7,0.2,1.2,0.6,1.7l-5.8,9c-0.3-0.1-0.7-0.2-1.1-0.2c-0.2,0-0.4,0-0.6,0.1l-6.2-12.1c0.3-0.4,0.5-1,0.5-1.6
	c0-1.5-1.2-2.7-2.7-2.7s-2.7,1.2-2.7,2.7c0,0.8,0.3,1.4,0.8,1.9L1,35.7V0H0V40h40v-1H1.6z M35.3,26.5c0.9,0,1.7,0.8,1.7,1.7
	s-0.8,1.7-1.7,1.7c-0.9,0-1.7-0.8-1.7-1.7S34.4,26.5,35.3,26.5z M26.4,24.3c0.9,0,1.7,0.8,1.7,1.7c0,0.9-0.8,1.7-1.7,1.7
	c-0.9,0-1.7-0.8-1.7-1.7C24.7,25.1,25.5,24.3,26.4,24.3z M35.3,9.2c0.9,0,1.7,0.8,1.7,1.7c0,0.9-0.8,1.7-1.7,1.7
	c-0.9,0-1.7-0.8-1.7-1.7C33.7,9.9,34.4,9.2,35.3,9.2z M26.4,14.5c0.9,0,1.7,0.8,1.7,1.7c0,0.9-0.8,1.7-1.7,1.7
	c-0.9,0-1.7-0.8-1.7-1.7C24.7,15.3,25.5,14.5,26.4,14.5z M8.5,27c-0.9,0-1.7-0.8-1.7-1.7c0-0.9,0.8-1.7,1.7-1.7s1.7,0.8,1.7,1.7
	C10.2,26.3,9.4,27,8.5,27z M19.1,29.4c0,0.9-0.8,1.7-1.7,1.7c-0.9,0-1.7-0.8-1.7-1.7s0.8-1.7,1.7-1.7C18.4,27.7,19.1,28.4,19.1,29.4
	z M8.5,11.4c0.9,0,1.7,0.8,1.7,1.7c0,0.9-0.8,1.7-1.7,1.7S6.8,14,6.8,13.1C6.8,12.1,7.5,11.4,8.5,11.4z M8.5,15.7
	c0.5,0,1-0.2,1.4-0.4l6.1,11.8c-0.3,0.2-0.5,0.4-0.7,0.7l-4.1-2c0-0.1,0-0.3,0-0.4c0-1.5-1.2-2.7-2.7-2.7s-2.7,1.2-2.7,2.7
	c0,0.8,0.3,1.4,0.8,1.9l-4.8,9.1l5.7-20.8C7.8,15.7,8.1,15.7,8.5,15.7z"/>
</svg>
