<?xml version="1.0" encoding="utf-8"?>
<!-- Generator: Adobe Illustrator 22.1.0, SVG Export Plug-In . SVG Version: 6.00 Build 0)  -->
<svg version="1.1" id="Layer_2" xmlns="http://www.w3.org/2000/svg" xmlns:xlink="http://www.w3.org/1999/xlink" x="0px" y="0px"
	 viewBox="0 0 40 40" style="enable-background:new 0 0 40 40;" xml:space="preserve">
<style type="text/css">
	.st0{fill:#333333;}
</style>
<g>
	<path class="st0" d="M15.9,0l-0.6,0.8l3.3,2.4C10.1,4.3,3.6,11.5,3.6,20.1c0,6.6,3.9,12.7,9.9,15.5l0.4-0.9
		c-5.6-2.6-9.3-8.3-9.3-14.6c0-8.2,6.2-15,14.2-15.9L16,7.5l0.8,0.6l3.9-4.5L15.9,0z"/>
	<path class="st0" d="M36.4,19.9c0-6.6-3.9-12.7-9.9-15.5l-0.4,0.9c5.6,2.6,9.3,8.3,9.3,14.6c0,8.2-6.2,15-14.2,15.9l2.8-3.3
		l-0.8-0.6l-3.9,4.5l4.8,3.6l0.6-0.8l-3.3-2.4C29.9,35.7,36.4,28.5,36.4,19.9z"/>
</g>
</svg>
