<?xml version="1.0" encoding="utf-8"?>
<!-- Generator: Adobe Illustrator 22.1.0, SVG Export Plug-In . SVG Version: 6.00 Build 0)  -->
<svg version="1.1" id="Layer_1" xmlns="http://www.w3.org/2000/svg" xmlns:xlink="http://www.w3.org/1999/xlink" x="0px" y="0px"
	 viewBox="0 0 40 40" style="enable-background:new 0 0 40 40;" xml:space="preserve">
<style type="text/css">
	.st0{fill:#333333;}
</style>
<g>
	<path class="st0" d="M1,38.6l-1-0.1c0-0.2,0.4-5.9,3.1-8.2c1.5-1.3,4.5-2.2,7.2-3c1.8-0.5,3.7-1.1,4.1-1.6c0.8-0.8,0.9-2.8,0.8-3.7
		c-0.5-0.5-2.1-2.2-2.2-4.5c-1-1.1-2.2-3.5-0.5-5.5c-0.3-1-1-4.6,0.8-7.3c1.3-1.9,3.4-3,6.5-3.2c3.1,0.3,5.3,1.3,6.6,3.2
		c1.8,2.7,1.1,6.3,0.8,7.3c1.7,2,0.5,4.4-0.5,5.5c-0.1,2.3-1.6,4-2.2,4.5c0,0.9,0.1,2.8,0.8,3.7c0.4,0.5,2.3,1,4.1,1.6
		c2.7,0.8,5.7,1.7,7.2,3c2.7,2.3,3.1,8,3.1,8.2l-1,0.1c0-0.1-0.4-5.5-2.8-7.6c-1.4-1.2-4.4-2.1-6.8-2.8c-2.5-0.7-4-1.2-4.6-1.9
		c-1.3-1.4-1.1-4.5-1.1-4.6l0-0.2l0.2-0.1c0,0,2-1.8,2-4.1v-0.2l0.1-0.1c0.1-0.1,2.4-2.5,0.4-4.5l-0.2-0.2l0.1-0.3
		c0,0,1.2-4-0.6-6.8c-1.1-1.6-3-2.5-5.7-2.8c-2.6,0.2-4.6,1.2-5.6,2.8c-1.9,2.8-0.7,6.7-0.6,6.8l0.1,0.3l-0.2,0.2
		c-2,2,0.3,4.4,0.4,4.5l0.1,0.1l0,0.2c0,2.3,2,4.1,2,4.1l0.2,0.1l0,0.2c0,0.1,0.2,3.2-1.1,4.6c-0.6,0.6-2.1,1.1-4.6,1.9
		c-2.4,0.7-5.5,1.6-6.8,2.8C1.4,33.1,1,38.5,1,38.6z"/>
</g>
</svg>
