<?xml version="1.0" encoding="utf-8"?>
<!-- Generator: Adobe Illustrator 22.1.0, SVG Export Plug-In . SVG Version: 6.00 Build 0)  -->
<svg version="1.1" id="Layer_6" xmlns="http://www.w3.org/2000/svg" xmlns:xlink="http://www.w3.org/1999/xlink" x="0px" y="0px"
	 viewBox="0 0 40 40" style="enable-background:new 0 0 40 40;" xml:space="preserve">
<style type="text/css">
	.st0{fill:#333333;}
</style>
<g>
	<g>
		<path class="st0" d="M19.7,40c-3,0-4.3-1.2-4.3-3.9c0-1.8,0.7-4,4.3-4c3.5,0,4.3,2.2,4.3,4C24,37.9,23.3,40,19.7,40z M19.7,33.1
			c-2.2,0-3.3,0.9-3.3,3c0,2.1,0.9,2.9,3.3,2.9c2.2,0,3.3-0.9,3.3-2.9C23,34,22,33.1,19.7,33.1z M22.7,28.8h-6l-0.4-9.3l0.3-0.2
			c4.9-2.8,7.7-5.1,7.7-8.4c0-3.1-2.8-3.8-5.1-3.8c-3,0-5.7,1-7.9,2.9l-0.5,0.4L8.1,4.3l0.3-0.2C11.2,1.5,15.6,0,20.1,0
			c7.5,0,11.8,3.6,11.8,9.8c0,5.4-2.8,9.4-8.9,12.6L22.7,28.8z M17.7,27.8h4.1l0.2-5.9l0.3-0.1c5.9-3.1,8.6-6.9,8.6-11.9
			c0-5.7-3.8-8.8-10.8-8.8c-4,0-8.1,1.4-10.8,3.6l1.9,4.3c2.3-1.8,5-2.7,8-2.7c3.9,0,6.1,1.7,6.1,4.8c0,3.7-2.9,6.2-8,9.1L17.7,27.8
			z"/>
	</g>
</g>
</svg>
