<?xml version="1.0" encoding="utf-8"?>
<!-- Generator: Adobe Illustrator 22.1.0, SVG Export Plug-In . SVG Version: 6.00 Build 0)  -->
<svg version="1.1" id="Layer_5" xmlns="http://www.w3.org/2000/svg" xmlns:xlink="http://www.w3.org/1999/xlink" x="0px" y="0px"
	 viewBox="0 0 40 40" style="enable-background:new 0 0 40 40;" xml:space="preserve">
<style type="text/css">
	.st0{fill:#333333;}
</style>
<g>
	<g>
		<path class="st0" d="M20,40c0,0,0,0-1,0l-0.4,0c-0.3,0-0.6-0.1-0.8-0.2c-1.1-0.6-1.1-1.9-1.1-1.9l-0.5-3.2l-0.1,0
			c-0.1,0-0.3-0.1-0.4-0.1l-0.2-0.1c-0.2-0.1-0.4-0.1-0.6-0.2l-0.1,0c-0.2-0.1-0.4-0.2-0.6-0.2L14,33.9c-0.2-0.1-0.3-0.1-0.5-0.2
			l-0.1-0.1c-0.2-0.1-0.3-0.2-0.5-0.2l-0.2-0.1c-0.1-0.1-0.2-0.1-0.4-0.2l0,0L9.7,35c-0.4,0.5-1.7,1.1-2.8,0.1l-1-1l-1-1.1
			c-0.5-0.5-0.6-1.1-0.4-1.8c0.2-0.6,0.6-1,0.6-1L7,27.7c-0.1-0.2-0.2-0.3-0.2-0.4l-0.1-0.2c-0.1-0.1-0.1-0.3-0.2-0.4l-0.1-0.2
			c-0.1-0.2-0.1-0.3-0.2-0.5L6,25.9c-0.1-0.2-0.2-0.4-0.3-0.6l0-0.1c-0.1-0.2-0.1-0.4-0.2-0.5l-0.1-0.2c-0.1-0.2-0.1-0.4-0.1-0.5
			l0-0.1l-3.2-0.5c0,0-0.5,0-1-0.3c-0.4-0.2-0.7-0.6-0.9-1c-0.1-0.2-0.1-0.4-0.1-0.6L0,20l0.1-1.4c0-0.3,0.1-0.5,0.2-0.7
			c0.5-1.1,1.9-1.1,1.9-1.1l3.2-0.5l0-0.1c0-0.2,0.1-0.3,0.1-0.5l0.1-0.2c0.1-0.2,0.1-0.4,0.2-0.6c0.1-0.3,0.2-0.5,0.3-0.7L6.1,14
			c0.1-0.2,0.2-0.3,0.2-0.5l0.1-0.1c0.1-0.2,0.2-0.4,0.3-0.5l0.1-0.2c0.1-0.1,0.1-0.3,0.2-0.4L5,9.7l0,0c0,0-0.4-0.4-0.6-1
			C4.3,8,4.4,7.4,4.9,6.9l1-1l1.1-1c1.1-1,2.3-0.3,2.8,0.2L12.3,7l0.6-0.3c0.1-0.1,0.3-0.1,0.4-0.2l0.2-0.1c0.2-0.1,0.3-0.2,0.5-0.2
			L14.1,6c0.2-0.1,0.4-0.2,0.7-0.3c0.2-0.1,0.4-0.2,0.7-0.2l0.1,0c0.2-0.1,0.4-0.1,0.6-0.2l0.1,0l0.5-3.2c0,0,0,0,0,0
			c0,0,0-1.3,1-1.8c0.3-0.1,0.5-0.2,0.9-0.2l0.8,0C19.9,0,20,0,20,0v0c0.2,0,0.4,0,0.8,0l0.7,0c1.5,0.1,1.9,1.4,1.9,2.1l0.5,3.2
			l0.1,0c0.2,0,0.3,0.1,0.5,0.1l0.2,0.1c0.2,0.1,0.4,0.1,0.6,0.2c0.3,0.1,0.5,0.2,0.7,0.3L26,6.1c0.2,0.1,0.3,0.1,0.5,0.2l0.1,0.1
			c0.2,0.1,0.4,0.2,0.5,0.3l0.2,0.1c0.1,0.1,0.3,0.1,0.4,0.2L30.3,5c0,0,0.8-0.7,1.7-0.6c0.4,0,0.7,0.2,1,0.5l0.5,0.5
			c0.5,0.5,0.5,0.5,0.5,0.5l0,0l0,0l0.9,1c0.5,0.6,0.7,1.3,0.4,2C35.3,9.4,35,9.7,35,9.7L33,12.3c0.1,0.1,0.2,0.3,0.2,0.4l0.1,0.2
			c0.1,0.1,0.1,0.3,0.2,0.4l0.1,0.2c0.1,0.2,0.1,0.3,0.2,0.5l0.1,0.2c0.1,0.2,0.2,0.4,0.3,0.6l0,0.1c0.1,0.2,0.1,0.3,0.2,0.5
			l0.1,0.2c0,0.2,0.1,0.3,0.1,0.4l0,0.1l3.2,0.5c0,0,1.2,0,1.8,1c0.1,0.2,0.2,0.4,0.2,0.6c0,0.1,0,0.2,0,0.3l0,0.1
			c0,1.3,0,1.3,0,1.3s0,0,0,1.2l0,0.2c0,0.2,0,0.4-0.1,0.6l0,0c-0.4,1-1.4,1.3-2,1.3l-3.2,0.5l-0.2,0.8c0,0.2-0.1,0.3-0.2,0.4
			l-0.1,0.2c-0.1,0.2-0.2,0.4-0.2,0.6l-0.1,0.2c-0.1,0.1-0.1,0.3-0.2,0.4l-0.1,0.2c-0.1,0.1-0.1,0.2-0.2,0.4l-0.1,0.2
			c-0.1,0.1-0.1,0.2-0.2,0.3l0,0l1.9,2.6c0,0,0.1,0.1,0.1,0.1c0.6,0.7,0.7,1.6,0.3,2.3c-0.1,0.1-0.2,0.2-0.3,0.4L35,33.2
			c-0.8,0.9-0.8,0.9-0.8,0.9l-1,1c-0.2,0.2-0.3,0.3-0.5,0.4c-0.4,0.2-0.8,0.2-1.3,0.1c-0.6-0.2-1-0.6-1-0.6l-2.6-1.9
			c-0.2,0.1-0.3,0.2-0.4,0.2l-0.6,0.3l-0.1,0.1c-0.3,0.1-0.5,0.2-0.7,0.3c-0.5,0.2-0.9,0.4-1.4,0.5l-0.1,0c-0.2,0.1-0.4,0.1-0.6,0.2
			l-0.1,0l-0.5,3.2c0,0,0,0,0,0c0,0,0,1.4-1.2,1.9c-0.1,0-0.2,0.1-0.3,0.1c-0.1,0-0.2,0-0.4,0.1l-0.3,0C20,40,20,40,20,40L20,40
			L20,40z M12.2,31.8l0.6,0.3c0.1,0.1,0.2,0.1,0.3,0.2l0.2,0.1c0.1,0.1,0.3,0.1,0.4,0.2l0.2,0.1c0.1,0.1,0.3,0.1,0.4,0.2l0.1,0
			c0.2,0.1,0.4,0.2,0.6,0.3l0.1,0c0.2,0.1,0.3,0.1,0.5,0.2l0.2,0c0.2,0.1,0.3,0.1,0.5,0.1l0.7,0.2l0.1,0.4l0.5,3.6
			c0,0.1,0,0.8,0.5,1.1c0.1,0.1,0.3,0.1,0.4,0.1L20,39l1.4-0.1c0.1,0,0.1,0,0.2,0c0,0,0.1,0,0.1,0c0.6-0.2,0.6-1,0.6-1l0.6-4
			l0.7-0.2c0.2,0,0.3-0.1,0.5-0.1l0.1,0c0.4-0.1,0.8-0.3,1.3-0.5c0.2-0.1,0.4-0.2,0.6-0.3l0.1-0.1l0.6-0.3c0.2-0.1,0.4-0.2,0.5-0.3
			l0.4-0.2L28,32l2.9,2.1c0.1,0,0.3,0.3,0.7,0.4c0.2,0.1,0.4,0,0.6,0c0.1,0,0.2-0.1,0.3-0.2l0.1-0.1c0.5-0.5,0.7-0.7,0.9-0.8l0,0
			l0.9-1c0.1-0.1,0.1-0.1,0.1-0.2c0.3-0.5,0-0.9-0.2-1.2l-0.1-0.1l-2.4-3.2l0.3-0.6c0.1-0.1,0.1-0.2,0.2-0.3l0.1-0.2
			c0.1-0.1,0.1-0.2,0.2-0.3l0.1-0.2c0.1-0.1,0.1-0.3,0.2-0.4l0.1-0.2c0.1-0.2,0.2-0.4,0.2-0.6l0-0.1c0.1-0.2,0.1-0.3,0.2-0.5
			l0.1-0.2l0-0.1l0.2-0.9l0.4-0.2l3.6-0.5c0.1,0,0.9,0,1.1-0.6l0,0c0-0.1,0-0.2,0.1-0.3L39,20l-0.1-1.4c0-0.1,0-0.1,0-0.2
			c0-0.1,0-0.2-0.1-0.3c-0.3-0.5-1-0.5-1-0.5l-4-0.6l-0.2-0.8c0-0.1-0.1-0.3-0.1-0.4l-0.1-0.2c-0.1-0.2-0.1-0.3-0.2-0.5l0-0.1
			c-0.1-0.2-0.2-0.4-0.2-0.6l0-0.1c-0.1-0.2-0.2-0.3-0.2-0.5l-0.1-0.2c-0.1-0.2-0.1-0.3-0.2-0.4l-0.1-0.2c-0.1-0.1-0.1-0.2-0.2-0.4
			l-0.3-0.5l0.3-0.5l2-2.7c0-0.1,0.2-0.2,0.3-0.5c0.2-0.4,0.1-0.7-0.2-1L33.8,7c-0.2-0.2-0.3-0.3-0.4-0.4l-1-0.9
			c-0.2-0.1-0.3-0.2-0.5-0.2C31.5,5.3,31,5.8,31,5.8l-3.2,2.4l-0.5-0.3c-0.2-0.1-0.3-0.2-0.4-0.2l-0.1-0.1c-0.2-0.1-0.3-0.2-0.5-0.2
			l-0.2-0.1c-0.2-0.1-0.3-0.1-0.5-0.2L25.5,7c-0.2-0.1-0.4-0.2-0.6-0.2c-0.2-0.1-0.4-0.1-0.6-0.2l-0.1,0c-0.2-0.1-0.4-0.1-0.5-0.1
			l-0.7-0.2l-0.6-3.9c0-0.2-0.1-1.1-0.9-1.2L20,1c-0.1,0-0.3,0-0.5,0l-0.8,0c-0.2,0-0.3,0-0.4,0.1c-0.5,0.3-0.5,1-0.5,1l-0.6,4
			l-0.7,0.2c-0.2,0-0.3,0.1-0.5,0.1l-0.2,0.1c-0.2,0.1-0.4,0.1-0.6,0.2c-0.2,0.1-0.4,0.2-0.6,0.2l-0.1,0c-0.2,0.1-0.3,0.1-0.5,0.2
			l-0.1,0.1c-0.2,0.1-0.3,0.1-0.4,0.2l-1.1,0.7L12,8L9.1,5.8C8.9,5.6,8.2,5.1,7.6,5.6l-1,1l0,0C6.5,6.7,6.4,6.8,6.2,7L5.6,7.6
			C5.4,7.8,5.3,8.1,5.4,8.4C5.5,8.7,5.8,9,5.8,9l2.4,3.2l-0.3,0.5c-0.1,0.2-0.2,0.3-0.2,0.4l-0.1,0.2c-0.1,0.1-0.1,0.3-0.2,0.4
			l-0.1,0.2c-0.1,0.2-0.1,0.3-0.2,0.5l0,0.1c-0.1,0.2-0.2,0.4-0.2,0.6c-0.1,0.2-0.1,0.4-0.2,0.6l0,0.1c-0.1,0.2-0.1,0.4-0.1,0.5
			l-0.2,0.7l-3.9,0.6c-0.1,0-0.9,0-1.1,0.6c-0.1,0.1-0.1,0.2-0.1,0.4l0,0.6c0,0.4,0,0.6,0,0.7c0,0.1,0,0.3,0,0.8l0,0.6
			c0,0.1,0,0.2,0.1,0.3c0.1,0.2,0.2,0.3,0.4,0.4c0.3,0.2,0.6,0.2,0.6,0.2l4,0.6l0.2,0.8c0,0.1,0.1,0.3,0.1,0.4l0.1,0.2
			c0.1,0.2,0.1,0.3,0.2,0.5l0,0.1c0.1,0.2,0.2,0.4,0.2,0.6L7,25.6c0.1,0.1,0.1,0.3,0.2,0.4l0.1,0.2c0.1,0.1,0.1,0.3,0.2,0.4l0.1,0.2
			c0.1,0.1,0.1,0.2,0.2,0.4l0.3,0.5L8,28l-2.2,2.9c0,0.1-0.3,0.3-0.4,0.7c-0.1,0.3,0,0.6,0.2,0.8l1,1l1,0.9C8.2,35,8.9,34.3,9,34.2
			L12.2,31.8z M20,29.8c-5.4,0-9.8-4.4-9.8-9.8c0-5.4,4.4-9.8,9.8-9.8c5.4,0,9.8,4.4,9.8,9.8C29.8,25.4,25.4,29.8,20,29.8z M20,11.2
			c-4.9,0-8.8,4-8.8,8.8c0,4.9,4,8.8,8.8,8.8c4.9,0,8.8-4,8.8-8.8C28.8,15.1,24.9,11.2,20,11.2z"/>
	</g>
	<g>
		<path class="st0" d="M19.9,25.8c-3.2,0-5.8-2.6-5.8-5.8s2.6-5.8,5.8-5.8s5.8,2.6,5.8,5.8S23.1,25.8,19.9,25.8z M19.9,15.1
			c-2.7,0-4.8,2.2-4.8,4.8c0,2.7,2.2,4.8,4.8,4.8c2.7,0,4.8-2.2,4.8-4.8C24.7,17.3,22.6,15.1,19.9,15.1z"/>
	</g>
</g>
</svg>
