<?xml version="1.0" encoding="utf-8"?>
<!-- Generator: Adobe Illustrator 22.1.0, SVG Export Plug-In . SVG Version: 6.00 Build 0)  -->
<svg version="1.1" id="Layer_4" xmlns="http://www.w3.org/2000/svg" xmlns:xlink="http://www.w3.org/1999/xlink" x="0px" y="0px"
	 viewBox="0 0 40 40" style="enable-background:new 0 0 40 40;" xml:space="preserve">
<style type="text/css">
	.st0{fill:#333333;}
</style>
<g>
	<g>
		<path class="st0" d="M20,40C9.1,40,0.3,31.2,0.3,20.3c0-7,3.6-13.3,9.6-16.9c0.3-0.2,0.6-0.1,0.8,0.2c0.2,0.3,0.1,0.6-0.2,0.8
			c-5.7,3.4-9.1,9.4-9.1,16c0,10.3,8.3,18.6,18.6,18.6c10.3,0,18.6-8.3,18.6-18.6c0-7.1-3.9-13.4-10.2-16.6
			c-0.3-0.1-0.4-0.5-0.2-0.7c0.1-0.3,0.5-0.4,0.8-0.2c6.7,3.4,10.8,10.1,10.8,17.6C39.7,31.2,30.9,40,20,40z"/>
	</g>
	<g>
		<path class="st0" d="M20,22.3c-0.3,0-0.6-0.2-0.6-0.6V0.6C19.4,0.2,19.7,0,20,0s0.6,0.2,0.6,0.6v21.2C20.6,22.1,20.3,22.3,20,22.3
			z"/>
	</g>
</g>
</svg>
