<?xml version="1.0" encoding="utf-8"?>
<!-- Generator: Adobe Illustrator 22.1.0, SVG Export Plug-In . SVG Version: 6.00 Build 0)  -->
<svg version="1.1" id="Layer_1" xmlns="http://www.w3.org/2000/svg" xmlns:xlink="http://www.w3.org/1999/xlink" x="0px" y="0px"
	 viewBox="0 0 24 24" style="enable-background:new 0 0 24 24;" xml:space="preserve">
<style type="text/css">
	.st0{fill:#333333;}
</style>
<g>
	<g>
		<path class="st0" d="M8.4,17c-2.2,0-4.3-0.8-5.9-2.5c-3.3-3.3-3.3-8.6,0-11.9s8.6-3.3,11.9,0l0,0l0,0c1.6,1.6,2.5,3.7,2.5,5.9
			c0,2.2-0.9,4.4-2.5,5.9C12.7,16.1,10.6,17,8.4,17z M8.4,1.3C6.5,1.3,4.7,2,3.3,3.4c-2.8,2.8-2.8,7.5,0,10.3
			c2.8,2.8,7.5,2.8,10.3,0c1.4-1.4,2.1-3.2,2.1-5.1c0-1.9-0.8-3.8-2.1-5.1l0,0C12.1,2,10.3,1.3,8.4,1.3z"/>
	</g>
	<g>
		<path class="st0" d="M8.4,17c-2.2,0-4.3-0.8-5.9-2.5c-3.3-3.3-3.3-8.6,0-11.9s8.6-3.3,11.9,0l0,0l0,0c1.6,1.6,2.5,3.7,2.5,5.9
			c0,2.2-0.9,4.4-2.5,5.9C12.7,16.1,10.6,17,8.4,17z M8.4,1.3C6.5,1.3,4.7,2,3.3,3.4c-2.8,2.8-2.8,7.5,0,10.3
			c2.8,2.8,7.5,2.8,10.3,0c1.4-1.4,2.1-3.2,2.1-5.1c0-1.9-0.8-3.8-2.1-5.1l0,0C12.1,2,10.3,1.3,8.4,1.3z"/>
	</g>
	<g>
		<path class="st0" d="M23.4,23.9c-0.1,0-0.3-0.1-0.4-0.2l-8.2-8.2c-0.2-0.2-0.2-0.6,0-0.8s0.6-0.2,0.8,0l8.2,8.2
			c0.2,0.2,0.2,0.6,0,0.8C23.7,23.8,23.6,23.9,23.4,23.9z"/>
	</g>
</g>
</svg>
