<?xml version="1.0" encoding="UTF-8"?>
<svg width="206px" height="206px" viewBox="0 0 206 206" version="1.1" xmlns="http://www.w3.org/2000/svg" xmlns:xlink="http://www.w3.org/1999/xlink">
    <!-- Generator: Sketch 49.3 (51167) - http://www.bohemiancoding.com/sketch -->
    <title>coti-dime-blue</title>
    <desc>Created with Sketch.</desc>
    <defs>
        <linearGradient x1="-44.5333557%" y1="92.1241816%" x2="91.2285961%" y2="-26.2766252%" id="linearGradient-1">
            <stop stop-color="#194AAD" offset="0%"></stop>
            <stop stop-color="#248FCB" offset="50%"></stop>
            <stop stop-color="#2BBFDF" offset="100%"></stop>
        </linearGradient>
        <linearGradient x1="57.3992748%" y1="84.1638481%" x2="45.1732474%" y2="25.4639103%" id="linearGradient-2">
            <stop stop-color="#FFFFFF" offset="0%"></stop>
            <stop stop-color="#FFFFFF" stop-opacity="0.69" offset="52%"></stop>
            <stop stop-color="#FFFFFF" stop-opacity="0.5" offset="100%"></stop>
        </linearGradient>
        <linearGradient x1="70.6149962%" y1="13.1022135%" x2="14.7961128%" y2="95.7987467%" id="linearGradient-3">
            <stop stop-color="#FFFFFF" offset="0%"></stop>
            <stop stop-color="#FFFFFF" stop-opacity="0.69" offset="49.1529815%"></stop>
            <stop stop-color="#FFFFFF" stop-opacity="0.5" offset="100%"></stop>
        </linearGradient>
    </defs>
    <g id="Page-1" stroke="none" stroke-width="1" fill="none" fill-rule="evenodd">
        <g id="cotidime-12" transform="translate(-247.000000, -110.000000)">
            <g id="coti-dime-blue" transform="translate(250.000000, 113.000000)">
                <circle id="Oval-2" fill="url(#linearGradient-1)" cx="100" cy="100" r="92"></circle>
                <g id="Group" transform="translate(58.000000, 48.000000)">
                    <g id="Group-4">
                        <g id="Group-9" fill-rule="nonzero">
                            <path d="M2.02175665,24.4763742 C0.659951652,24.4763742 0,24.9992877 0,26.3367395 L0,57.1282998 C0,58.4255275 0.691377921,58.9886651 2.0008058,58.9987212 C17.5253828,59.1495616 36.2449637,45.9258837 51.9685737,35.6083981 L52,0 C36.5068493,10.1968132 17.1587429,24.6875508 2.02175665,24.4763742 Z" id="Shape" fill="url(#linearGradient-2)"></path>
                            <path d="M81.9770208,38.108772 C83.3396493,38.108772 84,37.5769956 84,36.2168751 L84,4.90342394 C84,3.58420931 83.308204,3.01152699 81.9979843,3.00130052 C66.4640194,2.84790347 47.7331183,16.2957115 32,26.7880697 L32,63 C47.4710744,52.6303594 66.7994356,37.8940162 81.9770208,38.108772 Z" id="Shape" fill="url(#linearGradient-3)"></path>
                            <path d="M52,35.3562906 L52,14 C45.6778596,17.7483435 37.8073081,23.1306107 32,26.9871741 L32,48 C38.3221404,44.2024657 46.2235819,39.1636631 52,35.3562906 Z" id="Shape" fill="#FFFFFF"></path>
                        </g>
                        <g id="Group-15" transform="translate(0.000000, 73.000000)" fill="#FFFFFF" stroke="#FFFFFF" stroke-width="0.3">
                            <path d="M0,19.1227063 C0,12.326336 3.96333281,7.93613416 9.55371803,7.93613416 C12.2237528,7.93613416 14.7686296,9.16032507 16.103647,11.439853 L16.1870856,11.439853 C16.1870856,11.439853 16.103647,10.8066508 16.103647,10.0045947 L16.103647,0 L20.1086991,0 L20.1086991,29.8027166 L16.2705242,29.8027166 L16.2705242,27.6498291 C16.2705242,26.8055595 16.395682,26.2145708 16.395682,26.2145708 L16.3122434,26.2145708 C15.102384,28.5363122 12.6409457,30.3092784 9.30340227,30.3092784 C3.62957847,30.3092784 0,25.7502226 0,19.1227063 Z M4.13020998,19.1227063 C4.13020998,23.766189 6.59164825,26.7633461 10.0960688,26.7633461 C13.2250158,26.7633461 16.1870856,24.4838182 16.1870856,19.0804928 C16.1870856,15.2390661 14.2262788,11.5242799 10.1795074,11.5242799 C6.8836833,11.5242799 4.13020998,14.2681561 4.13020998,19.1227063 Z M23.2440006,4.136921 L23.2440006,0 L27.4159299,0 L27.4159299,4.136921 L23.2440006,4.136921 Z M23.3274392,29.8027166 L23.3274392,8.44269592 L27.3742106,8.44269592 L27.3742106,29.8027166 L23.3274392,29.8027166 Z M30.5512314,29.8027166 L30.5512314,8.44269592 L34.472845,8.44269592 L34.472845,11.355426 C34.472845,12.2419091 34.3476871,12.9595382 34.3476871,12.9595382 L34.4311257,12.9595382 C35.4323887,10.4689429 38.4361778,7.93613416 41.7737212,7.93613416 C45.3198611,7.93613416 47.3641064,9.58245987 48.0733344,12.7906843 L48.156773,12.7906843 C49.3249132,10.300089 52.2452637,7.93613416 55.6662457,7.93613416 C60.4639643,7.93613416 62.6333675,10.6800103 62.6333675,16.1255492 L62.6333675,29.8027166 L58.5865961,29.8027166 L58.5865961,17.0120323 C58.5865961,14.0148752 58.002526,11.6509204 54.8735791,11.6509204 C50.9519656,11.6509204 48.6156852,15.7456279 48.6156852,19.8403354 L48.6156852,29.8027166 L44.5689138,29.8027166 L44.5689138,17.0120323 C44.5689138,14.2259426 44.1517209,11.6509204 40.9393353,11.6509204 C36.9342832,11.6509204 34.5980028,15.8722683 34.5980028,19.8403354 L34.5980028,29.8027166 L30.5512314,29.8027166 Z M64.2667746,19.1227063 C64.2667746,12.326336 68.8558967,7.93613416 74.8634749,7.93613416 C80.8293338,7.93613416 84,12.4529765 84,17.9407288 C84,18.4895041 83.9165614,19.0804928 83.8331228,19.6714815 L68.4804231,19.6714815 C68.6890196,24.2727508 71.9431244,26.7633461 75.73958,26.7633461 C77.9924219,26.7633461 80.2869829,25.792436 81.9557547,24.2727508 L83.6662457,27.2699078 C81.6220003,29.1695144 78.4096148,30.3092784 75.4892643,30.3092784 C68.8558967,30.3092784 64.2667746,25.4547282 64.2667746,19.1227063 Z M68.605581,16.7165379 L79.9115093,16.7165379 C79.7863514,13.0439652 77.5335096,11.1021451 74.7800363,11.1021451 C71.6510894,11.1021451 69.1896511,13.1706056 68.605581,16.7165379 Z" id="dime-copy-3"></path>
                        </g>
                    </g>
                </g>
                <circle id="Oval-2" stroke="url(#linearGradient-1)" stroke-width="6" cx="100" cy="100" r="100"></circle>
            </g>
        </g>
    </g>
</svg>