<?xml version="1.0" encoding="utf-8"?>
<!-- Generator: Adobe Illustrator 22.1.0, SVG Export Plug-In . SVG Version: 6.00 Build 0)  -->
<svg version="1.1" id="Layer_7" xmlns="http://www.w3.org/2000/svg" xmlns:xlink="http://www.w3.org/1999/xlink" x="0px" y="0px"
	 viewBox="0 0 28 28" style="enable-background:new 0 0 28 28;" xml:space="preserve">
<style type="text/css">
	.st0{fill:#51595B;}
</style>
<path class="st0" d="M7.8,27.1c0,0.5-0.4,0.9-1,0.9H2.6c-0.5,0-1-0.4-1-0.9V10.3c0-0.5,0.4-0.9,1-0.9h4.2c0.5,0,1,0.4,1,0.9V27.1z
	 M4.1,7.3c-2,0-3.6-1.6-3.6-3.6S2.1,0,4.1,0s3.6,1.6,3.6,3.6S6.2,7.3,4.1,7.3z M27.5,27.1c0,0.5-0.4,0.9-0.8,0.9h-4.1
	c-0.5,0-0.8-0.4-0.8-0.9c0,0,0,0,0,0v-7.8c0-1.2,0.3-5.1-3-5.1c-2.6,0-3.1,2.7-3.2,3.9v8.9c0,0.5-0.4,0.9-0.8,0.9h-4
	c-0.5,0-0.8-0.4-0.8-0.9c0,0,0,0,0,0V10.5c0-0.5,0.4-0.9,0.8-0.9h4c0.5,0,0.8,0.4,0.8,0.9v1.4c0.9-1.5,2.4-2.6,5.4-2.6
	c6.6,0,6.6,6.3,6.6,9.8C27.5,19.1,27.5,27.1,27.5,27.1z"/>
</svg>
