<?xml version="1.0" encoding="utf-8"?>
<!-- Generator: Adobe Illustrator 22.1.0, SVG Export Plug-In . SVG Version: 6.00 Build 0)  -->
<svg version="1.1" id="Layer_4" xmlns="http://www.w3.org/2000/svg" xmlns:xlink="http://www.w3.org/1999/xlink" x="0px" y="0px"
	 viewBox="0 0 28 28" style="enable-background:new 0 0 28 28;" xml:space="preserve">
<style type="text/css">
	.st0{fill:#51595B;}
</style>
<g>
	<path class="st0" d="M14.7,7.6c-0.7,0.7-1.4,1.4-2.1,2c-0.1,0.1-0.6,0-0.8-0.1c-3.1-2.2-7.8-0.4-8.4,4c-0.3,2.3,1.3,4.9,3.6,5.7
		c2.4,0.8,4.9,0,6.1-1.9c0.2-0.4,0.4-0.8,0.6-1.4c-0.4,0-0.7-0.1-1-0.1c-1,0-2,0-3.1,0c-0.7,0-1-0.2-1-0.9c0-2.6-0.2-2.1,2.1-2.2
		c1.8,0,3.6,0,5.4,0c0.6,0,0.9,0.2,0.9,0.8c0.3,4.2-1.9,8.7-7.5,9.2C5,23.2,1,20.2,0,15.8c-0.5-3.5,1-7.1,4.1-9.1c3-2,7-1.9,9.9,0.2
		C14.2,7.1,14.4,7.3,14.7,7.6z"/>
	<path class="st0" d="M24.3,10.5c1.3,0,1.3,0,1.3,1.3s0,1.2,1.3,1.3c0.4,0,1.1,0.1,1.1,0.2c0.1,0.7,0,1.4,0,2.1
		c0,0.1-0.3,0.2-0.4,0.2c-0.2,0-0.4,0-0.6,0c-1.4,0-1.4,0-1.4,1.4c0,1.1,0,1.1-1.2,1.2c-0.2,0-0.5,0-0.7,0c-0.5,0-0.7-0.2-0.7-0.7
		c-0.1-1.8-0.1-1.8-1.8-1.8c-0.5,0-0.7-0.2-0.7-0.7c-0.1-1.9-0.1-1.9,1.8-1.9c0.6,0,0.9-0.2,0.8-0.8c0-0.2,0-0.3,0-0.5
		C23,10.5,23,10.5,24.3,10.5z"/>
</g>
</svg>
