<?xml version="1.0" encoding="utf-8"?>
<!-- Generator: Adobe Illustrator 22.1.0, SVG Export Plug-In . SVG Version: 6.00 Build 0)  -->
<svg version="1.1" id="Layer_3" xmlns="http://www.w3.org/2000/svg" xmlns:xlink="http://www.w3.org/1999/xlink" x="0px" y="0px"
	 viewBox="0 0 28 28" style="enable-background:new 0 0 28 28;" xml:space="preserve">
<style type="text/css">
	.st0{fill:#51595B;}
</style>
<g>
	<path class="st0" d="M0,28c0.4-1.7,0.8-3.2,1.3-4.6c0.5-1.5,0.4-2.9-0.2-4.5c-2-4.9-1.2-9.6,2.1-13.7s7.8-5.9,13.1-5
		c5.4,0.9,9.1,4.2,10.9,9.3s0.6,9.8-3,13.8c-3.8,4.3-10,5.5-15.8,3.3c-0.8-0.3-1.7-0.3-2.5-0.2c-1.6,0.3-3.1,0.8-4.6,1.2
		C0.9,27.8,0.6,27.8,0,28z M3.4,24.6c1.3-0.3,2.3-0.7,3.4-0.9c0.5-0.1,1.1,0,1.5,0.2c2.6,1.4,5.3,1.7,8.2,1.1
		c6.5-1.4,10.4-8,8.5-14.3c-1.8-6.3-8.7-9.8-14.9-7.6C3.5,5.5,0.6,13,3.9,19.3c0.4,0.8,0.6,1.5,0.3,2.4C3.9,22.6,3.7,23.5,3.4,24.6z
		"/>
	<path class="st0" d="M17.9,20.6c-3.2-0.3-5.7-1.7-7.7-3.9c-1.1-1.2-2-2.5-2.8-3.9c-0.8-1.5-0.8-3.1,0.3-4.5
		c1.1-1.3,2.4-1.1,3.1,0.5c0.2,0.4,0.3,0.9,0.6,1.3c0.4,0.7,0.3,1.4-0.3,1.9c-0.6,0.6-0.5,1.1-0.1,1.8c1,1.5,2.4,2.5,4,3.2
		c0.8,0.4,1.2-0.1,1.5-0.6c0.6-0.9,1.3-1,2.1-0.5c0.3,0.2,0.6,0.3,0.9,0.5c0.5,0.4,1.3,0.8,1.3,1.2c0.2,0.9-0.3,1.8-1.2,2.3
		C19.1,20.3,18.4,20.5,17.9,20.6z"/>
</g>
</svg>
