<?xml version="1.0" encoding="UTF-8"?>
<svg width="826px" height="826px" viewBox="0 0 826 826" version="1.1" xmlns="http://www.w3.org/2000/svg" xmlns:xlink="http://www.w3.org/1999/xlink">
    <!-- Generator: Sketch 48.1 (47250) - http://www.bohemiancoding.com/sketch -->
    <title>bg-2</title>
    <desc>Created with Sketch.</desc>
    <defs>
        <rect id="path-1" x="0" y="0" width="826" height="826"></rect>
        <linearGradient x1="75.7938002%" y1="86.9684751%" x2="41.1301456%" y2="0%" id="linearGradient-3">
            <stop stop-color="#3BDFFF" stop-opacity="0" offset="0%"></stop>
            <stop stop-color="#2C9CDF" offset="100%"></stop>
        </linearGradient>
        <linearGradient x1="50%" y1="100%" x2="4.53825233%" y2="29.6953318%" id="linearGradient-4">
            <stop stop-color="#57D8F1" stop-opacity="0.25" offset="0%"></stop>
            <stop stop-color="#ABA4FB" stop-opacity="0.15" offset="69.2149229%"></stop>
            <stop stop-color="#304772" offset="100%"></stop>
        </linearGradient>
        <linearGradient x1="45.7431288%" y1="-32.0358321%" x2="77.4237575%" y2="50%" id="linearGradient-5">
            <stop stop-color="#51538A" stop-opacity="0.39" offset="0%"></stop>
            <stop stop-color="#2C9CDF" stop-opacity="0" offset="100%"></stop>
        </linearGradient>
        <linearGradient x1="61.834055%" y1="114.903317%" x2="3.47444465%" y2="25.0068732%" id="linearGradient-6">
            <stop stop-color="#57D8F1" stop-opacity="0" offset="0%"></stop>
            <stop stop-color="#C991FF" stop-opacity="0.5" offset="100%"></stop>
        </linearGradient>
        <linearGradient x1="-7.0500753%" y1="84.314287%" x2="72.5621223%" y2="15.3489277%" id="linearGradient-7">
            <stop stop-color="#3BDFFF" stop-opacity="0.4" offset="0%"></stop>
            <stop stop-color="#2C9CDF" stop-opacity="0.00286256877" offset="100%"></stop>
            <stop stop-color="#2C9CDF" stop-opacity="0" offset="100%"></stop>
        </linearGradient>
        <linearGradient x1="100%" y1="-49.7434018%" x2="47.223267%" y2="76.1077225%" id="linearGradient-8">
            <stop stop-color="#51538A" stop-opacity="0.39" offset="0%"></stop>
            <stop stop-color="#2C9CDF" stop-opacity="0.00118406072" offset="100%"></stop>
            <stop stop-color="#2C9CDF" stop-opacity="0" offset="100%"></stop>
        </linearGradient>
        <linearGradient x1="100%" y1="-49.7434018%" x2="17.3910486%" y2="64.9583028%" id="linearGradient-9">
            <stop stop-color="#51538A" stop-opacity="0.39" offset="0%"></stop>
            <stop stop-color="#2C9CDF" stop-opacity="0" offset="100%"></stop>
        </linearGradient>
        <linearGradient x1="4.40276732%" y1="108.850348%" x2="60.2221386%" y2="50%" id="linearGradient-10">
            <stop stop-color="#51538A" stop-opacity="0.39" offset="0%"></stop>
            <stop stop-color="#2C9CDF" stop-opacity="0" offset="100%"></stop>
        </linearGradient>
        <linearGradient x1="72.3926958%" y1="3.15478372%" x2="2.78261483%" y2="24.056085%" id="linearGradient-11">
            <stop stop-color="#3BDFFF" stop-opacity="0" offset="0%"></stop>
            <stop stop-color="#125D8E" stop-opacity="0.48" offset="100%"></stop>
        </linearGradient>
        <linearGradient x1="65.0884789%" y1="64.6879554%" x2="175.921263%" y2="64.6879582%" id="linearGradient-12">
            <stop stop-color="#3BDFFF" stop-opacity="0" offset="0%"></stop>
            <stop stop-color="#125D8E" stop-opacity="0.48" offset="100%"></stop>
        </linearGradient>
        <linearGradient x1="72.3632813%" y1="50%" x2="191.052099%" y2="74.8338985%" id="linearGradient-13">
            <stop stop-color="#3BDFFF" stop-opacity="0" offset="0%"></stop>
            <stop stop-color="#125D8E" stop-opacity="0.48" offset="100%"></stop>
        </linearGradient>
        <linearGradient x1="35.9586785%" y1="-99.8808651%" x2="65.9309111%" y2="89.8861345%" id="linearGradient-14">
            <stop stop-color="#3BDFFF" offset="0%"></stop>
            <stop stop-color="#125D8E" stop-opacity="0" offset="100%"></stop>
        </linearGradient>
        <linearGradient x1="-35.2488077%" y1="-18.6377383%" x2="71.2663153%" y2="67.2436309%" id="linearGradient-15">
            <stop stop-color="#3BDFFF" offset="0%"></stop>
            <stop stop-color="#2C9CDF" stop-opacity="0" offset="100%"></stop>
        </linearGradient>
        <linearGradient x1="58.0157604%" y1="22.5536509%" x2="70.060668%" y2="2.50338162%" id="linearGradient-16">
            <stop stop-color="#57D8F1" stop-opacity="0" offset="0%"></stop>
            <stop stop-color="#C991FF" stop-opacity="0.5" offset="100%"></stop>
        </linearGradient>
        <linearGradient x1="92.6440136%" y1="86.6053427%" x2="14.3464483%" y2="21.0662573%" id="linearGradient-17">
            <stop stop-color="#50E3C2" stop-opacity="0.3" offset="0%"></stop>
            <stop stop-color="#2CBEDF" stop-opacity="0" offset="100%"></stop>
        </linearGradient>
        <linearGradient x1="92.6440136%" y1="86.6053427%" x2="55.3510919%" y2="11.3762372%" id="linearGradient-18">
            <stop stop-color="#50E3C2" stop-opacity="0.3" offset="0%"></stop>
            <stop stop-color="#2CBEDF" stop-opacity="0" offset="100%"></stop>
        </linearGradient>
        <linearGradient x1="45.7431288%" y1="-32.0358321%" x2="77.4237575%" y2="50%" id="linearGradient-19">
            <stop stop-color="#3BDFFF" offset="0%"></stop>
            <stop stop-color="#2C9CDF" stop-opacity="0" offset="100%"></stop>
        </linearGradient>
        <linearGradient x1="83.9122113%" y1="10.4552328%" x2="-10.9673067%" y2="76.7205828%" id="linearGradient-20">
            <stop stop-color="#57D8F1" stop-opacity="0" offset="0%"></stop>
            <stop stop-color="#C991FF" stop-opacity="0.5" offset="100%"></stop>
        </linearGradient>
        <linearGradient x1="-43.1193524%" y1="27.75614%" x2="77.4237575%" y2="50%" id="linearGradient-21">
            <stop stop-color="#3BDFFF" offset="0%"></stop>
            <stop stop-color="#2C9CDF" stop-opacity="0" offset="100%"></stop>
        </linearGradient>
    </defs>
    <g id="original-leaderboard---with-articles-and-telegram-V2" stroke="none" stroke-width="1" fill="none" fill-rule="evenodd" transform="translate(-689.000000, -47.000000)" opacity="0.313349185">
        <g id="bg-2" transform="translate(689.000000, 47.000000)">
            <mask id="mask-2" fill="white">
                <use xlink:href="#path-1"></use>
            </mask>
            <g id="Mask"></g>
            <g id="Group-2" mask="url(#mask-2)">
                <g transform="translate(-68.247874, -213.000000)">
                    <polyline id="Stroke-49" stroke="url(#linearGradient-4)" stroke-width="1" fill="url(#linearGradient-3)" opacity="0.13524683" stroke-linecap="round" transform="translate(639.862266, 506.956143) rotate(-270.000000) translate(-639.862266, -506.956143) " points="756.743821 667.022851 600.901747 667.022851 522.980711 506.957609 600.901747 346.889435"></polyline>
                    <polyline id="Stroke-49-Copy-2" stroke="url(#linearGradient-4)" stroke-width="1" fill="url(#linearGradient-3)" opacity="0.13524683" stroke-linecap="round" transform="translate(800.398378, 584.877179) rotate(-270.000000) translate(-800.398378, -584.877179) " points="917.279933 744.943887 761.437859 744.943887 683.516823 584.878646 761.437859 424.810471"></polyline>
                    <polyline id="Stroke-49-Copy" stroke="url(#linearGradient-6)" stroke-width="1" fill="url(#linearGradient-5)" opacity="0.740942029" stroke-linecap="round" stroke-linejoin="round" transform="translate(320.667657, 506.956143) rotate(-270.000000) translate(-320.667657, -506.956143) " points="437.549213 667.022851 281.707139 667.022851 203.786102 506.957609 281.707139 346.889435"></polyline>
                    <polyline id="Stroke-49-Copy-3" stroke="none" fill="url(#linearGradient-3)" opacity="0.13524683" transform="translate(639.862266, 352.052877) rotate(-270.000000) translate(-639.862266, -352.052877) " points="756.743821 512.119585 600.901747 512.119585 522.980711 352.054344 600.901747 191.986169"></polyline>
                    <polygon id="Stroke-222" stroke="url(#linearGradient-6)" stroke-width="1" fill="url(#linearGradient-7)" opacity="0.740942029" stroke-linecap="round" stroke-linejoin="round" transform="translate(641.739881, 702.228138) rotate(-270.000000) translate(-641.739881, -702.228138) " points="563.818844 862.294846 485.897808 702.229605 563.818844 542.16143 719.660918 542.16143 797.581955 702.229605 719.660918 862.294846"></polygon>
                    <polygon id="Stroke-222-Copy-7" stroke="none" fill="url(#linearGradient-5)" opacity="0.740942029" transform="translate(320.667657, 859.009020) rotate(-270.000000) translate(-320.667657, -859.009020) " points="242.746621 1019.07573 164.825584 859.010486 242.746621 698.942312 398.588694 698.942312 476.509731 859.010486 398.588694 1019.07573"></polygon>
                    <polygon id="Stroke-222-Copy" stroke="none" fill="url(#linearGradient-5)" opacity="0.740942029" transform="translate(479.326154, 312.622955) rotate(-270.000000) translate(-479.326154, -312.622955) " points="401.405117 472.689663 323.48408 312.624421 401.405117 152.556247 557.247191 152.556247 635.168227 312.624421 557.247191 472.689663"></polygon>
                    <polygon id="Stroke-222-Copy-8" stroke="none" fill="url(#linearGradient-8)" opacity="0.740942029" transform="translate(161.070353, 312.622955) rotate(-270.000000) translate(-161.070353, -312.622955) " points="83.1493165 472.689663 5.22827972 312.624421 83.1493165 152.556247 238.99139 152.556247 316.912427 312.624421 238.99139 472.689663"></polygon>
                    <polygon id="Stroke-222-Copy-10" stroke="none" fill="url(#linearGradient-9)" opacity="0.740942029" transform="translate(161.070353, 782.026791) rotate(-270.000000) translate(-161.070353, -782.026791) " points="83.1493165 942.093499 5.22827972 782.028257 83.1493165 621.960082 238.99139 621.960082 316.912427 782.028257 238.99139 942.093499"></polygon>
                    <polygon id="Stroke-222-Copy-11" stroke="none" fill="url(#linearGradient-10)" opacity="0.740942029" transform="translate(801.337185, 935.052441) rotate(-270.000000) translate(-801.337185, -935.052441) " points="723.416149 1095.11915 645.495112 935.053908 723.416149 774.985733 879.258222 774.985733 957.179259 935.053908 879.258222 1095.11915"></polygon>
                    <polygon id="Stroke-222-Copy-5" stroke="none" fill="url(#linearGradient-11)" opacity="0.740942029" transform="translate(640.801073, 859.009020) rotate(-270.000000) translate(-640.801073, -859.009020) " points="562.880037 1019.07573 484.959 859.010486 562.880037 698.942312 718.72211 698.942312 796.643147 859.010486 718.72211 1019.07573"></polygon>
                    <polygon id="Stroke-222-Copy-9" stroke="none" fill="url(#linearGradient-12)" opacity="0.740942029" transform="translate(480.264962, 155.842073) rotate(-270.000000) translate(-480.264962, -155.842073) " points="402.343925 315.908782 324.422888 155.84354 402.343925 -4.22463452 558.185998 -4.22463452 636.107035 155.84354 558.185998 315.908782"></polygon>
                    <polygon id="Stroke-222-Copy-16" stroke="none" fill="url(#linearGradient-13)" opacity="0.740942029" transform="translate(799.459570, 157.719689) rotate(-270.000000) translate(-799.459570, -157.719689) " points="721.538533 317.786397 643.617496 157.721156 721.538533 -2.34701918 877.380607 -2.34701918 955.301643 157.721156 877.380607 317.786397"></polygon>
                    <polygon id="Stroke-222-Copy-3" stroke="none" fill="url(#linearGradient-14)" opacity="0.740942029" transform="translate(482.142577, 623.837698) rotate(-270.000000) translate(-482.142577, -623.837698) " points="404.22154 783.904406 326.300503 623.839165 404.22154 463.77099 560.063614 463.77099 637.98465 623.839165 560.063614 783.904406"></polygon>
                    <polygon id="Stroke-222-Copy-2" stroke="url(#linearGradient-16)" stroke-width="1" fill="url(#linearGradient-15)" opacity="0.740942029" stroke-linecap="round" stroke-linejoin="round" transform="translate(321.606465, 742.127464) rotate(-270.000000) translate(-321.606465, -742.127464) " points="204.72491 582.060756 360.566983 582.060756 438.48802 742.128931 360.566983 902.194172"></polygon>
                    <polygon id="Stroke-222-Copy-12" stroke="none" fill="url(#linearGradient-17)" opacity="0.439877717" transform="translate(801.337185, 897.030730) scale(1, -1) rotate(-270.000000) translate(-801.337185, -897.030730) " points="684.45563 736.964022 840.297704 736.964022 918.21874 897.032197 840.297704 1057.09744"></polygon>
                    <polygon id="Stroke-222-Copy-15" stroke="url(#linearGradient-16)" stroke-width="1" fill="url(#linearGradient-18)" opacity="0.439877717" stroke-linecap="round" stroke-linejoin="round" transform="translate(321.606465, 976.829382) scale(-1, -1) rotate(-270.000000) translate(-321.606465, -976.829382) " points="204.72491 816.762674 360.566983 816.762674 438.48802 976.830849 360.566983 1136.89609"></polygon>
                    <polygon id="Stroke-222-Copy-13" stroke="none" fill="url(#linearGradient-18)" opacity="0.439877717" transform="translate(959.995682, 508.364354) scale(-1, -1) rotate(-270.000000) translate(-959.995682, -508.364354) " points="843.114127 348.297646 998.9562 348.297646 1076.87724 508.365821 998.9562 668.431062"></polygon>
                    <polygon id="Stroke-222-Copy-4" stroke="url(#linearGradient-20)" stroke-width="1" fill="url(#linearGradient-19)" opacity="0.346750453" stroke-linecap="round" stroke-linejoin="round" transform="translate(639.862266, 429.504510) rotate(-270.000000) translate(-639.862266, -429.504510) " points="522.980711 269.437802 678.822784 269.437802 756.743821 429.505977 678.822784 589.571218"></polygon>
                    <polygon id="Stroke-222-Copy-14" stroke="none" fill="url(#linearGradient-21)" opacity="0.346750453" transform="translate(481.203769, 975.890575) rotate(-270.000000) translate(-481.203769, -975.890575) " points="364.322214 815.823867 520.164288 815.823867 598.085324 975.892041 520.164288 1135.95728"></polygon>
                    <polygon id="Stroke-222-Copy-6" stroke="none" fill="url(#linearGradient-19)" opacity="0.346750453" transform="translate(318.790042, 586.754795) scale(-1, 1) rotate(-270.000000) translate(-318.790042, -586.754795) " points="201.908487 426.688087 357.75056 426.688087 435.671597 586.756262 357.75056 746.821503"></polygon>
                </g>
            </g>
        </g>
    </g>
</svg>