<svg xmlns="http://www.w3.org/2000/svg" width="24" height="23" viewBox="0 0 24 23">
    <g fill="#FFF" fill-rule="nonzero">
        <path d="M11.5 13c3.589 0 6.5-2.916 6.5-6.51A6.49 6.49 0 0 0 11.5 0C7.911 0 5 2.916 5 6.49 5 10.065 7.911 13 11.5 13zm0-11.303c2.632 0 4.785 2.157 4.785 4.793s-2.153 4.793-4.785 4.793S6.715 9.126 6.715 6.49 8.868 1.697 11.5 1.697zM.847 23h22.306a.845.845 0 0 0 .847-.856C24 17.664 20.394 14 15.94 14H8.06C3.625 14 0 17.644 0 22.144c0 .478.374.856.847.856zm7.212-7.288h7.882c3.231 0 5.891 2.43 6.305 5.576H1.754c.413-3.126 3.074-5.576 6.305-5.576z"/>
    </g>
</svg>
