<svg xmlns="http://www.w3.org/2000/svg" width="20" height="20" viewBox="0 0 20 20">
    <g fill="none" fill-rule="nonzero">
        <path fill="#3DB486" d="M19.7 12.536c-1.336 5.274-6.762 8.485-12.12 7.17C2.225 18.39-1.036 13.046.3 7.772 1.637 2.498 7.063-.713 12.419.603c5.357 1.314 8.617 6.658 7.282 11.933z"/>
        <path fill="#FFF" d="M10.179 14.783a6.875 6.875 0 0 1-3.062-.718A4.023 4.023 0 0 1 6 13.246l1.098-1.87c.238.271.542.51.912.718.37.208.762.365 1.177.471.414.106.798.16 1.15.16.397 0 .705-.049.926-.145a.513.513 0 0 0 .33-.508c.01-.164-.064-.301-.218-.413-.154-.11-.408-.21-.76-.297l-1.706-.449a5.182 5.182 0 0 1-1.27-.5 2.587 2.587 0 0 1-.918-.84c-.225-.344-.338-.761-.338-1.254 0-.6.15-1.135.45-1.609.3-.473.736-.84 1.31-1.101.572-.261 1.264-.392 2.075-.392.794 0 1.505.121 2.136.363.63.241 1.179.599 1.646 1.072l-1.084 1.74a4.775 4.775 0 0 0-1.27-.849c-.458-.207-.978-.311-1.56-.311a2.77 2.77 0 0 0-.76.087c-.199.058-.344.14-.437.246a.555.555 0 0 0-.139.377c0 .164.084.302.252.413.167.111.51.234 1.031.37l1.31.318c.854.213 1.491.515 1.91.906.419.392.628.945.628 1.66 0 .724-.163 1.32-.49 1.79a2.914 2.914 0 0 1-1.322 1.043c-.555.227-1.185.34-1.89.34zM9.425 16v-2.029h1.573V16H9.425zm0-9.855V4h1.573v2.145H9.425z"/>
    </g>
</svg>
