<svg xmlns="http://www.w3.org/2000/svg" xmlns:xlink="http://www.w3.org/1999/xlink" width="72" height="77" viewBox="0 0 72 77">
    <defs>
        <path id="a" d="M0 0h72v77H0z"/>
    </defs>
    <g fill="none" fill-rule="evenodd">
        <mask id="b" fill="#fff">
            <use xlink:href="#a"/>
        </mask>
        <g fill-rule="nonzero" mask="url(#b)" opacity=".483">
            <path fill="#60668A" d="M91.608 57.128c-6.211 24.643-31.444 39.64-56.36 33.495C10.34 84.479-4.823 59.519 1.392 34.877 7.6 10.231 32.835-4.767 57.743 1.377 82.66 7.52 97.82 32.484 91.609 57.128z"/>
            <path fill="#3D4267" d="M66.885 39.317c.916-6.094-3.744-9.37-10.115-11.556l2.066-8.256-5.046-1.252-2.012 8.038c-1.327-.33-2.689-.64-4.043-.948l2.027-8.09L44.718 16l-2.068 8.253a169.406 169.406 0 0 1-3.222-.754l.006-.026-6.96-1.73-1.342 5.367s3.744.854 3.665.907c2.044.508 2.413 1.855 2.351 2.923l-2.354 9.405c.14.036.323.087.525.167-.168-.041-.348-.087-.534-.131l-3.3 13.175c-.25.618-.883 1.545-2.312 1.193.05.073-3.668-.912-3.668-.912L23 59.59l6.567 1.63c1.221.305 2.419.624 3.597.925l-2.088 8.35 5.04 1.252 2.069-8.261c1.376.372 2.713.715 4.021 1.039l-2.061 8.223L45.191 74l2.088-8.334c8.605 1.621 15.076.967 17.8-6.783 2.194-6.24-.11-9.84-4.637-12.188 3.297-.757 5.78-2.917 6.443-7.378zm-11.53 16.1c-1.559 6.241-12.11 2.867-15.53 2.022l2.77-11.063c3.421.85 14.39 2.534 12.76 9.042zm1.561-16.19c-1.423 5.676-10.204 2.792-13.053 2.085l2.512-10.033c2.85.707 12.023 2.027 10.541 7.948z"/>
        </g>
    </g>
</svg>
