<svg xmlns="http://www.w3.org/2000/svg" width="21" height="20" viewBox="0 0 21 20">
    <path fill="#BAC0DA" fill-rule="nonzero" d="M19 2.25h-3.25V.75a.75.75 0 1 0-1.5 0v1.5h-7.5V.75a.75.75 0 1 0-1.5 0v1.5H2a2 2 0 0 0-2 2V18a2 2 0 0 0 2 2h17a2 2 0 0 0 2-2V4.25c0-1.105-.895-2-2-2zM4.5 5a1.5 1.5 0 1 1 0 3 1.5 1.5 0 0 1 0-3zm0 5a1.5 1.5 0 1 1 0 3 1.5 1.5 0 0 1 0-3zm0 5a1.5 1.5 0 1 1 0 3 1.5 1.5 0 0 1 0-3zm6 0a1.5 1.5 0 1 1 0 3 1.5 1.5 0 0 1 0-3zm0-5a1.5 1.5 0 1 1 0 3 1.5 1.5 0 0 1 0-3zm0-5a1.5 1.5 0 1 1 0 3 1.5 1.5 0 0 1 0-3zm6 10a1.5 1.5 0 1 1 0 3 1.5 1.5 0 0 1 0-3zm0-5a1.5 1.5 0 1 1 0 3 1.5 1.5 0 0 1 0-3zm0-5a1.5 1.5 0 1 1 0 3 1.5 1.5 0 0 1 0-3z"/>
</svg>
