<svg xmlns="http://www.w3.org/2000/svg" width="108" height="60" viewBox="0 0 108 60">
    <defs>
        <linearGradient id="a" x1="0%" y1="71.025%" y2="16.94%">
            <stop offset="0%" stop-color="#01BBB4"/>
            <stop offset="100%" stop-color="#00F085"/>
        </linearGradient>
        <linearGradient id="b" x1="-39.597%" x2="131.369%" y1="241.531%" y2="8.554%">
            <stop offset="0%" stop-color="#01BBB4"/>
            <stop offset="100%" stop-color="#00F085"/>
        </linearGradient>
    </defs>
    <g fill="none" fill-rule="evenodd">
        <path fill="#60668A" fill-rule="nonzero" d="M89 4.987L45.898 47 3 5.5V57h64.159v3H3a3 3 0 0 1-3-3V3a3 3 0 0 1 3-3h86a3 3 0 0 1 3 3v10.583h-3V4.987zM85.878 3H5.596l40.292 38.98L85.878 3z"/>
        <g stroke-width="3">
            <path stroke="url(#a)" d="M1.5 14.5v24h29v-24h-29zm10.867 14.302a5.113 5.113 0 0 1-1.778-3.883c0-2.813 2.26-5.1 5.055-5.1 2.797 0 5.056 2.287 5.056 5.1 0 1.522-.668 2.93-1.778 3.883v1.54a3.278 3.278 0 1 1-6.555 0v-1.54z" transform="translate(76 20)"/>
            <path stroke="url(#b)" d="M22.5 14.5V8a6.5 6.5 0 1 0-13 0v6.5h13z" transform="translate(76 20)"/>
        </g>
    </g>
</svg>
