<svg xmlns="http://www.w3.org/2000/svg" width="16" height="16" viewBox="0 0 16 16">
    <path fill="#FFF" fill-rule="evenodd" d="M8 16A8 8 0 1 1 8 0a8 8 0 0 1 0 16zm0-4c2.206 0 4-1.804 4-4.02a4.036 4.036 0 0 0-1.675-3.273L9.59 5.74c.118.09.205.161.26.211a2.747 2.747 0 0 1 .59.785A2.747 2.747 0 0 1 8 10.73a2.747 2.747 0 0 1-2.737-2.75A2.76 2.76 0 0 1 6.41 5.74l-.735-1.033a4.012 4.012 0 0 0-1.243 1.457A4.036 4.036 0 0 0 4 7.978C4 10.196 5.794 12 8 12zm.067-4.235c.331 0 .6-.279.6-.622V3.621a.611.611 0 0 0-.6-.621c-.332 0-.6.278-.6.621v3.522c0 .343.268.622.6.622z"/>
</svg>
