<svg xmlns="http://www.w3.org/2000/svg" width="20" height="20" viewBox="0 0 20 20">
    <g fill="none" fill-rule="nonzero">
        <path fill="#757B9F" d="M19.7 12.536c-1.336 5.274-6.762 8.485-12.12 7.17C2.225 18.39-1.036 13.046.3 7.772 1.637 2.498 7.063-.713 12.419.603c5.357 1.314 8.617 6.658 7.282 11.933z"/>
        <path fill="#FFF" d="M6.002 9.9H6L10 4l4 5.9h-.002l.002.002-1.934 1.013L10 12l-.002-.001-.003.001L6 9.902l.002-.001zM10 13.349l4-2.237-4 5.333-4-5.333 4 2.237z"/>
    </g>
</svg>
