<svg xmlns="http://www.w3.org/2000/svg" width="20" height="20" viewBox="0 0 20 20">
    <g fill="none" fill-rule="nonzero">
        <path fill="#3DB486" d="M19.7 12.536c-1.336 5.274-6.762 8.485-12.12 7.17C2.225 18.39-1.036 13.046.3 7.772 1.637 2.498 7.063-.713 12.419.603c5.357 1.314 8.617 6.658 7.282 11.933z"/>
        <path fill="#FFF" d="M5 9.706V8.75h7.426l-.323.956H5zm0 1.735v-.97h6.838l-.309.97H5zM10.897 5c.657 0 1.257.09 1.802.272a3.82 3.82 0 0 1 1.382.787c.377.343.635.76.772 1.25l-2.132.956c-.06-.441-.26-.758-.603-.949a2.316 2.316 0 0 0-1.147-.287c-.51 0-.922.11-1.236.331-.313.22-.544.552-.69.993-.148.441-.221.99-.221 1.647 0 .98.161 1.72.485 2.22.323.5.882.75 1.676.75.441 0 .807-.107 1.096-.323.29-.216.478-.559.566-1.03l2.235.648c-.137.617-.392 1.13-.764 1.536a3.382 3.382 0 0 1-1.383.905 5.437 5.437 0 0 1-1.838.294c-.99 0-1.843-.199-2.559-.596a4 4 0 0 1-1.647-1.713c-.382-.745-.573-1.642-.573-2.691s.193-1.946.58-2.691a4.045 4.045 0 0 1 1.655-1.713C9.069 5.199 9.917 5 10.897 5z"/>
    </g>
</svg>
