<svg xmlns="http://www.w3.org/2000/svg" width="100" height="100" viewBox="0 0 100 100">
    <defs>
        <linearGradient id="a" x1="127.704%" x2="47.781%" y1="0%" y2="59.789%">
            <stop offset="0%" stop-color="#DFE0F6"/>
            <stop offset="100%" stop-color="#92A5A9"/>
        </linearGradient>
        <linearGradient id="b" x1="21.304%" x2="78.696%" y1="0%" y2="100%">
            <stop offset="0%" stop-color="#DA3983"/>
            <stop offset="48.94%" stop-color="#A9559E"/>
            <stop offset="100%" stop-color="#647DC6"/>
        </linearGradient>
        <linearGradient id="c" x1="21.304%" x2="78.696%" y1="79.533%" y2="3.562%">
            <stop offset="0%" stop-color="#01BBB4"/>
            <stop offset="100%" stop-color="#00F085"/>
        </linearGradient>
    </defs>
    <g fill="none" fill-rule="evenodd">
        <g fill="url(#a)" opacity=".201">
            <path d="M62.997 79.801a3.395 3.395 0 1 0-4.801 4.801 3.395 3.395 0 0 0 4.801-4.8zM55.795 72.6a3.395 3.395 0 1 0-4.8 4.802 3.395 3.395 0 0 0 4.8-4.802zm14.404 0a3.395 3.395 0 1 0-4.801 4.802 3.395 3.395 0 0 0 4.8-4.802zm-7.202-7.201a3.395 3.395 0 1 0-4.801 4.8 3.395 3.395 0 0 0 4.801-4.8zm14.404 0a3.395 3.395 0 1 0-4.802 4.8 3.395 3.395 0 0 0 4.802-4.8zm-7.202-7.202a3.395 3.395 0 1 0-4.801 4.801 3.395 3.395 0 0 0 4.8-4.801zm14.403 0a3.395 3.395 0 1 0-4.8 4.801 3.395 3.395 0 0 0 4.8-4.801zm-7.201-7.202a3.395 3.395 0 1 0-4.802 4.801 3.395 3.395 0 0 0 4.802-4.8zm-7.202 36.009a3.395 3.395 0 1 0-4.801 4.801 3.395 3.395 0 0 0 4.8-4.801zM77.4 79.8a3.395 3.395 0 1 0-4.802 4.801 3.395 3.395 0 0 0 4.802-4.8zm7.201-7.202a3.395 3.395 0 1 0-4.8 4.802 3.395 3.395 0 0 0 4.8-4.802zm7.202-7.201a3.395 3.395 0 1 0-4.801 4.8 3.395 3.395 0 0 0 4.801-4.8zM77.401 94.205a3.395 3.395 0 1 0-4.802 4.8 3.395 3.395 0 0 0 4.802-4.8zm7.201-7.202a3.395 3.395 0 1 0-4.8 4.801 3.395 3.395 0 0 0 4.8-4.801zm7.202-7.202a3.395 3.395 0 1 0-4.801 4.801 3.395 3.395 0 0 0 4.801-4.8zm7.202-7.202a3.395 3.395 0 1 0-4.801 4.802 3.395 3.395 0 0 0 4.8-4.802zM12.997 29.801a3.395 3.395 0 1 0-4.801 4.801 3.395 3.395 0 0 0 4.801-4.8zM5.795 22.6a3.395 3.395 0 1 0-4.8 4.802 3.395 3.395 0 0 0 4.8-4.802zm14.404 0a3.395 3.395 0 1 0-4.801 4.802 3.395 3.395 0 0 0 4.8-4.802zm-7.202-7.201a3.395 3.395 0 1 0-4.801 4.8 3.395 3.395 0 0 0 4.801-4.8zm14.404 0a3.395 3.395 0 1 0-4.802 4.8 3.395 3.395 0 0 0 4.802-4.8zm-7.202-7.202a3.395 3.395 0 1 0-4.801 4.801 3.395 3.395 0 0 0 4.8-4.801zm14.403 0a3.395 3.395 0 1 0-4.8 4.801 3.395 3.395 0 0 0 4.8-4.801zM27.401.994a3.395 3.395 0 1 0-4.802 4.801 3.395 3.395 0 0 0 4.802-4.8zm-7.202 36.009a3.395 3.395 0 1 0-4.801 4.801 3.395 3.395 0 0 0 4.8-4.801zM27.4 29.8a3.395 3.395 0 1 0-4.802 4.801 3.395 3.395 0 0 0 4.802-4.8zm7.201-7.202a3.395 3.395 0 1 0-4.8 4.802 3.395 3.395 0 0 0 4.8-4.802zm7.202-7.201a3.395 3.395 0 1 0-4.801 4.8 3.395 3.395 0 0 0 4.801-4.8zM27.401 44.205a3.395 3.395 0 1 0-4.802 4.8 3.395 3.395 0 0 0 4.802-4.8zm7.201-7.202a3.395 3.395 0 1 0-4.8 4.801 3.395 3.395 0 0 0 4.8-4.801zm7.202-7.202a3.395 3.395 0 1 0-4.801 4.801 3.395 3.395 0 0 0 4.801-4.8zm7.202-7.202a3.395 3.395 0 1 0-4.801 4.802 3.395 3.395 0 0 0 4.8-4.802z"/>
        </g>
        <g fill-rule="nonzero">
            <g fill="#4B4971">
                <path d="M89.97 50L61.164 21.472 49 33.521 65.638 50 49 66.479l12.165 12.049z"/>
                <path d="M50.97 50L22.164 21.472 10 33.521 26.638 50 10 66.479l12.165 12.049z"/>
            </g>
            <path fill="url(#b)" d="M84.485 33L55.68 4.472 43.515 16.521 60.154 33 43.515 49.479l12.166 12.049L84.485 33zM39 16.521L55.68 0 89 33 55.68 66 39 49.479 55.638 33 39 16.521z" transform="translate(6 17)"/>
            <path fill="url(#c)" d="M45.485 33L16.68 4.472 4.515 16.521 21.154 33 4.515 49.479l12.166 12.049L45.485 33zM0 16.521L16.68 0 50 33 16.68 66 0 49.479 16.638 33 0 16.521z" transform="translate(6 17)"/>
        </g>
    </g>
</svg>
