<svg xmlns="http://www.w3.org/2000/svg" xmlns:xlink="http://www.w3.org/1999/xlink" width="588" height="287" viewBox="0 0 588 287">
    <defs>
        <path id="a" d="M0 0h620v290H0z"/>
        <linearGradient id="b" x1="7.99%" x2="82.124%" y1="47.554%" y2="74.393%">
            <stop offset="0%" stop-color="#DA3983"/>
            <stop offset="100%" stop-color="#246BCB" stop-opacity=".4"/>
        </linearGradient>
    </defs>
    <g fill="none" fill-rule="evenodd" transform="translate(-5)">
        <mask id="c" fill="#fff">
            <use xlink:href="#a"/>
        </mask>
        <path fill="url(#b)" d="M147.5 104C65.486 104-1 37.29-1-45s66.486-149 148.5-149S296-127.29 296-45s-66.486 149-148.5 149zm.5 176c45.84 0 83-37.16 83-83s-37.16-83-83-83-83 37.16-83 83 37.16 83 83 83zm1-19c-34.794 0-63-28.206-63-63s28.206-63 63-63 63 28.206 63 63-28.206 63-63 63zM39.5 147c18.502 0 33.5-14.998 33.5-33.5C73 94.998 58.002 80 39.5 80 20.998 80 6 94.998 6 113.5 6 132.002 20.998 147 39.5 147zm0-16c-9.665 0-17.5-7.835-17.5-17.5S29.835 96 39.5 96 57 103.835 57 113.5 49.165 131 39.5 131zm229 156c18.502 0 33.5-14.998 33.5-33.5 0-18.502-14.998-33.5-33.5-33.5-18.502 0-33.5 14.998-33.5 33.5 0 18.502 14.998 33.5 33.5 33.5zm0-16c-9.665 0-17.5-7.835-17.5-17.5s7.835-17.5 17.5-17.5 17.5 7.835 17.5 17.5-7.835 17.5-17.5 17.5zm-232 9c11.322 0 20.5-9.178 20.5-20.5S47.822 239 36.5 239 16 248.178 16 259.5 25.178 280 36.5 280zm0-10c-5.799 0-10.5-4.701-10.5-10.5S30.701 249 36.5 249 47 253.701 47 259.5 42.299 270 36.5 270zm219-136c11.322 0 20.5-9.178 20.5-20.5S266.822 93 255.5 93s-20.5 9.178-20.5 20.5 9.178 20.5 20.5 20.5zm0-10c-5.799 0-10.5-4.701-10.5-10.5s4.701-10.5 10.5-10.5 10.5 4.701 10.5 10.5-4.701 10.5-10.5 10.5zm-108-36.868c72.73 0 131.689-59.157 131.689-132.132 0-72.975-58.96-132.132-131.689-132.132-72.73 0-131.689 59.157-131.689 132.132 0 72.975 58.96 132.132 131.689 132.132zM444.5 287C362.486 287 296 220.29 296 138S362.486-11 444.5-11 593 55.71 593 138s-66.486 149-148.5 149zm0-16.868c72.73 0 131.689-59.157 131.689-132.132 0-72.975-58.96-132.132-131.689-132.132-72.73 0-131.689 59.157-131.689 132.132 0 72.975 58.96 132.132 131.689 132.132z" mask="url(#c)" opacity=".119"/>
    </g>
</svg>
