<svg xmlns="http://www.w3.org/2000/svg" xmlns:xlink="http://www.w3.org/1999/xlink" width="152" height="301" viewBox="0 0 152 301">
    <defs>
        <path id="a" d="M0 0h195v301H0z"/>
    </defs>
    <g fill="none" fill-rule="evenodd" transform="translate(-43)">
        <mask id="b" fill="#fff">
            <use xlink:href="#a"/>
        </mask>
        <path fill="#3B3F62" fill-rule="nonzero" d="M174.417 255.514c4.709-4.64 12.343-4.64 17.052 0a11.759 11.759 0 0 1 0 16.803c-4.71 4.64-12.343 4.64-17.052 0a11.759 11.759 0 0 1 0-16.803zm-25.577-25.203c4.709-4.64 12.343-4.64 17.051 0a11.759 11.759 0 0 1 0 16.802c-4.708 4.64-12.342 4.64-17.051 0a11.759 11.759 0 0 1 0-16.802zm-25.577-25.204c4.708-4.64 12.343-4.64 17.051 0a11.759 11.759 0 0 1 0 16.803c-4.708 4.64-12.343 4.64-17.051 0a11.759 11.759 0 0 1 0-16.803zm51.154-100.813c4.709-4.64 12.343-4.64 17.052 0a11.759 11.759 0 0 1 0 16.802c-4.71 4.64-12.343 4.64-17.052 0a11.759 11.759 0 0 1 0-16.802zM148.84 79.09c4.709-4.64 12.343-4.64 17.051 0a11.759 11.759 0 0 1 0 16.803c-4.708 4.64-12.342 4.64-17.051 0a11.759 11.759 0 0 1 0-16.803zm25.577-25.203c4.709-4.64 12.343-4.64 17.052 0a11.759 11.759 0 0 1 0 16.802c-4.71 4.64-12.343 4.64-17.052 0a11.759 11.759 0 0 1 0-16.802zm-51.154 0c4.708-4.64 12.343-4.64 17.051 0a11.759 11.759 0 0 1 0 16.802c-4.708 4.64-12.343 4.64-17.051 0a11.759 11.759 0 0 1 0-16.802zm25.577-25.204c4.709-4.64 12.343-4.64 17.051 0a11.759 11.759 0 0 1 0 16.803c-4.708 4.64-12.342 4.64-17.051 0a11.759 11.759 0 0 1 0-16.803zm-51.154 0c4.708-4.64 12.343-4.64 17.051 0a11.759 11.759 0 0 1 0 16.803c-4.708 4.64-12.343 4.64-17.051 0a11.759 11.759 0 0 1 0-16.803zM123.263 3.48c4.708-4.64 12.343-4.64 17.051 0a11.759 11.759 0 0 1 0 16.802c-4.708 4.64-12.343 4.64-17.051 0a11.759 11.759 0 0 1 0-16.802zm25.577 277.238c4.709-4.64 12.343-4.64 17.051 0a11.759 11.759 0 0 1 0 16.802c-4.708 4.64-12.342 4.64-17.051 0a11.759 11.759 0 0 1 0-16.802zm-25.577-25.204c4.708-4.64 12.343-4.64 17.051 0a11.759 11.759 0 0 1 0 16.803c-4.708 4.64-12.343 4.64-17.051 0a11.759 11.759 0 0 1 0-16.803zm-25.577-25.203c4.708-4.64 12.343-4.64 17.051 0a11.759 11.759 0 0 1 0 16.802c-4.708 4.64-12.343 4.64-17.051 0a11.759 11.759 0 0 1 0-16.802zm51.154-100.814c4.709-4.64 12.343-4.64 17.051 0a11.759 11.759 0 0 1 0 16.802c-4.708 4.64-12.342 4.64-17.051 0a11.759 11.759 0 0 1 0-16.802zm-25.577-25.203c4.708-4.64 12.343-4.64 17.051 0a11.759 11.759 0 0 1 0 16.802c-4.708 4.64-12.343 4.64-17.051 0a11.759 11.759 0 0 1 0-16.802zM97.686 79.09c4.708-4.64 12.343-4.64 17.051 0a11.759 11.759 0 0 1 0 16.803c-4.708 4.64-12.343 4.64-17.051 0a11.759 11.759 0 0 1 0-16.803zM72.109 53.887c4.708-4.64 12.342-4.64 17.051 0a11.759 11.759 0 0 1 0 16.802c-4.709 4.64-12.343 4.64-17.051 0a11.759 11.759 0 0 1 0-16.802zm25.577 226.83c4.708-4.639 12.343-4.639 17.051 0a11.759 11.759 0 0 1 0 16.803c-4.708 4.64-12.343 4.64-17.051 0a11.759 11.759 0 0 1 0-16.802zm-25.577-25.203c4.708-4.64 12.342-4.64 17.051 0a11.759 11.759 0 0 1 0 16.803c-4.709 4.64-12.343 4.64-17.051 0a11.759 11.759 0 0 1 0-16.803zm51.154-100.813c4.708-4.64 12.343-4.64 17.051 0a11.759 11.759 0 0 1 0 16.802c-4.708 4.64-12.343 4.64-17.051 0a11.759 11.759 0 0 1 0-16.802zm-25.577-25.204c4.708-4.64 12.343-4.64 17.051 0a11.759 11.759 0 0 1 0 16.802c-4.708 4.64-12.343 4.64-17.051 0a11.759 11.759 0 0 1 0-16.802zm-25.577-25.203c4.708-4.64 12.342-4.64 17.051 0a11.759 11.759 0 0 1 0 16.802c-4.709 4.64-12.343 4.64-17.051 0a11.759 11.759 0 0 1 0-16.802zM46.53 79.09c4.71-4.64 12.343-4.64 17.052 0a11.759 11.759 0 0 1 0 16.803c-4.709 4.64-12.343 4.64-17.052 0a11.759 11.759 0 0 1 0-16.803zm0 201.628c4.71-4.64 12.343-4.64 17.052 0a11.759 11.759 0 0 1 0 16.802c-4.709 4.64-12.343 4.64-17.052 0a11.759 11.759 0 0 1 0-16.802z" mask="url(#b)"/>
    </g>
</svg>
