<svg xmlns="http://www.w3.org/2000/svg" width="20" height="20" viewBox="0 0 20 20">
    <g fill="none" fill-rule="nonzero">
        <path fill="#3DB486" d="M19.7 12.536c-1.336 5.274-6.762 8.485-12.12 7.17C2.225 18.39-1.036 13.046.3 7.772 1.637 2.498 7.063-.713 12.419.603c5.357 1.314 8.617 6.658 7.282 11.933z"/>
        <path fill="#FFF" d="M5.699 10.728V9.4h7.136v1.328H5.699zm4.684 2.005c.187.078.38.146.58.203.224.064.475.096.752.096.341 0 .592-.101.752-.304.16-.203.224-.512.192-.928l1.984.256c.085.597.04 1.13-.136 1.6-.176.47-.453.837-.832 1.104-.379.267-.83.4-1.352.4a3.42 3.42 0 0 1-1.216-.2 4.985 4.985 0 0 1-.968-.488 17.393 17.393 0 0 1-.48-.326c-.246.291-.542.528-.888.71a2.768 2.768 0 0 1-1.312.304c-.555 0-1.024-.128-1.408-.384-.384-.256-.576-.635-.576-1.136 0-.341.096-.627.288-.856.192-.23.448-.397.768-.504.32-.107.661-.16 1.024-.16.294 0 .562.012.804.035a3.079 3.079 0 0 0-.236-.979c-.165-.384-.43-.848-.792-1.392a13.198 13.198 0 0 1-.512-.912 3.244 3.244 0 0 1-.272-.744 3.42 3.42 0 0 1-.08-.744c0-.576.155-1.099.464-1.568.31-.47.76-.843 1.352-1.12.592-.277 1.31-.416 2.152-.416 1.067 0 1.93.24 2.592.72.661.48 1.088 1.21 1.28 2.192l-2.592.928c-.117-.565-.29-.97-.52-1.216-.23-.245-.53-.368-.904-.368-.32 0-.587.09-.8.272-.213.181-.32.437-.32.768 0 .128.021.261.064.4s.115.307.216.504c.101.197.227.445.376.744.203.373.37.768.504 1.184.133.416.2.81.2 1.184 0 .394-.05.775-.148 1.141zm-2.083.59a2.344 2.344 0 0 0-.793-.131c-.203 0-.357.037-.464.112a.367.367 0 0 0-.16.32c0 .15.056.261.168.336a.749.749 0 0 0 .424.112c.224 0 .4-.05.528-.152.128-.101.221-.275.28-.52l.017-.076z"/>
    </g>
</svg>
