<svg xmlns="http://www.w3.org/2000/svg" width="32" height="22" viewBox="0 0 32 22">
    <path fill="#50567C" fill-rule="nonzero" d="M2 0h28a2 2 0 0 1 2 2v18a2 2 0 0 1-2 2H2a2 2 0 0 1-2-2V2a2 2 0 0 1 2-2zm6.56 11c1.945 0 3.524-1.57 3.524-3.505C12.084 5.559 10.505 4 8.559 4S5.035 5.57 5.035 7.495C5.035 9.419 6.613 11 8.559 11zm-6.018 7h12.035c.295 0 .528-.252.528-.57 0-2.988-2.248-5.43-5.024-5.43H7.038c-2.764 0-5.024 2.43-5.024 5.43 0 .318.233.57.528.57zM19.176 5.889a1.833 1.833 0 1 0 0 3.667h7.986a1.833 1.833 0 0 0 0-3.667h-7.986zM18.952 12a1.833 1.833 0 1 0 0 3.667h2.663a1.833 1.833 0 0 0 0-3.667h-2.663z"/>
</svg>
