<svg xmlns="http://www.w3.org/2000/svg" width="20" height="20" viewBox="0 0 20 20">
    <g fill="none" fill-rule="evenodd">
        <circle cx="10" cy="10" r="10" fill="#60668A"/>
        <path fill="#BFC2D7" fill-rule="nonzero" d="M8.826 8.812v-.476c.14-.056.327-.114.56-.175.233-.06.48-.114.742-.161.261-.047.52-.086.777-.119s.483-.049.679-.049l.252.168-1.26 6.034h.98v.476a2.784 2.784 0 0 1-.427.238 4.54 4.54 0 0 1-1.071.329 3.09 3.09 0 0 1-.532.049c-.355 0-.6-.068-.735-.203a.615.615 0 0 1-.203-.441c0-.187.014-.369.042-.546.028-.177.065-.373.112-.588l.952-4.34-.868-.196zm1.176-3.15c0-.317.107-.565.322-.742.215-.177.485-.266.812-.266.355 0 .637.089.847.266.21.177.315.425.315.742 0 .299-.105.537-.315.714-.21.177-.492.266-.847.266-.327 0-.597-.089-.812-.266a.878.878 0 0 1-.322-.714z"/>
    </g>
</svg>
