<?xml version="1.0" encoding="utf-8"?>
<!-- Generator: Adobe Illustrator 22.1.0, SVG Export Plug-In . SVG Version: 6.00 Build 0)  -->
<svg version="1.1" id="Isolation_Mode" xmlns="http://www.w3.org/2000/svg" xmlns:xlink="http://www.w3.org/1999/xlink" x="0px"
	 y="0px" viewBox="0 0 288 101.2" style="enable-background:new 0 0 288 101.2;" xml:space="preserve">
<style type="text/css">
	.st0{fill:url(#SVGID_1_);}
	.st1{fill:url(#SVGID_2_);}
	.st2{fill:url(#SVGID_3_);}
	.st3{fill:#0C041E;}
</style>
<g>
	<g>
		
			<linearGradient id="SVGID_1_" gradientUnits="userSpaceOnUse" x1="236.891" y1="37.4602" x2="287.7641" y2="37.4602" gradientTransform="matrix(1 0 0 -1 0 102.0892)">
			<stop  offset="0" style="stop-color:#FC6D2B"/>
			<stop  offset="1" style="stop-color:#FEBA0E"/>
		</linearGradient>
		<path class="st0" d="M268.9,30.2h18.9c0,0-0.7,14.4-16.3,38.2s-15.1,30.7-15.1,30.7h-19.6c0,0,0.7-14.9,17.2-36.8
			S268.9,30.2,268.9,30.2z"/>
		
			<linearGradient id="SVGID_2_" gradientUnits="userSpaceOnUse" x1="245.4827" y1="65.4522" x2="275.782" y2="14.6329" gradientTransform="matrix(1 0 0 -1 0 102.0892)">
			<stop  offset="0.1" style="stop-color:#194AAD"/>
			<stop  offset="0.4993" style="stop-color:#248FCB"/>
			<stop  offset="0.8" style="stop-color:#2BBFDF"/>
		</linearGradient>
		<path class="st1" d="M255.9,30.2h-18.9c0,0,0.7,14.4,16.3,38.2c15.6,24.1,15.1,30.7,15.1,30.7H288c0,0-0.7-14.9-17.2-36.8
			C254.3,40.3,255.9,30.2,255.9,30.2z"/>
		
			<linearGradient id="SVGID_3_" gradientUnits="userSpaceOnUse" x1="255.7546" y1="28.2124" x2="269.9063" y2="42.364" gradientTransform="matrix(1 0 0 -1 0 102.0892)">
			<stop  offset="0" style="stop-color:#32ADD3"/>
			<stop  offset="1" style="stop-color:#333366"/>
		</linearGradient>
		<path class="st2" d="M273.1,66c-0.5,0.7-0.9,1.7-1.7,2.6c-4,6.1-7.1,11.1-9,15.3c-2.1-4-5.2-9.2-9.2-15.3
			c-0.5-0.9-1.2-1.7-1.7-2.6c0.9-1.2,1.7-2.4,2.6-3.5c3.5-4.5,6.1-8.5,8-12c2.1,3.5,4.7,7.5,8,12C271.3,63.7,272.2,64.9,273.1,66z"
			/>
	</g>
	<g>
		<g>
			<g>
				<g>
					<path class="st3" d="M38.7,25.5c18.2,0,27.1,10.6,27.1,10.6l-6.6,9.7c0,0-7.8-8.3-20-8.3c-14.4,0-25,10.9-25,25.7
						c0,14.6,10.6,25.9,25.5,25.9c13.4,0,22.2-9.7,22.2-9.7l5.7,10.1c0,0-9.9,11.6-28.8,11.6C16,101,0,84.9,0,63.2
						C0,42,16,25.5,38.7,25.5z"/>
				</g>
			</g>
			<g>
				<g>
					<path class="st3" d="M106.1,25.5c21.5,0,38.9,15.8,38.9,37.7s-17.5,38-38.9,38s-38.9-16-38.9-38S84.7,25.5,106.1,25.5z
						 M106.1,89.2c13.7,0,24.8-10.9,24.8-25.9c0.2-15.1-11.1-25.7-24.8-25.7S81.4,48.1,81.4,63.2S92.7,89.2,106.1,89.2z"/>
				</g>
			</g>
			<g>
				<g>
					<path class="st3" d="M154,39.4h-9.4V28.1h9.9V7.3h13.4v20.8h17.5v11.1h-17.5v32.1c0,14.4,12.5,16.3,17.9,16.3
						c1.9,0,3.3-0.2,3.3-0.2v12.3c0,0-1.9,0.2-5,0.2c-9.2,0-30.2-2.8-30.2-26.9C154,72.9,154,39.4,154,39.4z"/>
				</g>
			</g>
			<g>
				<g>
					<path class="st3" d="M196.2,0h13.9v14.2h-13.9V0z M196.2,28.8h13.9v70.5h-13.9V28.8z"/>
				</g>
			</g>
		</g>
	</g>
</g>
</svg>
