<svg xmlns="http://www.w3.org/2000/svg" xmlns:xlink="http://www.w3.org/1999/xlink" width="654" height="469" viewBox="0 0 654 469">
    <defs>
        <linearGradient id="a" x1="56.825%" x2="2.473%" y1="24.612%" y2="81.735%">
            <stop offset="0%" stop-color="#DFA685"/>
            <stop offset="15.353%" stop-color="#714C83"/>
            <stop offset="29.769%" stop-color="#695088"/>
            <stop offset="42.014%" stop-color="#B77BBC"/>
            <stop offset="46.939%" stop-color="#68558D"/>
            <stop offset="76.825%" stop-color="#65538B"/>
            <stop offset="100%" stop-color="#C278B3"/>
        </linearGradient>
        <path id="b" d="M0 .278h722v378H0z"/>
        <linearGradient id="c" x1="40.869%" x2="62.021%" y1="98.519%" y2="4.936%">
            <stop offset="0%" stop-color="#DA3983"/>
            <stop offset="22.181%" stop-color="#A9559E"/>
            <stop offset="100%" stop-color="#647DC6"/>
        </linearGradient>
        <linearGradient id="e" x1="51.087%" x2="51.087%" y1="0%" y2="98.992%">
            <stop offset="0%" stop-color="#FFC25A"/>
            <stop offset="100%" stop-color="#FC6C30"/>
        </linearGradient>
        <linearGradient id="f" x1="0%" y1="100%" y2="0%">
            <stop offset="0%" stop-color="#F96E9D"/>
            <stop offset="100%" stop-color="#CF49C4"/>
        </linearGradient>
        <filter id="g" width="265.1%" height="265.1%" x="-82.6%" y="-82.6%" filterUnits="objectBoundingBox">
            <feGaussianBlur in="SourceGraphic" stdDeviation="-0.406962257 -19.9958591"/>
        </filter>
        <linearGradient id="h" x1="114.564%" x2="-61.053%" y1="27.135%" y2="103.267%">
            <stop offset="0%" stop-color="#FBD249"/>
            <stop offset="100%" stop-color="#F5A623"/>
        </linearGradient>
        <filter id="i" width="265.1%" height="265.1%" x="-82.6%" y="-82.6%" filterUnits="objectBoundingBox">
            <feGaussianBlur in="SourceGraphic" stdDeviation="-0.406962257 -19.9958591"/>
        </filter>
        <filter id="j" width="265.1%" height="265.1%" x="-82.6%" y="-82.6%" filterUnits="objectBoundingBox">
            <feGaussianBlur in="SourceGraphic" stdDeviation="-0.406962257 -19.9958591"/>
        </filter>
        <filter id="k" width="265.1%" height="265.1%" x="-82.6%" y="-82.6%" filterUnits="objectBoundingBox">
            <feGaussianBlur in="SourceGraphic" stdDeviation="-0.406962257 -19.9958591"/>
        </filter>
    </defs>
    <g fill="none" fill-rule="evenodd" transform="translate(-32 25)">
        <path stroke="url(#a)" d="M356.024 162l-93.136 53.774L450 322.676 356.024 379l-93.136-60.354L168 376.239" style="mix-blend-mode:screen"/>
        <g transform="translate(0 65)">
            <mask id="d" fill="#fff">
                <use xlink:href="#b"/>
            </mask>
            <path fill="url(#c)" fill-rule="nonzero" d="M472.217 293.622c9.85-17.193 25.822-17.193 35.673 0 9.851 17.192 9.851 45.067 0 62.26-9.85 17.193-25.822 17.193-35.673 0-9.851-17.193-9.851-45.068 0-62.26zm-53.51-93.39c9.85-17.193 25.822-17.193 35.673 0 9.851 17.192 9.851 45.067 0 62.26-9.85 17.192-25.822 17.192-35.673 0-9.851-17.193-9.851-45.068 0-62.26zm53.51-93.39c9.85-17.193 25.822-17.193 35.673 0 9.851 17.192 9.851 45.067 0 62.26-9.85 17.192-25.822 17.192-35.673 0-9.851-17.193-9.851-45.068 0-62.26zm-107.02 0c9.85-17.193 25.822-17.193 35.673 0 9.851 17.192 9.851 45.067 0 62.26-9.85 17.192-25.822 17.192-35.673 0-9.851-17.193-9.851-45.068 0-62.26zm0-186.948c9.85-17.192 25.822-17.192 35.673 0 9.851 17.193 9.851 45.068 0 62.26-9.85 17.193-25.822 17.193-35.673 0-9.851-17.192-9.851-45.067 0-62.26zm53.51 93.557c9.85-17.192 25.822-17.192 35.673 0 9.851 17.193 9.851 45.068 0 62.26-9.85 17.193-25.822 17.193-35.673 0-9.851-17.192-9.851-45.067 0-62.26zm-107.02 0c9.85-17.192 25.822-17.192 35.673 0 9.85 17.193 9.85 45.068 0 62.26-9.85 17.193-25.822 17.193-35.673 0-9.851-17.192-9.851-45.067 0-62.26zm107.02 373.56c9.85-17.192 25.822-17.192 35.673 0 9.851 17.194 9.851 45.068 0 62.261-9.85 17.193-25.822 17.193-35.673 0-9.851-17.193-9.851-45.067 0-62.26zm-53.51-93.39c9.85-17.192 25.822-17.192 35.673 0 9.851 17.193 9.851 45.068 0 62.26-9.85 17.194-25.822 17.194-35.673 0-9.851-17.192-9.851-45.067 0-62.26zm-53.51-93.39c9.85-17.192 25.822-17.192 35.673 0 9.85 17.193 9.85 45.068 0 62.26-9.85 17.193-25.822 17.193-35.673 0-9.851-17.192-9.851-45.067 0-62.26zm-53.51-93.39c9.85-17.192 25.822-17.192 35.673 0 9.85 17.193 9.85 45.068 0 62.26-9.851 17.193-25.822 17.193-35.673 0-9.851-17.192-9.851-45.067 0-62.26zm107.02 373.561c9.85-17.193 25.822-17.193 35.673 0 9.851 17.193 9.851 45.068 0 62.26-9.85 17.193-25.822 17.193-35.673 0-9.851-17.192-9.851-45.067 0-62.26zm-53.51-93.39c9.85-17.193 25.822-17.193 35.673 0 9.85 17.193 9.85 45.067 0 62.26-9.85 17.193-25.822 17.193-35.673 0-9.851-17.193-9.851-45.067 0-62.26zm-53.51-93.39c9.85-17.193 25.822-17.193 35.673 0 9.85 17.192 9.85 45.067 0 62.26-9.851 17.193-25.822 17.193-35.673 0-9.851-17.193-9.851-45.068 0-62.26zm-53.51-93.39c9.85-17.193 25.822-17.193 35.673 0 9.85 17.192 9.85 45.067 0 62.26-9.851 17.192-25.823 17.192-35.673 0-9.851-17.193-9.851-45.068 0-62.26z" mask="url(#d)" transform="rotate(90 356.278 231.278)"/>
        </g>
        <circle cx="356.195" cy="162.225" r="35.887" fill="url(#e)" opacity=".779" style="mix-blend-mode:lighten" transform="rotate(-135 356.195 162.225)"/>
        <circle cx="168.752" cy="375.752" r="35.887" fill="url(#f)" opacity=".603" style="mix-blend-mode:screen" transform="rotate(-135 168.752 375.752)"/>
        <circle cx="636.752" cy="322.752" r="35.887" fill="url(#f)" opacity=".603" style="mix-blend-mode:screen" transform="rotate(-135 636.752 322.752)"/>
        <circle cx="449.752" cy="322.752" r="35.887" fill="url(#f)" opacity=".603" style="mix-blend-mode:screen" transform="rotate(-135 449.752 322.752)"/>
        <g transform="translate(304)">
            <path fill="url(#e)" d="M41.073 110.097c19.123-5.19 38.833-24.901 44.024-44.024.884-3.253 2.076-8.14 3.577-14.66l-5.657-5.656c-4.565-4.565-12.169-6.09-21.73-3.495-19.123 5.192-38.833 24.902-44.025 44.025-2.595 9.561-1.07 17.165 3.495 21.73l5.657 5.657c6.963-1.622 11.85-2.814 14.659-3.577z" transform="rotate(-135 52.337 77.337)"/>
            <path fill="url(#e)" d="M41.073 85.097c19.123-5.19 38.833-24.901 44.024-44.024.884-3.253 2.076-8.14 3.577-14.66l-5.657-5.656c-4.565-4.565-12.169-6.09-21.73-3.495-19.123 5.192-38.833 24.902-44.025 44.025-2.595 9.561-1.07 17.165 3.495 21.73l5.657 5.657c6.963-1.622 11.85-2.814 14.659-3.577z" filter="url(#g)" opacity=".638" transform="rotate(-135 52.337 52.337)"/>
            <circle cx="52.337" cy="69.973" r="35.887" fill="url(#h)" transform="rotate(-135 52.337 69.973)"/>
            <circle cx="52.337" cy="69.973" r="33.387" stroke="#FFDC7D" stroke-width="5" transform="rotate(-135 52.337 69.973)"/>
        </g>
        <g transform="translate(116 209)">
            <path fill="url(#e)" d="M41.073 91.097c19.123-5.19 38.833-24.901 44.024-44.024.884-3.253 2.076-8.14 3.577-14.66l-5.657-5.656c-4.565-4.565-12.169-6.09-21.73-3.495-19.123 5.192-38.833 24.902-44.025 44.025-2.595 9.561-1.07 17.165 3.495 21.73l5.657 5.657c6.963-1.622 11.85-2.814 14.659-3.577z" transform="rotate(-135 52.337 58.337)"/>
            <path fill="url(#e)" d="M41.073 106.097c19.123-5.19 38.833-24.901 44.024-44.024.884-3.253 2.076-8.14 3.577-14.66l-5.657-5.656c-4.565-4.565-12.169-6.09-21.73-3.495-19.123 5.192-38.833 24.902-44.025 44.025-2.595 9.561-1.07 17.165 3.495 21.73l5.657 5.657c6.963-1.622 11.85-2.814 14.659-3.577z" filter="url(#i)" opacity=".638" transform="rotate(-135 52.337 73.337)"/>
            <circle cx="52.337" cy="50.973" r="35.887" fill="url(#h)" transform="rotate(-135 52.337 50.973)"/>
            <circle cx="52.337" cy="50.973" r="33.387" stroke="#FFDC7D" stroke-width="5" transform="rotate(-135 52.337 50.973)"/>
        </g>
        <g transform="translate(587 89)">
            <path fill="url(#e)" d="M41.073 110.097c19.123-5.19 38.833-24.901 44.024-44.024.884-3.253 2.076-8.14 3.577-14.66l-5.657-5.656c-4.565-4.565-12.169-6.09-21.73-3.495-19.123 5.192-38.833 24.902-44.025 44.025-2.595 9.561-1.07 17.165 3.495 21.73l5.657 5.657c6.963-1.622 11.85-2.814 14.659-3.577z" transform="rotate(-135 52.337 77.337)"/>
            <path fill="url(#e)" d="M41.073 125.097c19.123-5.19 38.833-24.901 44.024-44.024.884-3.253 2.076-8.14 3.577-14.66l-5.657-5.656c-4.565-4.565-12.169-6.09-21.73-3.495-19.123 5.192-38.833 24.902-44.025 44.025-2.595 9.561-1.07 17.165 3.495 21.73l5.657 5.657c6.963-1.622 11.85-2.814 14.659-3.577z" filter="url(#j)" opacity=".638" transform="rotate(-135 52.337 92.337)"/>
            <circle cx="52.337" cy="69.973" r="35.887" fill="url(#h)" transform="rotate(-135 52.337 69.973)"/>
            <circle cx="52.337" cy="69.973" r="33.387" stroke="#FFDC7D" stroke-width="5" transform="rotate(-135 52.337 69.973)"/>
        </g>
        <g transform="translate(397 137)">
            <path fill="url(#e)" d="M41.073 110.097c19.123-5.19 38.833-24.901 44.024-44.024.884-3.253 2.076-8.14 3.577-14.66l-5.657-5.656c-4.565-4.565-12.169-6.09-21.73-3.495-19.123 5.192-38.833 24.902-44.025 44.025-2.595 9.561-1.07 17.165 3.495 21.73l5.657 5.657c6.963-1.622 11.85-2.814 14.659-3.577z" transform="rotate(-135 52.337 77.337)"/>
            <path fill="url(#e)" d="M41.073 125.097c19.123-5.19 38.833-24.901 44.024-44.024.884-3.253 2.076-8.14 3.577-14.66l-5.657-5.656c-4.565-4.565-12.169-6.09-21.73-3.495-19.123 5.192-38.833 24.902-44.025 44.025-2.595 9.561-1.07 17.165 3.495 21.73l5.657 5.657c6.963-1.622 11.85-2.814 14.659-3.577z" filter="url(#k)" opacity=".638" transform="rotate(-135 52.337 92.337)"/>
            <circle cx="52.337" cy="69.973" r="35.887" fill="url(#h)" transform="rotate(-135 52.337 69.973)"/>
            <circle cx="52.337" cy="69.973" r="33.387" stroke="#FFDC7D" stroke-width="5" transform="rotate(-135 52.337 69.973)"/>
        </g>
    </g>
</svg>
