<svg xmlns="http://www.w3.org/2000/svg" width="903" height="406" viewBox="0 0 903 406">
    <defs>
        <linearGradient id="a" x1="14.735%" x2="70.864%" y1="25.3%" y2="100%">
            <stop offset="0%" stop-color="#DA3983"/>
            <stop offset="100%" stop-color="#00B6FF"/>
        </linearGradient>
    </defs>
    <g fill="none" fill-rule="nonzero">
        <path fill="url(#a)" d="M742.68 271.383c4.969-4.928 13.025-4.928 17.994 0a12.546 12.546 0 0 1 0 17.846c-4.97 4.928-13.025 4.928-17.994 0a12.546 12.546 0 0 1 0-17.846zm26.99 26.769c4.97-4.928 13.026-4.928 17.994 0a12.546 12.546 0 0 1 0 17.846c-4.968 4.928-13.025 4.928-17.993 0a12.546 12.546 0 0 1 0-17.846zm-53.98-53.537c4.968-4.928 13.024-4.928 17.993 0a12.546 12.546 0 0 1 0 17.845c-4.969 4.928-13.025 4.928-17.994 0a12.546 12.546 0 0 1 0-17.845zm-26.991-26.77c4.968-4.927 13.025-4.927 17.993 0a12.546 12.546 0 0 1 0 17.847c-4.968 4.928-13.025 4.928-17.993 0a12.546 12.546 0 0 1 0-17.846zm53.981-107.074c4.969-4.928 13.025-4.928 17.994 0a12.546 12.546 0 0 1 0 17.846c-4.97 4.928-13.025 4.928-17.994 0a12.546 12.546 0 0 1 0-17.846zm108.609 106.08c4.969-4.927 13.025-4.927 17.994 0a12.546 12.546 0 0 1 0 17.847c-4.97 4.928-13.025 4.928-17.994 0a12.546 12.546 0 0 1 0-17.846zM769.67 84.003c4.968-4.928 13.025-4.928 17.993 0a12.546 12.546 0 0 1 0 17.846c-4.968 4.928-13.025 4.928-17.993 0a12.546 12.546 0 0 1 0-17.846zM878.28 190.083c4.968-4.928 13.025-4.928 17.993 0a12.546 12.546 0 0 1 0 17.846c-4.968 4.928-13.025 4.928-17.993 0a12.546 12.546 0 0 1 0-17.846zM715.69 84.003c4.968-4.929 13.024-4.929 17.993 0a12.546 12.546 0 0 1 0 17.845c-4.969 4.928-13.025 4.928-17.994 0a12.546 12.546 0 0 1 0-17.846zm108.608 106.08c4.97-4.928 13.025-4.928 17.994 0a12.546 12.546 0 0 1 0 17.846c-4.969 4.928-13.025 4.928-17.994 0a12.546 12.546 0 0 1 0-17.846zM742.68 57.233c4.969-4.928 13.025-4.928 17.994 0a12.546 12.546 0 0 1 0 17.846c-4.97 4.928-13.025 4.928-17.994 0a12.546 12.546 0 0 1 0-17.846zm108.609 106.081c4.969-4.928 13.025-4.928 17.994 0a12.546 12.546 0 0 1 0 17.846c-4.97 4.928-13.025 4.928-17.994 0a12.546 12.546 0 0 1 0-17.846zm-162.59-106.08c4.968-4.929 13.025-4.929 17.993 0a12.546 12.546 0 0 1 0 17.845c-4.968 4.928-13.025 4.928-17.993 0a12.546 12.546 0 0 1 0-17.846zm108.609 106.08c4.968-4.928 13.025-4.928 17.993 0a12.546 12.546 0 0 1 0 17.846c-4.968 4.928-13.025 4.928-17.993 0a12.546 12.546 0 0 1 0-17.846zm-81.619-132.85c4.97-4.927 13.025-4.927 17.994 0a12.546 12.546 0 0 1 0 17.847c-4.969 4.928-13.025 4.928-17.994 0a12.546 12.546 0 0 1 0-17.846zM824.3 136.547c4.968-4.928 13.024-4.928 17.993 0a12.546 12.546 0 0 1 0 17.845c-4.969 4.928-13.025 4.928-17.994 0a12.546 12.546 0 0 1 0-17.845zM661.707 30.465c4.969-4.928 13.025-4.928 17.994 0a12.546 12.546 0 0 1 0 17.846c-4.97 4.928-13.025 4.928-17.994 0a12.546 12.546 0 0 1 0-17.846zm108.609 106.08c4.969-4.927 13.025-4.927 17.994 0a12.546 12.546 0 0 1 0 17.846c-4.97 4.928-13.025 4.928-17.994 0a12.546 12.546 0 0 1 0-17.845zM688.699 3.697c4.968-4.928 13.025-4.928 17.993 0a12.546 12.546 0 0 1 0 17.846c-4.968 4.928-13.025 4.928-17.993 0a12.546 12.546 0 0 1 0-17.846zm108.609 106.08c4.968-4.927 13.025-4.927 17.993 0a12.546 12.546 0 0 1 0 17.847c-4.968 4.928-13.025 4.928-17.993 0a12.546 12.546 0 0 1 0-17.846zm-81.619 188.376c4.97-4.928 13.025-4.928 17.994 0a12.546 12.546 0 0 1 0 17.846c-4.969 4.928-13.025 4.928-17.994 0a12.546 12.546 0 0 1 0-17.846zm26.991 26.769c4.969-4.928 13.025-4.928 17.994 0a12.546 12.546 0 0 1 0 17.846c-4.97 4.928-13.025 4.928-17.994 0a12.546 12.546 0 0 1 0-17.846zm-53.981-53.538c4.968-4.928 13.025-4.928 17.993 0a12.546 12.546 0 0 1 0 17.846c-4.968 4.928-13.025 4.928-17.993 0a12.546 12.546 0 0 1 0-17.846zm-26.991-26.768c4.969-4.928 13.025-4.928 17.994 0a12.546 12.546 0 0 1 0 17.845c-4.97 4.928-13.025 4.928-17.994 0a12.546 12.546 0 0 1 0-17.845zm53.981-107.075c4.97-4.928 13.025-4.928 17.994 0a12.546 12.546 0 0 1 0 17.845c-4.969 4.928-13.025 4.928-17.994 0a12.546 12.546 0 0 1 0-17.845zM824.3 243.62c4.968-4.927 13.024-4.927 17.993 0a12.546 12.546 0 0 1 0 17.846c-4.969 4.928-13.025 4.928-17.994 0a12.546 12.546 0 0 1 0-17.846zm-135.6-132.85c4.968-4.927 13.025-4.927 17.993 0a12.546 12.546 0 0 1 0 17.847c-4.968 4.928-13.025 4.928-17.993 0a12.546 12.546 0 0 1 0-17.846zm108.609 106.082c4.968-4.928 13.025-4.928 17.993 0a12.546 12.546 0 0 1 0 17.846c-4.968 4.928-13.025 4.928-17.993 0a12.546 12.546 0 0 1 0-17.846zm-135.6-132.85c4.969-4.928 13.025-4.928 17.994 0a12.546 12.546 0 0 1 0 17.846c-4.97 4.928-13.025 4.928-17.994 0a12.546 12.546 0 0 1 0-17.846zm108.609 106.081c4.969-4.928 13.025-4.928 17.994 0a12.546 12.546 0 0 1 0 17.846c-4.97 4.928-13.025 4.928-17.994 0a12.546 12.546 0 0 1 0-17.846zm-135.6-132.85c4.97-4.928 13.025-4.928 17.994 0a12.546 12.546 0 0 1 0 17.846c-4.969 4.928-13.025 4.928-17.994 0a12.546 12.546 0 0 1 0-17.846zm108.61 106.081c4.968-4.928 13.024-4.928 17.993 0a12.546 12.546 0 0 1 0 17.846c-4.969 4.928-13.025 4.928-17.994 0a12.546 12.546 0 0 1 0-17.846zm-54.628 161.607c4.968-4.928 13.025-4.928 17.993 0a12.546 12.546 0 0 1 0 17.846c-4.968 4.928-13.025 4.928-17.993 0a12.546 12.546 0 0 1 0-17.846zm26.99 26.768c4.97-4.928 13.025-4.928 17.994 0a12.546 12.546 0 0 1 0 17.846c-4.969 4.928-13.025 4.928-17.994 0a12.546 12.546 0 0 1 0-17.846zm-53.981-53.537c4.969-4.928 13.025-4.928 17.994 0a12.546 12.546 0 0 1 0 17.846c-4.97 4.928-13.025 4.928-17.994 0a12.546 12.546 0 0 1 0-17.846zm-26.99-26.769c4.968-4.928 13.024-4.928 17.993 0a12.546 12.546 0 0 1 0 17.846c-4.969 4.928-13.025 4.928-17.994 0a12.546 12.546 0 0 1 0-17.846zm53.98-107.075c4.97-4.928 13.026-4.928 17.994 0a12.546 12.546 0 0 1 0 17.846c-4.968 4.928-13.025 4.928-17.993 0a12.546 12.546 0 0 1 0-17.846zm108.61 106.081c4.968-4.928 13.025-4.928 17.993 0a12.546 12.546 0 0 1 0 17.846c-4.968 4.928-13.025 4.928-17.993 0a12.546 12.546 0 0 1 0-17.846zm-135.6-132.85c4.969-4.927 13.025-4.927 17.994 0a12.546 12.546 0 0 1 0 17.846c-4.97 4.928-13.025 4.928-17.994 0a12.546 12.546 0 0 1 0-17.845zM770.317 243.62c4.969-4.927 13.025-4.927 17.994 0a12.546 12.546 0 0 1 0 17.846c-4.97 4.928-13.025 4.928-17.994 0a12.546 12.546 0 0 1 0-17.846zm-135.6-132.85c4.97-4.927 13.025-4.927 17.994 0a12.546 12.546 0 0 1 0 17.847c-4.969 4.928-13.025 4.928-17.994 0a12.546 12.546 0 0 1 0-17.846zm108.61 106.082c4.968-4.928 13.024-4.928 17.993 0a12.546 12.546 0 0 1 0 17.846c-4.969 4.928-13.025 4.928-17.994 0a12.546 12.546 0 0 1 0-17.846zm-135.6-132.85c4.968-4.928 13.025-4.928 17.993 0a12.546 12.546 0 0 1 0 17.846c-4.968 4.928-13.025 4.928-17.993 0a12.546 12.546 0 0 1 0-17.846zm108.609 106.081c4.968-4.928 13.025-4.928 17.993 0a12.546 12.546 0 0 1 0 17.846c-4.968 4.928-13.025 4.928-17.993 0a12.546 12.546 0 0 1 0-17.846zm-54.628 161.606c4.969-4.928 13.025-4.928 17.994 0a12.546 12.546 0 0 1 0 17.846c-4.97 4.928-13.025 4.928-17.994 0a12.546 12.546 0 0 1 0-17.846zm26.99 26.77c4.97-4.929 13.026-4.929 17.994 0a12.546 12.546 0 0 1 0 17.845c-4.968 4.928-13.025 4.928-17.993 0a12.546 12.546 0 0 1 0-17.846zm-53.98-53.538c4.968-4.928 13.024-4.928 17.993 0a12.546 12.546 0 0 1 0 17.846c-4.969 4.928-13.025 4.928-17.994 0a12.546 12.546 0 0 1 0-17.846zm-26.991-26.769c4.968-4.928 13.025-4.928 17.993 0a12.546 12.546 0 0 1 0 17.846c-4.968 4.928-13.025 4.928-17.993 0a12.546 12.546 0 0 1 0-17.846z" transform="translate(3 3)"/>
        <path stroke="#333758" stroke-width="5" d="M141.68 274.383c4.969-4.928 13.025-4.928 17.994 0a12.546 12.546 0 0 1 0 17.846c-4.97 4.928-13.025 4.928-17.994 0a12.546 12.546 0 0 1 0-17.846zm26.99 26.769c4.97-4.928 13.026-4.928 17.994 0a12.546 12.546 0 0 1 0 17.846c-4.968 4.928-13.025 4.928-17.993 0a12.546 12.546 0 0 1 0-17.846zm-53.98-53.537c4.968-4.928 13.024-4.928 17.993 0a12.546 12.546 0 0 1 0 17.845c-4.969 4.928-13.025 4.928-17.994 0a12.546 12.546 0 0 1 0-17.845zm-26.991-26.77c4.968-4.927 13.025-4.927 17.993 0a12.546 12.546 0 0 1 0 17.847c-4.968 4.928-13.025 4.928-17.993 0a12.546 12.546 0 0 1 0-17.846zm53.981-107.074c4.969-4.928 13.025-4.928 17.994 0a12.546 12.546 0 0 1 0 17.846c-4.97 4.928-13.025 4.928-17.994 0a12.546 12.546 0 0 1 0-17.846zm108.609 106.08c4.969-4.927 13.025-4.927 17.994 0a12.546 12.546 0 0 1 0 17.847c-4.97 4.928-13.025 4.928-17.994 0a12.546 12.546 0 0 1 0-17.846zM168.67 87.003c4.968-4.928 13.025-4.928 17.993 0a12.546 12.546 0 0 1 0 17.846c-4.968 4.928-13.025 4.928-17.993 0a12.546 12.546 0 0 1 0-17.846zM277.28 193.083c4.968-4.928 13.025-4.928 17.993 0a12.546 12.546 0 0 1 0 17.846c-4.968 4.928-13.025 4.928-17.993 0a12.546 12.546 0 0 1 0-17.846zM114.69 87.003c4.968-4.929 13.024-4.929 17.993 0a12.546 12.546 0 0 1 0 17.845c-4.969 4.928-13.025 4.928-17.994 0a12.546 12.546 0 0 1 0-17.846zm108.608 106.08c4.97-4.928 13.025-4.928 17.994 0a12.546 12.546 0 0 1 0 17.846c-4.969 4.928-13.025 4.928-17.994 0a12.546 12.546 0 0 1 0-17.846zM141.68 60.233c4.969-4.928 13.025-4.928 17.994 0a12.546 12.546 0 0 1 0 17.846c-4.97 4.928-13.025 4.928-17.994 0a12.546 12.546 0 0 1 0-17.846zm108.609 106.081c4.969-4.928 13.025-4.928 17.994 0a12.546 12.546 0 0 1 0 17.846c-4.97 4.928-13.025 4.928-17.994 0a12.546 12.546 0 0 1 0-17.846zM87.699 60.234c4.968-4.929 13.025-4.929 17.993 0a12.546 12.546 0 0 1 0 17.845c-4.968 4.928-13.025 4.928-17.993 0a12.546 12.546 0 0 1 0-17.846zm108.609 106.08c4.968-4.928 13.025-4.928 17.993 0a12.546 12.546 0 0 1 0 17.846c-4.968 4.928-13.025 4.928-17.993 0a12.546 12.546 0 0 1 0-17.846zm-81.619-132.85c4.97-4.927 13.025-4.927 17.994 0a12.546 12.546 0 0 1 0 17.847c-4.969 4.928-13.025 4.928-17.994 0a12.546 12.546 0 0 1 0-17.846zM223.3 139.547c4.968-4.928 13.024-4.928 17.993 0a12.546 12.546 0 0 1 0 17.845c-4.969 4.928-13.025 4.928-17.994 0a12.546 12.546 0 0 1 0-17.845zM60.707 33.465c4.969-4.928 13.025-4.928 17.994 0a12.546 12.546 0 0 1 0 17.846c-4.97 4.928-13.025 4.928-17.994 0a12.546 12.546 0 0 1 0-17.846zm108.609 106.08c4.969-4.927 13.025-4.927 17.994 0a12.546 12.546 0 0 1 0 17.846c-4.97 4.928-13.025 4.928-17.994 0a12.546 12.546 0 0 1 0-17.845zM87.699 6.697c4.968-4.928 13.025-4.928 17.993 0a12.546 12.546 0 0 1 0 17.846c-4.968 4.928-13.025 4.928-17.993 0a12.546 12.546 0 0 1 0-17.846zm108.609 106.08c4.968-4.927 13.025-4.927 17.993 0a12.546 12.546 0 0 1 0 17.847c-4.968 4.928-13.025 4.928-17.993 0a12.546 12.546 0 0 1 0-17.846zm-81.619 188.376c4.97-4.928 13.025-4.928 17.994 0a12.546 12.546 0 0 1 0 17.846c-4.969 4.928-13.025 4.928-17.994 0a12.546 12.546 0 0 1 0-17.846zm26.991 26.769c4.969-4.928 13.025-4.928 17.994 0a12.546 12.546 0 0 1 0 17.846c-4.97 4.928-13.025 4.928-17.994 0a12.546 12.546 0 0 1 0-17.846zm-53.981-53.538c4.968-4.928 13.025-4.928 17.993 0a12.546 12.546 0 0 1 0 17.846c-4.968 4.928-13.025 4.928-17.993 0a12.546 12.546 0 0 1 0-17.846zm-26.991-26.768c4.969-4.928 13.025-4.928 17.994 0a12.546 12.546 0 0 1 0 17.845c-4.97 4.928-13.025 4.928-17.994 0a12.546 12.546 0 0 1 0-17.845zm53.981-107.075c4.97-4.928 13.025-4.928 17.994 0a12.546 12.546 0 0 1 0 17.845c-4.969 4.928-13.025 4.928-17.994 0a12.546 12.546 0 0 1 0-17.845zM223.3 246.62c4.968-4.927 13.024-4.927 17.993 0a12.546 12.546 0 0 1 0 17.846c-4.969 4.928-13.025 4.928-17.994 0a12.546 12.546 0 0 1 0-17.846zm-135.6-132.85c4.968-4.927 13.025-4.927 17.993 0a12.546 12.546 0 0 1 0 17.847c-4.968 4.928-13.025 4.928-17.993 0a12.546 12.546 0 0 1 0-17.846zm108.609 106.082c4.968-4.928 13.025-4.928 17.993 0a12.546 12.546 0 0 1 0 17.846c-4.968 4.928-13.025 4.928-17.993 0a12.546 12.546 0 0 1 0-17.846zm-135.6-132.85c4.969-4.928 13.025-4.928 17.994 0a12.546 12.546 0 0 1 0 17.846c-4.97 4.928-13.025 4.928-17.994 0a12.546 12.546 0 0 1 0-17.846zm108.609 106.081c4.969-4.928 13.025-4.928 17.994 0a12.546 12.546 0 0 1 0 17.846c-4.97 4.928-13.025 4.928-17.994 0a12.546 12.546 0 0 1 0-17.846zm-135.6-132.85c4.97-4.928 13.025-4.928 17.994 0a12.546 12.546 0 0 1 0 17.846c-4.969 4.928-13.025 4.928-17.994 0a12.546 12.546 0 0 1 0-17.846zm108.61 106.081c4.968-4.928 13.024-4.928 17.993 0a12.546 12.546 0 0 1 0 17.846c-4.969 4.928-13.025 4.928-17.994 0a12.546 12.546 0 0 1 0-17.846zM87.698 327.921c4.968-4.928 13.025-4.928 17.993 0a12.546 12.546 0 0 1 0 17.846c-4.968 4.928-13.025 4.928-17.993 0a12.546 12.546 0 0 1 0-17.846zm26.99 26.768c4.97-4.928 13.025-4.928 17.994 0a12.546 12.546 0 0 1 0 17.846c-4.969 4.928-13.025 4.928-17.994 0a12.546 12.546 0 0 1 0-17.846zm-53.981-53.537c4.969-4.928 13.025-4.928 17.994 0a12.546 12.546 0 0 1 0 17.846c-4.97 4.928-13.025 4.928-17.994 0a12.546 12.546 0 0 1 0-17.846zm-26.99-26.769c4.968-4.928 13.024-4.928 17.993 0a12.546 12.546 0 0 1 0 17.846c-4.969 4.928-13.025 4.928-17.994 0a12.546 12.546 0 0 1 0-17.846zm53.98-107.075c4.97-4.928 13.026-4.928 17.994 0a12.546 12.546 0 0 1 0 17.846c-4.968 4.928-13.025 4.928-17.993 0a12.546 12.546 0 0 1 0-17.846zm108.61 106.081c4.968-4.928 13.025-4.928 17.993 0a12.546 12.546 0 0 1 0 17.846c-4.968 4.928-13.025 4.928-17.993 0a12.546 12.546 0 0 1 0-17.846zm-135.6-132.85c4.969-4.927 13.025-4.927 17.994 0a12.546 12.546 0 0 1 0 17.846c-4.97 4.928-13.025 4.928-17.994 0a12.546 12.546 0 0 1 0-17.845zM169.317 246.62c4.969-4.927 13.025-4.927 17.994 0a12.546 12.546 0 0 1 0 17.846c-4.97 4.928-13.025 4.928-17.994 0a12.546 12.546 0 0 1 0-17.846zm-135.6-132.85c4.97-4.927 13.025-4.927 17.994 0a12.546 12.546 0 0 1 0 17.847c-4.969 4.928-13.025 4.928-17.994 0a12.546 12.546 0 0 1 0-17.846zm108.61 106.082c4.968-4.928 13.024-4.928 17.993 0a12.546 12.546 0 0 1 0 17.846c-4.969 4.928-13.025 4.928-17.994 0a12.546 12.546 0 0 1 0-17.846zM6.726 87.002c4.968-4.928 13.025-4.928 17.993 0a12.546 12.546 0 0 1 0 17.846c-4.968 4.928-13.025 4.928-17.993 0a12.546 12.546 0 0 1 0-17.846zm108.609 106.081c4.968-4.928 13.025-4.928 17.993 0a12.546 12.546 0 0 1 0 17.846c-4.968 4.928-13.025 4.928-17.993 0a12.546 12.546 0 0 1 0-17.846zM60.708 354.689c4.969-4.928 13.025-4.928 17.994 0a12.546 12.546 0 0 1 0 17.846c-4.97 4.928-13.025 4.928-17.994 0a12.546 12.546 0 0 1 0-17.846zm26.99 26.77c4.97-4.929 13.026-4.929 17.994 0a12.546 12.546 0 0 1 0 17.845c-4.968 4.928-13.025 4.928-17.993 0a12.546 12.546 0 0 1 0-17.846zm-53.98-53.538c4.968-4.928 13.024-4.928 17.993 0a12.546 12.546 0 0 1 0 17.846c-4.969 4.928-13.025 4.928-17.994 0a12.546 12.546 0 0 1 0-17.846zM6.726 301.152c4.968-4.928 13.025-4.928 17.993 0a12.546 12.546 0 0 1 0 17.846c-4.968 4.928-13.025 4.928-17.993 0a12.546 12.546 0 0 1 0-17.846z" opacity=".705"/>
        <path fill="#000" d="M437.68 274.383c4.969-4.928 13.025-4.928 17.994 0a12.546 12.546 0 0 1 0 17.846c-4.97 4.928-13.025 4.928-17.994 0a12.546 12.546 0 0 1 0-17.846zm26.99 26.769c4.97-4.928 13.026-4.928 17.994 0a12.546 12.546 0 0 1 0 17.846c-4.968 4.928-13.025 4.928-17.993 0a12.546 12.546 0 0 1 0-17.846zm-53.98-53.537c4.968-4.928 13.024-4.928 17.993 0a12.546 12.546 0 0 1 0 17.845c-4.969 4.928-13.025 4.928-17.994 0a12.546 12.546 0 0 1 0-17.845zm-26.991-26.77c4.968-4.927 13.025-4.927 17.993 0a12.546 12.546 0 0 1 0 17.847c-4.968 4.928-13.025 4.928-17.993 0a12.546 12.546 0 0 1 0-17.846zm53.981-107.074c4.969-4.928 13.025-4.928 17.994 0a12.546 12.546 0 0 1 0 17.846c-4.97 4.928-13.025 4.928-17.994 0a12.546 12.546 0 0 1 0-17.846zm108.609 106.08c4.969-4.927 13.025-4.927 17.994 0a12.546 12.546 0 0 1 0 17.847c-4.97 4.928-13.025 4.928-17.994 0a12.546 12.546 0 0 1 0-17.846zM464.67 87.003c4.968-4.928 13.025-4.928 17.993 0a12.546 12.546 0 0 1 0 17.846c-4.968 4.928-13.025 4.928-17.993 0a12.546 12.546 0 0 1 0-17.846zM573.28 193.083c4.968-4.928 13.025-4.928 17.993 0a12.546 12.546 0 0 1 0 17.846c-4.968 4.928-13.025 4.928-17.993 0a12.546 12.546 0 0 1 0-17.846zM410.69 87.003c4.968-4.929 13.024-4.929 17.993 0a12.546 12.546 0 0 1 0 17.845c-4.969 4.928-13.025 4.928-17.994 0a12.546 12.546 0 0 1 0-17.846zm108.608 106.08c4.97-4.928 13.025-4.928 17.994 0a12.546 12.546 0 0 1 0 17.846c-4.969 4.928-13.025 4.928-17.994 0a12.546 12.546 0 0 1 0-17.846zM437.68 60.233c4.969-4.928 13.025-4.928 17.994 0a12.546 12.546 0 0 1 0 17.846c-4.97 4.928-13.025 4.928-17.994 0a12.546 12.546 0 0 1 0-17.846zm108.609 106.081c4.969-4.928 13.025-4.928 17.994 0a12.546 12.546 0 0 1 0 17.846c-4.97 4.928-13.025 4.928-17.994 0a12.546 12.546 0 0 1 0-17.846zm-162.59-106.08c4.968-4.929 13.025-4.929 17.993 0a12.546 12.546 0 0 1 0 17.845c-4.968 4.928-13.025 4.928-17.993 0a12.546 12.546 0 0 1 0-17.846zm108.609 106.08c4.968-4.928 13.025-4.928 17.993 0a12.546 12.546 0 0 1 0 17.846c-4.968 4.928-13.025 4.928-17.993 0a12.546 12.546 0 0 1 0-17.846zm-81.619-132.85c4.97-4.927 13.025-4.927 17.994 0a12.546 12.546 0 0 1 0 17.847c-4.969 4.928-13.025 4.928-17.994 0a12.546 12.546 0 0 1 0-17.846zM519.3 139.547c4.968-4.928 13.024-4.928 17.993 0a12.546 12.546 0 0 1 0 17.845c-4.969 4.928-13.025 4.928-17.994 0a12.546 12.546 0 0 1 0-17.845zM356.707 33.465c4.969-4.928 13.025-4.928 17.994 0a12.546 12.546 0 0 1 0 17.846c-4.97 4.928-13.025 4.928-17.994 0a12.546 12.546 0 0 1 0-17.846zm108.609 106.08c4.969-4.927 13.025-4.927 17.994 0a12.546 12.546 0 0 1 0 17.846c-4.97 4.928-13.025 4.928-17.994 0a12.546 12.546 0 0 1 0-17.845zM383.699 6.697c4.968-4.928 13.025-4.928 17.993 0a12.546 12.546 0 0 1 0 17.846c-4.968 4.928-13.025 4.928-17.993 0a12.546 12.546 0 0 1 0-17.846zm108.609 106.08c4.968-4.927 13.025-4.927 17.993 0a12.546 12.546 0 0 1 0 17.847c-4.968 4.928-13.025 4.928-17.993 0a12.546 12.546 0 0 1 0-17.846zm-81.619 188.376c4.97-4.928 13.025-4.928 17.994 0a12.546 12.546 0 0 1 0 17.846c-4.969 4.928-13.025 4.928-17.994 0a12.546 12.546 0 0 1 0-17.846zm26.991 26.769c4.969-4.928 13.025-4.928 17.994 0a12.546 12.546 0 0 1 0 17.846c-4.97 4.928-13.025 4.928-17.994 0a12.546 12.546 0 0 1 0-17.846zm-53.981-53.538c4.968-4.928 13.025-4.928 17.993 0a12.546 12.546 0 0 1 0 17.846c-4.968 4.928-13.025 4.928-17.993 0a12.546 12.546 0 0 1 0-17.846zm-26.991-26.768c4.969-4.928 13.025-4.928 17.994 0a12.546 12.546 0 0 1 0 17.845c-4.97 4.928-13.025 4.928-17.994 0a12.546 12.546 0 0 1 0-17.845zm53.981-107.075c4.97-4.928 13.025-4.928 17.994 0a12.546 12.546 0 0 1 0 17.845c-4.969 4.928-13.025 4.928-17.994 0a12.546 12.546 0 0 1 0-17.845zM519.3 246.62c4.968-4.927 13.024-4.927 17.993 0a12.546 12.546 0 0 1 0 17.846c-4.969 4.928-13.025 4.928-17.994 0a12.546 12.546 0 0 1 0-17.846zm-135.6-132.85c4.968-4.927 13.025-4.927 17.993 0a12.546 12.546 0 0 1 0 17.847c-4.968 4.928-13.025 4.928-17.993 0a12.546 12.546 0 0 1 0-17.846zm108.609 106.082c4.968-4.928 13.025-4.928 17.993 0a12.546 12.546 0 0 1 0 17.846c-4.968 4.928-13.025 4.928-17.993 0a12.546 12.546 0 0 1 0-17.846zm-135.6-132.85c4.969-4.928 13.025-4.928 17.994 0a12.546 12.546 0 0 1 0 17.846c-4.97 4.928-13.025 4.928-17.994 0a12.546 12.546 0 0 1 0-17.846zm108.609 106.081c4.969-4.928 13.025-4.928 17.994 0a12.546 12.546 0 0 1 0 17.846c-4.97 4.928-13.025 4.928-17.994 0a12.546 12.546 0 0 1 0-17.846zm-135.6-132.85c4.97-4.928 13.025-4.928 17.994 0a12.546 12.546 0 0 1 0 17.846c-4.969 4.928-13.025 4.928-17.994 0a12.546 12.546 0 0 1 0-17.846zm108.61 106.081c4.968-4.928 13.024-4.928 17.993 0a12.546 12.546 0 0 1 0 17.846c-4.969 4.928-13.025 4.928-17.994 0a12.546 12.546 0 0 1 0-17.846zm-54.628 161.607c4.968-4.928 13.025-4.928 17.993 0a12.546 12.546 0 0 1 0 17.846c-4.968 4.928-13.025 4.928-17.993 0a12.546 12.546 0 0 1 0-17.846zm26.99 26.768c4.97-4.928 13.025-4.928 17.994 0a12.546 12.546 0 0 1 0 17.846c-4.969 4.928-13.025 4.928-17.994 0a12.546 12.546 0 0 1 0-17.846zm-53.981-53.537c4.969-4.928 13.025-4.928 17.994 0a12.546 12.546 0 0 1 0 17.846c-4.97 4.928-13.025 4.928-17.994 0a12.546 12.546 0 0 1 0-17.846zm-26.99-26.769c4.968-4.928 13.024-4.928 17.993 0a12.546 12.546 0 0 1 0 17.846c-4.969 4.928-13.025 4.928-17.994 0a12.546 12.546 0 0 1 0-17.846zm53.98-107.075c4.97-4.928 13.026-4.928 17.994 0a12.546 12.546 0 0 1 0 17.846c-4.968 4.928-13.025 4.928-17.993 0a12.546 12.546 0 0 1 0-17.846zm108.61 106.081c4.968-4.928 13.025-4.928 17.993 0a12.546 12.546 0 0 1 0 17.846c-4.968 4.928-13.025 4.928-17.993 0a12.546 12.546 0 0 1 0-17.846zm-135.6-132.85c4.969-4.927 13.025-4.927 17.994 0a12.546 12.546 0 0 1 0 17.846c-4.97 4.928-13.025 4.928-17.994 0a12.546 12.546 0 0 1 0-17.845zM465.317 246.62c4.969-4.927 13.025-4.927 17.994 0a12.546 12.546 0 0 1 0 17.846c-4.97 4.928-13.025 4.928-17.994 0a12.546 12.546 0 0 1 0-17.846zm-135.6-132.85c4.97-4.927 13.025-4.927 17.994 0a12.546 12.546 0 0 1 0 17.847c-4.969 4.928-13.025 4.928-17.994 0a12.546 12.546 0 0 1 0-17.846zm108.61 106.082c4.968-4.928 13.024-4.928 17.993 0a12.546 12.546 0 0 1 0 17.846c-4.969 4.928-13.025 4.928-17.994 0a12.546 12.546 0 0 1 0-17.846zm-135.6-132.85c4.968-4.928 13.025-4.928 17.993 0a12.546 12.546 0 0 1 0 17.846c-4.968 4.928-13.025 4.928-17.993 0a12.546 12.546 0 0 1 0-17.846zm108.609 106.081c4.968-4.928 13.025-4.928 17.993 0a12.546 12.546 0 0 1 0 17.846c-4.968 4.928-13.025 4.928-17.993 0a12.546 12.546 0 0 1 0-17.846zm-54.628 161.606c4.969-4.928 13.025-4.928 17.994 0a12.546 12.546 0 0 1 0 17.846c-4.97 4.928-13.025 4.928-17.994 0a12.546 12.546 0 0 1 0-17.846zm26.99 26.77c4.97-4.929 13.026-4.929 17.994 0a12.546 12.546 0 0 1 0 17.845c-4.968 4.928-13.025 4.928-17.993 0a12.546 12.546 0 0 1 0-17.846zm-53.98-53.538c4.968-4.928 13.024-4.928 17.993 0a12.546 12.546 0 0 1 0 17.846c-4.969 4.928-13.025 4.928-17.994 0a12.546 12.546 0 0 1 0-17.846zm-26.991-26.769c4.968-4.928 13.025-4.928 17.993 0a12.546 12.546 0 0 1 0 17.846c-4.968 4.928-13.025 4.928-17.993 0a12.546 12.546 0 0 1 0-17.846z" opacity=".1"/>
    </g>
</svg>
