<svg xmlns="http://www.w3.org/2000/svg" width="17" height="22" viewBox="0 0 17 22">
    <path fill="#FFF" fill-rule="nonzero" d="M7.943 16.918l-.754-.755 1.33-1.33 3.162 3.16-3.161 3.162-1.331-1.331.901-.902a7.98 7.98 0 0 1-5.56-2.343A7.987 7.987 0 0 1 .255 9.882c1.99.253.007-.008 1.983.26a5.99 5.99 0 0 0 1.707 5.023 5.98 5.98 0 0 0 3.998 1.753zM7.697 4.942l.74.74-1.331 1.33-3.161-3.16L7.105.69l1.332 1.331-.93.93a7.985 7.985 0 0 1 6.337 2.315 7.987 7.987 0 0 1 2.274 6.706l-1.982-.262a5.99 5.99 0 0 0-1.706-5.03 5.985 5.985 0 0 0-4.733-1.738z"/>
</svg>
