<svg xmlns="http://www.w3.org/2000/svg" width="38" height="22" viewBox="0 0 38 22">
    <path fill="#00D381" fill-rule="nonzero" d="M32 12.724l-1.225 1.226-2.829-2.829L23 16.068 28.932 22H2a2 2 0 0 1-2-2V2a2 2 0 0 1 2-2h28a2 2 0 0 1 2 2v10.724zM9.634 4.397a1 1 0 0 0-1.142 0L2.443 8.602a1 1 0 0 0-.429.82V17a1 1 0 0 0 1 1H9.07a1 1 0 0 0 1-1v-3.5a1 1 0 0 1 1-1h.517a1 1 0 0 1 1 1V17a1 1 0 0 0 1 1h1.525a1 1 0 0 0 1-1V9.423a1 1 0 0 0-.43-.821L9.635 4.397zm11.444 1.492a1.833 1.833 0 1 0 0 3.667h6.084a1.833 1.833 0 0 0 0-3.667h-6.084zm0 6.111a1.833 1.833 0 1 0 0 3.667h1.544a1.833 1.833 0 0 0 0-3.667h-1.544zm11.992 6.898l-2.12 2.12-4.95-4.95 2.12-2.12 2.828 2.83 4.946-4.947 2.122 2.121-4.946 4.946z"/>
</svg>
