<svg xmlns="http://www.w3.org/2000/svg" width="32" height="22" viewBox="0 0 32 22">
    <path fill="#50567C" fill-rule="nonzero" d="M2 0h28a2 2 0 0 1 2 2v18a2 2 0 0 1-2 2H2a2 2 0 0 1-2-2V2a2 2 0 0 1 2-2zm7.634 4.397a1 1 0 0 0-1.142 0L2.443 8.602a1 1 0 0 0-.429.82V17a1 1 0 0 0 1 1H9.07a1 1 0 0 0 1-1v-3.5a1 1 0 0 1 1-1h.517a1 1 0 0 1 1 1V17a1 1 0 0 0 1 1h1.525a1 1 0 0 0 1-1V9.423a1 1 0 0 0-.43-.821L9.635 4.397zm11.444 1.492a1.833 1.833 0 1 0 0 3.667h6.084a1.833 1.833 0 0 0 0-3.667h-6.084zm0 6.111a1.833 1.833 0 1 0 0 3.667h1.544a1.833 1.833 0 0 0 0-3.667h-1.544z"/>
</svg>
