<svg xmlns="http://www.w3.org/2000/svg" width="100" height="100" viewBox="0 0 100 100">
    <defs>
        <linearGradient id="a" x1="127.704%" x2="47.781%" y1="0%" y2="59.789%">
            <stop offset="0%" stop-color="#DFE0F6"/>
            <stop offset="100%" stop-color="#92A5A9"/>
        </linearGradient>
        <linearGradient id="b" x1="25.887%" x2="74.113%" y1="0%" y2="100%">
            <stop offset="0%" stop-color="#DA3983"/>
            <stop offset="48.94%" stop-color="#A9559E"/>
            <stop offset="100%" stop-color="#647DC6"/>
        </linearGradient>
    </defs>
    <g fill="none" fill-rule="evenodd">
        <path fill="url(#a)" d="M37.003 79.801a3.395 3.395 0 1 1 4.801 4.801 3.395 3.395 0 0 1-4.801-4.8zm7.202-7.202a3.395 3.395 0 1 1 4.8 4.802 3.395 3.395 0 0 1-4.8-4.802zm-14.404 0a3.395 3.395 0 1 1 4.801 4.802 3.395 3.395 0 0 1-4.8-4.802zm7.202-7.201a3.395 3.395 0 1 1 4.801 4.8 3.395 3.395 0 0 1-4.801-4.8zm-14.404 0a3.395 3.395 0 1 1 4.802 4.8 3.395 3.395 0 0 1-4.802-4.8zm7.202-7.202a3.395 3.395 0 1 1 4.801 4.801 3.395 3.395 0 0 1-4.8-4.801zm-14.403 0a3.395 3.395 0 1 1 4.8 4.801 3.395 3.395 0 0 1-4.8-4.801zm7.201-7.202a3.395 3.395 0 1 1 4.802 4.801 3.395 3.395 0 0 1-4.802-4.8zm7.202 36.009a3.395 3.395 0 1 1 4.801 4.801 3.395 3.395 0 0 1-4.8-4.801zM22.6 79.8a3.395 3.395 0 1 1 4.802 4.801 3.395 3.395 0 0 1-4.802-4.8zM15.398 72.6a3.395 3.395 0 1 1 4.8 4.802 3.395 3.395 0 0 1-4.8-4.802zm-7.202-7.201a3.395 3.395 0 1 1 4.801 4.8 3.395 3.395 0 0 1-4.801-4.8zm14.403 28.807a3.395 3.395 0 1 1 4.802 4.8 3.395 3.395 0 0 1-4.802-4.8zm-7.201-7.202a3.395 3.395 0 1 1 4.8 4.801 3.395 3.395 0 0 1-4.8-4.801zM8.196 79.8a3.395 3.395 0 1 1 4.801 4.801 3.395 3.395 0 0 1-4.801-4.8zM.994 72.6a3.395 3.395 0 1 1 4.801 4.802 3.395 3.395 0 0 1-4.8-4.802zM87.003 29.801a3.395 3.395 0 1 1 4.801 4.801 3.395 3.395 0 0 1-4.801-4.8zm7.202-7.202a3.395 3.395 0 1 1 4.8 4.802 3.395 3.395 0 0 1-4.8-4.802zm-14.404 0a3.395 3.395 0 1 1 4.801 4.802 3.395 3.395 0 0 1-4.8-4.802zm7.202-7.201a3.395 3.395 0 1 1 4.801 4.8 3.395 3.395 0 0 1-4.801-4.8zm-14.404 0a3.395 3.395 0 1 1 4.802 4.8 3.395 3.395 0 0 1-4.802-4.8zm7.202-7.202a3.395 3.395 0 1 1 4.801 4.801 3.395 3.395 0 0 1-4.8-4.801zm-14.403 0a3.395 3.395 0 1 1 4.8 4.801 3.395 3.395 0 0 1-4.8-4.801zM72.599.994a3.395 3.395 0 1 1 4.802 4.801 3.395 3.395 0 0 1-4.802-4.8zm7.202 36.009a3.395 3.395 0 1 1 4.801 4.801 3.395 3.395 0 0 1-4.8-4.801zM72.6 29.8a3.395 3.395 0 1 1 4.802 4.801 3.395 3.395 0 0 1-4.802-4.8zM65.398 22.6a3.395 3.395 0 1 1 4.8 4.802 3.395 3.395 0 0 1-4.8-4.802zm-7.202-7.201a3.395 3.395 0 1 1 4.801 4.8 3.395 3.395 0 0 1-4.801-4.8zm14.403 28.807a3.395 3.395 0 1 1 4.802 4.8 3.395 3.395 0 0 1-4.802-4.8zm-7.201-7.202a3.395 3.395 0 1 1 4.8 4.801 3.395 3.395 0 0 1-4.8-4.801zM58.196 29.8a3.395 3.395 0 1 1 4.801 4.801 3.395 3.395 0 0 1-4.801-4.8zM50.994 22.6a3.395 3.395 0 1 1 4.801 4.802 3.395 3.395 0 0 1-4.8-4.802z" opacity=".201"/>
        <g fill-rule="nonzero">
            <path fill="#3E3F63" d="M32 25h36a7 7 0 0 1 7 7v36a7 7 0 0 1-7 7H32a7 7 0 0 1-7-7V32a7 7 0 0 1 7-7z"/>
            <path fill="url(#b)" d="M34 22h3v-7c0-6.627-5.373-12-12-12S13 8.373 13 15v7h3v-7a9 9 0 0 1 18 0v7zm6 0h3a7 7 0 0 1 7 7v36a7 7 0 0 1-7 7H7a7 7 0 0 1-7-7V29a7 7 0 0 1 7-7h3v-7c0-8.284 6.716-15 15-15 8.284 0 15 6.716 15 15v7zm0 3H7a4 4 0 0 0-4 4v36a4 4 0 0 0 4 4h36a4 4 0 0 0 4-4V29a4 4 0 0 0-4-4h-3zm-9-3v-7a6 6 0 1 0-12 0v7h12zM15.5 43a9.5 9.5 0 1 1 15 7.747V56a5.5 5.5 0 0 1-11 0v-5.253a9.491 9.491 0 0 1-4-7.747zm7 13a2.5 2.5 0 1 0 5 0v-6.935l.749-.434a6.5 6.5 0 1 0-6.498 0l.749.434V56z" transform="translate(25 3)"/>
        </g>
    </g>
</svg>
