<?xml version="1.0" encoding="utf-8"?>
<!-- Generator: Adobe Illustrator 22.1.0, SVG Export Plug-In . SVG Version: 6.00 Build 0)  -->
<svg version="1.1" id="Layer_1" xmlns="http://www.w3.org/2000/svg" xmlns:xlink="http://www.w3.org/1999/xlink" x="0px" y="0px"
	 viewBox="0 0 40 40" style="enable-background:new 0 0 40 40;" xml:space="preserve">
<style type="text/css">
	.st0{fill:url(#SVGID_1_);}
</style>
<linearGradient id="SVGID_1_" gradientUnits="userSpaceOnUse" x1="9.756097e-02" y1="21.1252" x2="39.9907" y2="21.1252">
	<stop  offset="0" style="stop-color:#2BBFDF"/>
	<stop  offset="1" style="stop-color:#1974AD"/>
</linearGradient>
<path class="st0" d="M32.8,35.9c3.9-3.6,6.1-8.5,6.1-13.9c0-10.4-8.5-18.8-18.8-18.8C9.6,3.2,1.1,11.7,1.1,22.1
	c0,7.2,4,13.6,10.4,16.8c0.1,0.1,0.3,0.1,0.4,0.1c0.3,0,0.6-0.2,0.8-0.5c0.2-0.4,0-0.9-0.4-1.1c-5.8-2.9-9.4-8.8-9.4-15.3
	c0-9.5,7.7-17.1,17.2-17.1c9.5,0,17.1,7.7,17.1,17.1c0,5-2.2,9.7-5.9,13l0.8-7.5l-1.7-0.2l-1.1,10.2l10.2,0.3l0.1-1.7L32.8,35.9z"/>
</svg>
