<?xml version="1.0" encoding="utf-8"?>
<!-- Generator: Adobe Illustrator 22.1.0, SVG Export Plug-In . SVG Version: 6.00 Build 0)  -->
<svg version="1.1" id="Layer_5" xmlns="http://www.w3.org/2000/svg" xmlns:xlink="http://www.w3.org/1999/xlink" x="0px" y="0px"
	 viewBox="0 0 1920 1080" style="enable-background:new 0 0 1920 1080;" xml:space="preserve">
<style type="text/css">
	.st0{fill:none;stroke:#FFFFFF;stroke-miterlimit:10;}
	.st1{fill:#FFFFFF;}
</style>
<g>
	<g>
		<g>
			<polyline class="st0" points="1516.4,-173.6 1475,-140.3 1314.7,-11.3 1112.9,151.1 911.2,313.4 911.2,313.4 709.5,475.7 
				507.8,638.1 507.8,638.1 306,800.4 306,800.4 104.3,962.8 104.3,962.8 -97.4,1125.1 -139,1158.6 			"/>
			<line class="st0" x1="1275" y1="-267.2" x2="1274.9" y2="-267.2"/>
			<polyline class="st0" points="1117.4,-140.3 1073.2,-104.8 1073.2,-104.8 871.5,57.5 871.5,57.5 669.8,219.9 468,382.2 
				266.3,544.5 266.3,544.5 64.6,706.9 64.6,706.9 -137.2,869.2 -139,870.7 			"/>
			<line class="st0" x1="831.8" y1="-198.4" x2="831.8" y2="-198.4"/>
			<polyline class="st0" points="759.7,-140.3 630,-36 630,-36 428.3,126.3 226.6,288.7 226.6,288.7 24.8,451 24.8,451 -139,582.9 
				-176.9,613.3 			"/>
			<polyline class="st0" points="402,-140.3 388.6,-129.6 388.6,-129.5 186.8,32.8 -14.9,195.1 -139,295 -216.6,357.5 			"/>
			<polyline class="st0" points="2078.8,525.2 2041,555.6 1877.1,687.5 1675.3,849.9 1675.3,849.9 1473.6,1012.2 1473.6,1012.2 
				1271.9,1174.6 1271.8,1174.6 1244,1197 			"/>
			<polyline class="st0" points="2041,843.4 1916.8,943.4 1916.8,943.4 1715,1105.8 1715,1105.8 1601.7,1197 			"/>
			<polyline class="st0" points="2041,267.8 2039.1,269.3 1837.3,431.7 1635.6,594 1433.9,756.3 1232.1,918.7 1232.1,918.7 
				1030.4,1081 1030.4,1081 886.3,1197 			"/>
			<line class="st0" x1="828.7" y1="1243.4" x2="828.7" y2="1243.4"/>
			<polyline class="st0" points="2041,-20.1 1999.3,13.4 1797.6,175.8 1595.9,338.1 1394.1,500.5 1192.4,662.8 990.7,825.2 
				788.9,987.5 587.2,1149.8 587.2,1149.8 587.2,1149.8 528.6,1197 			"/>
			<polyline class="st0" points="1832.7,-140.3 1757.9,-80.1 1556.1,82.3 1354.4,244.6 1152.7,406.9 1152.7,406.9 951,569.3 
				950.9,569.3 749.2,731.6 547.5,894 345.8,1056.3 345.7,1056.3 170.9,1197 144,1218.6 144,1218.6 			"/>
		</g>
		<g>
			<polyline class="st0" points="613.8,-140.3 630,-36 630,-36 669.8,219.9 709.5,475.7 749.2,731.6 788.9,987.5 821.5,1197 			"/>
			<line class="st0" x1="828.7" y1="1243.4" x2="828.7" y2="1243.4"/>
			<polyline class="st0" points="386.9,-140.3 388.6,-129.6 388.6,-129.5 428.3,126.3 468,382.2 507.8,638.1 547.5,894 
				587.2,1149.8 587.2,1149.8 594.5,1197 			"/>
			<line class="st0" x1="626.9" y1="1405.7" x2="626.9" y2="1405.7"/>
			<polyline class="st0" points="147.1,-223.1 160,-140.3 186.8,32.8 226.6,288.7 226.6,288.7 266.3,544.5 266.3,544.5 306,800.4 
				306,800.4 345.7,1056.3 345.8,1056.3 367.6,1197 			"/>
			<line class="st0" x1="385.5" y1="1312.2" x2="385.5" y2="1312.2"/>
			<polyline class="st0" points="-67,-140.3 -54.6,-60.7 -14.9,195.1 24.8,451 24.8,451 64.6,706.9 104.3,962.8 104.3,962.8 
				140.6,1197 144,1218.6 			"/>
			<polyline class="st0" points="1516.4,-173.6 1521.6,-140.3 1556.1,82.3 1595.9,338.1 1635.6,594 1675.3,849.9 1675.3,849.9 
				1715,1105.8 1715,1105.8 1729.2,1197 			"/>
			<polyline class="st0" points="1748.5,-140.3 1757.9,-80.1 1797.6,175.8 1837.3,431.7 1877.1,687.5 1916.8,943.4 1916.8,943.4 
				1956.2,1197 1956.5,1199.3 			"/>
			<line class="st0" x1="1275" y1="-267.2" x2="1274.9" y2="-267.2"/>
			<polyline class="st0" points="1294.7,-140.3 1314.7,-11.3 1354.4,244.6 1394.1,500.5 1433.9,756.3 1473.6,1012.2 1502.3,1197 			
				"/>
			<polyline class="st0" points="1067.7,-140.3 1073.2,-104.8 1112.9,151.1 1152.7,406.9 1152.7,406.9 1192.4,662.8 1232.1,918.7 
				1232.1,918.7 1271.8,1174.6 1271.9,1174.6 1275.3,1197 			"/>
			<polyline class="st0" points="840.8,-140.3 871.5,57.5 871.5,57.5 911.2,313.4 950.9,569.3 950.9,569.3 990.7,825.2 990.7,825.2 
				1030.4,1081 1030.4,1081 1048.4,1197 			"/>
		</g>
		<g>
			<polyline class="st0" points="-216.6,357.5 -139,387.5 24.8,451 266.3,544.5 266.3,544.5 507.8,638.1 507.8,638.1 749.2,731.6 
				990.7,825.2 990.7,825.2 1232.1,918.7 1232.1,918.7 1473.6,1012.2 1473.6,1012.2 1715,1105.8 1950.6,1197 1956.5,1199.3 			"/>
			<polyline class="st0" points="-176.9,613.3 -139,628 64.6,706.9 64.6,706.9 306,800.4 547.5,894 788.9,987.5 1030.4,1081 
				1030.4,1081 1030.4,1081 1271.8,1174.6 1271.9,1174.6 1329.8,1197 			"/>
			<polyline class="st0" points="-139,868.5 -137.2,869.2 104.3,962.8 345.7,1056.3 345.8,1056.3 587.2,1149.8 587.2,1149.8 
				709,1197 			"/>
			<polyline class="st0" points="828.7,1243.4 828.7,1243.4 828.7,1243.4 			"/>
			<polyline class="st0" points="-139,1109 -97.4,1125.1 88.2,1197 144,1218.6 144,1218.6 			"/>
			<line class="st0" x1="831.8" y1="-198.4" x2="831.8" y2="-198.4"/>
			<polyline class="st0" points="981.5,-140.3 1073.2,-104.8 1073.2,-104.8 1314.7,-11.3 1556.1,82.3 1797.6,175.8 2039.1,269.3 
				2041,270.1 			"/>
			<line class="st0" x1="1275" y1="-267.2" x2="1274.9" y2="-267.2"/>
			<polyline class="st0" points="1516.4,-173.6 1602.3,-140.3 1757.9,-80.1 1999.3,13.4 2041,29.6 			"/>
			<polyline class="st0" points="360.7,-140.3 388.6,-129.5 630,-36 630,-36 871.5,57.5 871.5,57.5 1112.9,151.1 1354.4,244.6 
				1595.9,338.1 1837.3,431.7 2041,510.6 2078.8,525.2 			"/>
			<polyline class="st0" points="-139,-93.4 -54.6,-60.7 186.8,32.8 428.3,126.3 669.8,219.9 911.2,313.4 911.2,313.4 1152.7,406.9 
				1152.7,406.9 1394.1,500.5 1635.6,594 1877.1,687.5 2041,751 			"/>
			<line class="st0" x1="2147.4" y1="1032.8" x2="-408.5" y2="42.6"/>
		</g>
	</g>
	<g>
		<g>
			<circle class="st1" cx="226.7" cy="288.7" r="4.5"/>
			<circle class="st1" cx="468.6" cy="382.4" r="4.5"/>
			<circle class="st1" cx="709.1" cy="475.6" r="4.5"/>
			<circle class="st1" cx="951" cy="569.3" r="4.5"/>
			<circle class="st1" cx="1192.5" cy="662.8" r="4.5"/>
			<circle class="st1" cx="1434.6" cy="756.6" r="4.5"/>
			<circle class="st1" cx="1675" cy="849.8" r="4.5"/>
			<circle class="st1" cx="1916.8" cy="943.4" r="4.5"/>
			<circle class="st1" cx="-15.5" cy="194.9" r="4.5"/>
		</g>
		<g>
			<circle class="st1" cx="186.9" cy="32.8" r="4.5"/>
			<circle class="st1" cx="428.8" cy="126.6" r="4.5"/>
			<circle class="st1" cx="669.3" cy="219.7" r="4.5"/>
			<circle class="st1" cx="911.2" cy="313.4" r="4.5"/>
			<circle class="st1" cx="1152.7" cy="407" r="4.5"/>
			<circle class="st1" cx="1394.8" cy="500.7" r="4.5"/>
			<circle class="st1" cx="1635.2" cy="593.9" r="4.5"/>
			<circle class="st1" cx="1877" cy="687.5" r="4.5"/>
			<circle class="st1" cx="-55.2" cy="-61" r="4.5"/>
		</g>
		<g>
			<circle class="st1" cx="388.8" cy="-129.4" r="4.5"/>
			<circle class="st1" cx="630.8" cy="-35.7" r="4.5"/>
			<circle class="st1" cx="871.2" cy="57.4" r="4.5"/>
			<circle class="st1" cx="1113.2" cy="151.1" r="4.5"/>
			<circle class="st1" cx="1354.7" cy="244.7" r="4.5"/>
			<circle class="st1" cx="1596.8" cy="338.5" r="4.5"/>
			<circle class="st1" cx="1837.2" cy="431.6" r="4.5"/>
			<circle class="st1" cx="2079" cy="525.3" r="4.5"/>
			<circle class="st1" cx="146.7" cy="-223.2" r="4.5"/>
		</g>
		<g>
			<circle class="st1" cx="831.5" cy="-198.3" r="4.5"/>
			<circle class="st1" cx="1073.4" cy="-104.6" r="4.5"/>
			<circle class="st1" cx="1314.9" cy="-11.1" r="4.5"/>
			<circle class="st1" cx="1557" cy="82.7" r="4.5"/>
			<circle class="st1" cx="1797.4" cy="175.9" r="4.5"/>
			<circle class="st1" cx="2039.2" cy="269.5" r="4.5"/>
		</g>
		<g>
			<circle class="st1" cx="24.7" cy="451.2" r="4.5"/>
			<circle class="st1" cx="266.7" cy="545" r="4.5"/>
			<circle class="st1" cx="507.1" cy="638.1" r="4.5"/>
			<circle class="st1" cx="749.1" cy="731.8" r="4.5"/>
			<circle class="st1" cx="990.6" cy="825.4" r="4.5"/>
			<circle class="st1" cx="1232.7" cy="919.1" r="4.5"/>
			<circle class="st1" cx="1473.1" cy="1012.3" r="4.5"/>
			<circle class="st1" cx="1714.9" cy="1105.9" r="4.5"/>
			<circle class="st1" cx="-217.4" cy="357.4" r="4.5"/>
		</g>
		<g>
			<circle class="st1" cx="64.5" cy="706.9" r="4.5"/>
			<circle class="st1" cx="306.5" cy="800.6" r="4.5"/>
			<circle class="st1" cx="546.9" cy="893.8" r="4.5"/>
			<circle class="st1" cx="788.9" cy="987.5" r="4.5"/>
			<circle class="st1" cx="1030.3" cy="1081.1" r="4.5"/>
			<circle class="st1" cx="1272.4" cy="1174.8" r="4.5"/>
			<circle class="st1" cx="-177.6" cy="613.1" r="4.5"/>
		</g>
		<g>
			<circle class="st1" cx="-136.8" cy="869.6" r="4.5"/>
			<circle class="st1" cx="105.1" cy="963.3" r="4.5"/>
			<circle class="st1" cx="345.6" cy="1056.5" r="4.5"/>
			<circle class="st1" cx="587.5" cy="1150.2" r="4.5"/>
			<circle class="st1" cx="829" cy="1243.7" r="4.5"/>
			<circle class="st1" cx="-379" cy="775.8" r="4.5"/>
		</g>
	</g>
</g>
</svg>
