<svg xmlns="http://www.w3.org/2000/svg" width="109" height="64" viewBox="0 0 109 64">
    <defs>
        <linearGradient id="a" x1="127.704%" x2="47.781%" y1="0%" y2="59.789%">
            <stop offset="0%" stop-color="#DFE0F6"/>
            <stop offset="100%" stop-color="#92A5A9"/>
        </linearGradient>
        <linearGradient id="b" x1="0%" y1="16.7%" y2="83.3%">
            <stop offset="0%" stop-color="#DA3983"/>
            <stop offset="48.94%" stop-color="#A9559E"/>
            <stop offset="100%" stop-color="#647DC6"/>
        </linearGradient>
    </defs>
    <g fill="none" fill-rule="evenodd">
        <path fill="url(#a)" d="M23.764 42.882a3.395 3.395 0 1 1 0 6.79 3.395 3.395 0 0 1 0-6.79zm10.185 0a3.395 3.395 0 1 1 0 6.79 3.395 3.395 0 0 1 0-6.79zM23.764 32.697a3.395 3.395 0 1 1 0 6.79 3.395 3.395 0 0 1 0-6.79zm10.185 0a3.395 3.395 0 1 1 0 6.79 3.395 3.395 0 0 1 0-6.79zM23.764 22.513a3.395 3.395 0 1 1 0 6.79 3.395 3.395 0 0 1 0-6.79zm10.185 0a3.395 3.395 0 1 1 0 6.79 3.395 3.395 0 0 1 0-6.79zM23.764 12.328a3.395 3.395 0 1 1 0 6.79 3.395 3.395 0 0 1 0-6.79zm10.185 0a3.395 3.395 0 1 1 0 6.79 3.395 3.395 0 0 1 0-6.79zM13.58 42.882a3.395 3.395 0 1 1 0 6.79 3.395 3.395 0 0 1 0-6.79zm0-10.185a3.395 3.395 0 1 1 0 6.79 3.395 3.395 0 0 1 0-6.79zm0-10.184a3.395 3.395 0 1 1 0 6.79 3.395 3.395 0 0 1 0-6.79zm0-10.185a3.395 3.395 0 1 1 0 6.79 3.395 3.395 0 0 1 0-6.79zM3.396 42.882a3.395 3.395 0 1 1 0 6.79 3.395 3.395 0 0 1 0-6.79zm0-10.185a3.395 3.395 0 1 1 0 6.79 3.395 3.395 0 0 1 0-6.79zm0-10.184a3.395 3.395 0 1 1 0 6.79 3.395 3.395 0 0 1 0-6.79zm0-10.185a3.395 3.395 0 1 1 0 6.79 3.395 3.395 0 0 1 0-6.79zM94.475 42.882a3.395 3.395 0 1 1 0 6.79 3.395 3.395 0 0 1 0-6.79zm10.185 0a3.395 3.395 0 1 1 0 6.79 3.395 3.395 0 0 1 0-6.79zM94.475 32.697a3.395 3.395 0 1 1 0 6.79 3.395 3.395 0 0 1 0-6.79zm10.185 0a3.395 3.395 0 1 1 0 6.79 3.395 3.395 0 0 1 0-6.79zM94.475 22.513a3.395 3.395 0 1 1 0 6.79 3.395 3.395 0 0 1 0-6.79zm10.185 0a3.395 3.395 0 1 1 0 6.79 3.395 3.395 0 0 1 0-6.79zM94.475 12.328a3.395 3.395 0 1 1 0 6.79 3.395 3.395 0 0 1 0-6.79zm10.185 0a3.395 3.395 0 1 1 0 6.79 3.395 3.395 0 0 1 0-6.79zM84.29 42.882a3.395 3.395 0 1 1 0 6.79 3.395 3.395 0 0 1 0-6.79zm0-10.185a3.395 3.395 0 1 1 0 6.79 3.395 3.395 0 0 1 0-6.79zm0-10.184a3.395 3.395 0 1 1 0 6.79 3.395 3.395 0 0 1 0-6.79zm0-10.185a3.395 3.395 0 1 1 0 6.79 3.395 3.395 0 0 1 0-6.79zM74.106 42.882a3.395 3.395 0 1 1 0 6.79 3.395 3.395 0 0 1 0-6.79zm0-10.185a3.395 3.395 0 1 1 0 6.79 3.395 3.395 0 0 1 0-6.79zm0-10.184a3.395 3.395 0 1 1 0 6.79 3.395 3.395 0 0 1 0-6.79zm0-10.185a3.395 3.395 0 1 1 0 6.79 3.395 3.395 0 0 1 0-6.79z" opacity=".201" transform="translate(.973 1)"/>
        <g fill-rule="nonzero" stroke="url(#b)" transform="translate(17 1)">
            <path fill="#4B4971" d="M74.113 1.89C75.284 2.996 76 4.625 76 6.384v31.728c0 1.759-.716 3.323-1.887 4.495-1.106 1.173-2.733 1.89-4.49 1.89H65.59v5.928c0 .717-.325 1.368-.78 1.824-.456.522-1.107.782-1.823.782-.325 0-.65-.065-.976-.195-.325-.13-.585-.326-.846-.587l-7.743-7.752H42.49v7.427c0 1.238-.456 2.345-1.302 3.192-.846.782-1.952 1.303-3.188 1.303H15.226l-5.01 5.017c-.195.195-.39.325-.65.456-.261.065-.521.13-.782.13-.585 0-1.04-.195-1.431-.586-.39-.391-.586-.847-.586-1.434V56.42H4.425A4.422 4.422 0 0 1 1.3 55.117C.521 54.27 0 53.163 0 51.925V31.077c0-1.238.455-2.346 1.301-3.193.846-.782 1.952-1.303 3.189-1.303h7.808V6.385c0-1.76.716-3.323 1.887-4.496C15.29.717 16.918 0 18.675 0h50.948c1.757 0 3.319.717 4.49 1.89z"/>
            <path fill="url(#b)" d="M62.023 17.471c1.662 0 3.19.665 4.32 1.795a6.082 6.082 0 0 1 1.795 4.32c0 1.662-.665 3.19-1.795 4.32a6.082 6.082 0 0 1-4.32 1.795c-1.662 0-3.19-.731-4.32-1.794a6.082 6.082 0 0 1-1.795-4.32c0-1.662.665-3.191 1.795-4.321a6.082 6.082 0 0 1 4.32-1.795zm3.057 9.173a4.267 4.267 0 0 0 1.263-3.058c0-1.196-.465-2.26-1.263-3.057a4.267 4.267 0 0 0-3.057-1.263c-1.196 0-2.26.465-3.057 1.263-.798.73-1.263 1.86-1.263 3.057 0 1.197.465 2.26 1.263 3.058a4.267 4.267 0 0 0 3.057 1.263c1.196 0 2.26-.466 3.057-1.263zM26.207 17.47c1.662 0 3.19.665 4.32 1.795a6.082 6.082 0 0 1 1.795 4.32c0 1.662-.665 3.19-1.795 4.32a6.082 6.082 0 0 1-4.32 1.795 6.123 6.123 0 0 1-4.32-1.794 6.082 6.082 0 0 1-1.795-4.32c0-1.662.665-3.191 1.795-4.321a6.082 6.082 0 0 1 4.32-1.795zm3.057 9.173a4.267 4.267 0 0 0 1.263-3.058c0-1.196-.465-2.26-1.263-3.057a4.267 4.267 0 0 0-3.057-1.263c-1.197 0-2.26.465-3.058 1.263-.797.73-1.262 1.86-1.262 3.057 0 1.197.465 2.26 1.262 3.058a4.267 4.267 0 0 0 3.058 1.263c1.196 0 2.26-.466 3.057-1.263zm15.288-9.173c1.661 0 3.19.665 4.32 1.795a6.082 6.082 0 0 1 1.795 4.32c0 1.662-.665 3.19-1.795 4.32a6.082 6.082 0 0 1-4.32 1.795 6.123 6.123 0 0 1-4.32-1.794 6.082 6.082 0 0 1-1.795-4.32c0-1.662.664-3.191 1.794-4.321a6.082 6.082 0 0 1 4.32-1.795zm3.057 9.173a4.267 4.267 0 0 0 1.263-3.058c0-1.196-.465-2.26-1.263-3.057a4.267 4.267 0 0 0-3.057-1.263c-1.197 0-2.26.465-3.058 1.263-.797.73-1.263 1.86-1.263 3.057 0 1.197.466 2.26 1.263 3.058a4.267 4.267 0 0 0 3.058 1.263c1.196 0 2.26-.466 3.057-1.263zM74.113 1.889C75.284 2.997 76 4.626 76 6.385v31.728c0 1.759-.716 3.323-1.887 4.495-1.106 1.173-2.733 1.89-4.49 1.89H65.59v5.928c0 .717-.325 1.368-.78 1.824-.456.522-1.107.782-1.823.782-.325 0-.65-.065-.976-.195-.325-.13-.585-.326-.846-.587l-7.743-7.752H42.49v7.427c0 1.238-.456 2.345-1.302 3.192-.846.782-1.952 1.303-3.188 1.303H15.226l-5.01 5.017c-.195.195-.39.325-.65.456-.261.065-.521.13-.782.13-.585 0-1.04-.195-1.431-.586-.39-.391-.586-.847-.586-1.434V56.42H4.425A4.422 4.422 0 0 1 1.3 55.117C.521 54.27 0 53.163 0 51.925V31.077c0-1.238.455-2.346 1.301-3.193.846-.782 1.952-1.303 3.189-1.303h7.808V6.385c0-1.76.716-3.323 1.887-4.496C15.29.717 16.918 0 18.675 0h50.948c1.757 0 3.319.717 4.49 1.89zM40.668 51.925v-7.427H18.61c-1.757 0-3.319-.717-4.49-1.89-1.171-1.107-1.887-2.736-1.887-4.495V28.34H4.425c-.781 0-1.432.26-1.952.782-.456.521-.781 1.173-.781 1.955h.13v20.848c0 .782.26 1.433.78 1.954.521.456 1.172.782 1.953.782h3.188c.456 0 .846.39.846.847v4.495c0 .065 0 .13.065.196.065.065.13.065.195.065h.13l.066-.065 5.27-5.277c.13-.196.39-.261.586-.261h23.034c.78 0 1.431-.26 1.952-.782.455-.521.78-1.172.78-1.954zm33.705-13.812V6.385a4.667 4.667 0 0 0-4.685-4.69l-51.013-.001a4.667 4.667 0 0 0-4.685 4.69v31.664a4.667 4.667 0 0 0 4.685 4.69h35.137c.195 0 .39.066.585.261l8.134 8.014c.065.065.13.13.26.195.065.065.195.065.325.065.196 0 .456-.13.586-.26.195-.13.26-.326.26-.587v-6.775c0-.456.39-.847.846-.847h4.88a4.667 4.667 0 0 0 4.685-4.691z"/>
        </g>
    </g>
</svg>
