<svg xmlns="http://www.w3.org/2000/svg" width="91" height="106" viewBox="0 0 91 106">
    <defs>
        <linearGradient id="a" x1="0%" y1="79.533%" y2="3.562%">
            <stop offset="0%" stop-color="#01BBB4"/>
            <stop offset="100%" stop-color="#00F085"/>
        </linearGradient>
    </defs>
    <g fill="none" fill-rule="nonzero">
        <path fill="url(#a)" d="M59.155 72.788l6.53 6.655 11.41-11.595a2.69 2.69 0 1 1 3.755 3.855L65.7 86.942 55.415 76.657a2.69 2.69 0 0 1 3.74-3.869zM68 99c-12.703 0-23-10.297-23-23s10.297-23 23-23 23 10.297 23 23-10.297 23-23 23zm0-4c10.493 0 19-8.507 19-19s-8.507-19-19-19-19 8.507-19 19 8.507 19 19 19z"/>
        <path fill="#60668A" d="M44.838 45.765a33.949 33.949 0 0 1 8.703 4.41l-2.3 3.27A29.89 29.89 0 0 0 34 48C17.43 48 3.999 61.431 3.999 78v22a2 2 0 0 0 2 2h56v4H6a6 6 0 0 1-6-6V78c0-15.206 9.982-28.08 23.75-32.428C15.61 41.672 10 33.482 10 24 10 10.735 20.979 0 34.5 0S59 10.735 59 24c0 9.642-5.8 17.947-14.162 21.765zM34.5 44C45.832 44 55 35.036 55 24S45.832 4 34.5 4 14 12.964 14 24s9.168 20 20.5 20z"/>
    </g>
</svg>
