<svg xmlns="http://www.w3.org/2000/svg" width="200" height="200" viewBox="0 0 200 200">
    <defs>
        <linearGradient id="a" x1="20.975%" x2="79.025%" y1="0%" y2="100%">
            <stop offset="0%" stop-color="#DA3983"/>
            <stop offset="48.94%" stop-color="#A9559E"/>
            <stop offset="100%" stop-color="#647DC6"/>
        </linearGradient>
        <linearGradient id="b" x1="21.008%" x2="78.992%" y1="0%" y2="100%">
            <stop offset="0%" stop-color="#DA3983"/>
            <stop offset="48.94%" stop-color="#A9559E"/>
            <stop offset="100%" stop-color="#647DC6"/>
        </linearGradient>
        <linearGradient id="c" x1="0%" y1="62.87%" y2="29.764%">
            <stop offset="0%" stop-color="#01BBB4"/>
            <stop offset="100%" stop-color="#00F085"/>
        </linearGradient>
        <linearGradient id="d" x1="0%" y1="57.879%" y2="37.611%">
            <stop offset="0%" stop-color="#01BBB4"/>
            <stop offset="100%" stop-color="#00F085"/>
        </linearGradient>
    </defs>
    <g fill="none" fill-rule="evenodd">
        <g fill="#2A2E4E" opacity=".503">
            <path d="M125.994 159.602a6.79 6.79 0 1 0-9.602 9.603 6.79 6.79 0 0 0 9.602-9.603zM111.591 145.2a6.79 6.79 0 1 0-9.602 9.602 6.79 6.79 0 0 0 9.602-9.602zm28.807 0a6.79 6.79 0 1 0-9.603 9.602 6.79 6.79 0 0 0 9.603-9.602zm-14.404-14.404a6.79 6.79 0 1 0-9.602 9.603 6.79 6.79 0 0 0 9.602-9.603zm28.807 0a6.79 6.79 0 1 0-9.602 9.603 6.79 6.79 0 0 0 9.602-9.603zm-14.403-14.403a6.79 6.79 0 1 0-9.603 9.602 6.79 6.79 0 0 0 9.603-9.602zm28.807 0a6.79 6.79 0 1 0-9.603 9.602 6.79 6.79 0 0 0 9.603-9.602zM154.8 101.99a6.79 6.79 0 1 0-9.602 9.602 6.79 6.79 0 0 0 9.602-9.602zm-14.403 72.017a6.79 6.79 0 1 0-9.603 9.602 6.79 6.79 0 0 0 9.603-9.602zm14.403-14.404a6.79 6.79 0 1 0-9.602 9.603 6.79 6.79 0 0 0 9.602-9.603zm14.404-14.403a6.79 6.79 0 1 0-9.603 9.602 6.79 6.79 0 0 0 9.603-9.602zm14.403-14.404a6.79 6.79 0 1 0-9.602 9.603 6.79 6.79 0 0 0 9.602-9.603zM154.8 188.41a6.79 6.79 0 1 0-9.602 9.602 6.79 6.79 0 0 0 9.602-9.602zm14.404-14.403a6.79 6.79 0 1 0-9.603 9.602 6.79 6.79 0 0 0 9.603-9.602zm14.403-14.404a6.79 6.79 0 1 0-9.602 9.603 6.79 6.79 0 0 0 9.602-9.603zM198.01 145.2a6.79 6.79 0 1 0-9.602 9.602 6.79 6.79 0 0 0 9.602-9.602zM25.994 59.602a6.79 6.79 0 1 0-9.602 9.603 6.79 6.79 0 0 0 9.602-9.603zM11.591 45.2A6.79 6.79 0 1 0 1.989 54.8 6.79 6.79 0 0 0 11.59 45.2zm28.807 0a6.79 6.79 0 1 0-9.603 9.602 6.79 6.79 0 0 0 9.603-9.602zM25.994 30.795a6.79 6.79 0 1 0-9.602 9.603 6.79 6.79 0 0 0 9.602-9.603zm28.807 0a6.79 6.79 0 1 0-9.602 9.603 6.79 6.79 0 0 0 9.602-9.603zM40.398 16.392a6.79 6.79 0 1 0-9.603 9.602 6.79 6.79 0 0 0 9.603-9.602zm28.807 0a6.79 6.79 0 1 0-9.603 9.602 6.79 6.79 0 0 0 9.603-9.602zM54.8 1.99A6.79 6.79 0 1 0 45.2 11.59 6.79 6.79 0 0 0 54.8 1.989zM40.398 74.006a6.79 6.79 0 1 0-9.603 9.602 6.79 6.79 0 0 0 9.603-9.602zM54.8 59.602a6.79 6.79 0 1 0-9.602 9.603 6.79 6.79 0 0 0 9.602-9.603zM69.205 45.2a6.79 6.79 0 1 0-9.603 9.602 6.79 6.79 0 0 0 9.603-9.602zm14.403-14.404a6.79 6.79 0 1 0-9.602 9.603 6.79 6.79 0 0 0 9.602-9.603zM54.8 88.41a6.79 6.79 0 1 0-9.602 9.602A6.79 6.79 0 0 0 54.8 88.41zm14.404-14.403a6.79 6.79 0 1 0-9.603 9.602 6.79 6.79 0 0 0 9.603-9.602zm14.403-14.404a6.79 6.79 0 1 0-9.602 9.603 6.79 6.79 0 0 0 9.602-9.603zM98.01 45.2A6.79 6.79 0 1 0 88.41 54.8a6.79 6.79 0 0 0 9.602-9.602z"/>
        </g>
        <path fill="url(#a)" fill-rule="nonzero" d="M24.314 18.834L9.574 4.346 4.387 9.43l9.55 9.405-9.55 9.405 5.189 5.083 14.74-14.488zM0 9.43L9.575 0 28.7 18.834 9.575 37.668 0 28.24l9.55-9.405L0 9.43z" transform="translate(125.56)"/>
        <path fill="url(#b)" fill-rule="nonzero" d="M67.717 48.879L24.834 6.624 6.722 24.471l24.772 24.408L6.722 73.287l18.112 17.847 42.883-42.255zM0 24.47L24.834 0 74.44 48.879 24.834 97.758 0 73.288l24.771-24.41L0 24.472z" transform="translate(0 102.242)"/>
        <g fill-rule="nonzero">
            <path fill="#353A5D" d="M31.39 54.709h137.22v90.582H31.39z"/>
            <path fill="url(#c)" d="M0 0h137.22v90.583H0V0zm5.381 5.381v79.82H131.84V5.382H5.38z" transform="translate(31.39 54.709)"/>
            <path fill="url(#d)" d="M6.077 3.447a2.69 2.69 0 1 0-3.74 3.869l66.28 64.078 65.099-63.413a2.69 2.69 0 1 0-3.755-3.855l-61.358 59.77L6.077 3.446z" transform="translate(31.39 54.709)"/>
        </g>
    </g>
</svg>
