<svg xmlns="http://www.w3.org/2000/svg" width="74" height="74" viewBox="0 0 74 74">
    <defs>
        <linearGradient id="a" x1="12.776%" x2="87.224%" y1="0%" y2="100%">
            <stop offset="0%" stop-color="#DA3983"/>
            <stop offset="48.94%" stop-color="#A9559E"/>
            <stop offset="100%" stop-color="#647DC6"/>
        </linearGradient>
    </defs>
    <g fill="none" fill-rule="nonzero">
        <path fill="#60668A" d="M37 73.5c20.158 0 36.5-16.342 36.5-36.5S57.158.5 37 .5.5 16.842.5 37 16.842 73.5 37 73.5zm0-3C18.498 70.5 3.5 55.502 3.5 37 3.5 18.498 18.498 3.5 37 3.5c18.502 0 33.5 14.998 33.5 33.5 0 18.502-14.998 33.5-33.5 33.5z"/>
        <path fill="#60668A" d="M66.107 44.292c.591-2.366.893-4.81.893-7.292C67 20.431 53.569 7 37 7v2c15.464 0 28 12.536 28 28 0 2.319-.282 4.6-.833 6.808l1.94.484z" opacity=".496"/>
        <path fill="url(#a)" d="M45.626 39.15L62.686 49a3 3 0 0 1-3 5.196L42.2 44.1a9.458 9.458 0 0 1-5.7 1.9 9.5 9.5 0 0 1-5-17.58V16.5a5 5 0 0 1 10 0v11.92A9.494 9.494 0 0 1 46 36.5c0 .92-.13 1.809-.374 2.65zM36.5 43a6.5 6.5 0 1 0 0-13 6.5 6.5 0 0 0 0 13z" transform="translate(.5 .5)"/>
    </g>
</svg>
