<svg xmlns="http://www.w3.org/2000/svg" width="140" height="33" viewBox="0 0 140 33">
    <defs>
        <linearGradient id="a" x1="39.152%" y1="37.758%" y2="99.5%">
            <stop offset="0%" stop-color="#DA3983"/>
            <stop offset="100%" stop-color="#00B6FF"/>
        </linearGradient>
    </defs>
    <g fill="none" fill-rule="nonzero">
        <path fill="#FFF" d="M9.526 30.806L0 9.76h7.973l3.61 9.262c.041.097.09.215.146.354.462 1.223.748 2.202.86 2.938.098-.68.371-1.59.819-2.73.098-.25.168-.437.21-.562l3.608-9.262h7.785L15.38 30.806H9.526zM46.667 21.845H30.54c.014 1.629.434 2.885 1.26 3.769.826.884 1.994 1.326 3.506 1.326 1.134 0 2.09-.213 2.866-.637.777-.425 1.369-1.055 1.775-1.89l5.627 2.255c-.672 1.615-1.862 2.86-3.57 3.738-1.707.877-3.8 1.315-6.278 1.315-3.695 0-6.66-1.02-8.892-3.059-2.233-2.039-3.35-4.729-3.35-8.07 0-3.285 1.117-6.013 3.35-8.184 2.233-2.172 5.057-3.258 8.472-3.258 3.514 0 6.285 1.1 8.315 3.3 2.03 2.199 3.045 5.212 3.045 9.04v.355zm-7.37-4.197c-.14-1.197-.599-2.157-1.376-2.881-.777-.724-1.732-1.086-2.866-1.086-1.218 0-2.187.33-2.908.992-.72.661-1.2 1.653-1.438 2.975h8.588zM48.192 31.111V9.948h7.077v4.955c.73-1.816 1.727-3.178 2.991-4.086 1.264-.908 2.795-1.362 4.592-1.362.197 0 .495.01.895.032v6.858c-.624-.187-1-.29-1.127-.31a7.977 7.977 0 0 0-1.263-.105c-1.826 0-3.234.555-4.224 1.666-.99 1.11-1.485 2.685-1.485 4.725v8.79h-7.456zM66.187 3.623c0-1.003.357-1.858 1.071-2.564A3.537 3.537 0 0 1 69.838 0c1.043 0 1.916.347 2.617 1.04.702.694 1.053 1.555 1.053 2.583 0 1.028-.357 1.901-1.071 2.62-.714.718-1.58 1.077-2.599 1.077-.993 0-1.85-.365-2.57-1.096-.72-.73-1.08-1.598-1.08-2.601zM66.187 30.806V9.76h7.32v21.046zM78.207 30.806V14.921h-3.174V9.682h3.174V3.355h7.377v6.327h3.174v5.239h-3.174v15.885zM112.549 21.845H96.423c.014 1.629.434 2.885 1.26 3.769.826.884 1.995 1.326 3.507 1.326 1.133 0 2.089-.213 2.866-.637.777-.425 1.368-1.055 1.774-1.89l5.627 2.255c-.672 1.615-1.862 2.86-3.57 3.738-1.707.877-3.8 1.315-6.277 1.315-3.696 0-6.66-1.02-8.893-3.059-2.232-2.039-3.349-4.729-3.349-8.07 0-3.285 1.117-6.013 3.35-8.184 2.232-2.172 5.056-3.258 8.472-3.258 3.513 0 6.285 1.1 8.314 3.3 2.03 2.199 3.045 5.212 3.045 9.04v.355zm-7.37-4.197c-.14-1.197-.598-2.157-1.375-2.881-.777-.724-1.733-1.086-2.866-1.086-1.218 0-2.188.33-2.908.992-.721.661-1.2 1.653-1.439 2.975h8.588z"/>
        <path fill="url(#a)" d="M17.41 13.102L6.419 2.08 1.777 6.735l6.348 6.367-6.348 6.367 4.642 4.655 10.99-11.022zM.054 6.735L6.419.352l12.714 12.75-12.714 12.75-6.365-6.383 6.348-6.367L.054 6.735zm22.95 10.894a.831.831 0 0 1 1.169 0c.323.32.323.839 0 1.16a.831.831 0 0 1-1.169 0 .815.815 0 0 1 0-1.16zm1.753 1.739a.831.831 0 0 1 1.17 0c.322.32.322.839 0 1.159a.831.831 0 0 1-1.17 0 .815.815 0 0 1 0-1.16zm-3.506-3.478a.831.831 0 0 1 1.169 0c.322.32.322.84 0 1.16a.831.831 0 0 1-1.17 0 .815.815 0 0 1 0-1.16zm-1.753-1.739a.831.831 0 0 1 1.168 0c.323.32.323.84 0 1.16a.831.831 0 0 1-1.168 0 .815.815 0 0 1 0-1.16zm3.506-6.955a.831.831 0 0 1 1.169 0c.323.32.323.839 0 1.159a.831.831 0 0 1-1.169 0 .815.815 0 0 1 0-1.16zm1.753-1.74a.831.831 0 0 1 1.17 0c.322.32.322.84 0 1.16a.831.831 0 0 1-1.17 0 .815.815 0 0 1 0-1.16zm-3.506 0a.831.831 0 0 1 1.169 0c.322.32.322.84 0 1.16a.831.831 0 0 1-1.17 0 .815.815 0 0 1 0-1.16zm1.753-1.738a.831.831 0 0 1 1.169 0c.323.32.323.839 0 1.16a.831.831 0 0 1-1.169 0 .815.815 0 0 1 0-1.16zm-3.506 0a.831.831 0 0 1 1.168 0c.323.32.323.839 0 1.16a.831.831 0 0 1-1.168 0 .815.815 0 0 1 0-1.16zm1.753-1.739a.831.831 0 0 1 1.169 0c.322.32.322.84 0 1.16a.831.831 0 0 1-1.17 0 .815.815 0 0 1 0-1.16zm-3.507 0a.831.831 0 0 1 1.17 0c.322.32.322.84 0 1.16a.831.831 0 0 1-1.17 0 .815.815 0 0 1 0-1.16zM19.498.24a.831.831 0 0 1 1.168 0c.323.32.323.84 0 1.16a.831.831 0 0 1-1.168 0 .815.815 0 0 1 0-1.16zm1.753 19.128a.831.831 0 0 1 1.169 0c.322.32.322.839 0 1.159a.831.831 0 0 1-1.17 0 .815.815 0 0 1 0-1.16zm1.753 1.739a.831.831 0 0 1 1.169 0c.323.32.323.839 0 1.159a.831.831 0 0 1-1.169 0 .815.815 0 0 1 0-1.16zm-3.506-3.478a.831.831 0 0 1 1.168 0c.323.32.323.839 0 1.16a.831.831 0 0 1-1.168 0 .815.815 0 0 1 0-1.16zm-1.754-1.739a.831.831 0 0 1 1.17 0c.322.32.322.84 0 1.16a.831.831 0 0 1-1.17 0 .815.815 0 0 1 0-1.16zm3.507-6.956a.831.831 0 0 1 1.169 0c.322.32.322.84 0 1.16a.831.831 0 0 1-1.17 0 .815.815 0 0 1 0-1.16zm-1.753-1.738a.831.831 0 0 1 1.168 0c.323.32.323.839 0 1.159a.831.831 0 0 1-1.168 0 .815.815 0 0 1 0-1.16zm-1.754-1.74a.831.831 0 0 1 1.17 0c.322.32.322.84 0 1.16a.831.831 0 0 1-1.17 0 .815.815 0 0 1 0-1.16zm-1.753-1.738a.831.831 0 0 1 1.169 0c.323.32.323.839 0 1.16a.831.831 0 0 1-1.169 0 .815.815 0 0 1 0-1.16zm3.507 17.389a.831.831 0 0 1 1.168 0c.323.32.323.839 0 1.159a.831.831 0 0 1-1.168 0 .815.815 0 0 1 0-1.16zm1.753 1.739a.831.831 0 0 1 1.169 0c.322.32.322.839 0 1.159a.831.831 0 0 1-1.17 0 .815.815 0 0 1 0-1.16zm-3.507-3.478a.831.831 0 0 1 1.17 0c.322.32.322.839 0 1.159a.831.831 0 0 1-1.17 0 .815.815 0 0 1 0-1.16zm-1.753-1.74a.831.831 0 0 1 1.169 0c.323.321.323.84 0 1.16a.831.831 0 0 1-1.169 0 .815.815 0 0 1 0-1.16zm3.507-6.955a.831.831 0 0 1 1.168 0c.323.32.323.84 0 1.16a.831.831 0 0 1-1.168 0 .815.815 0 0 1 0-1.16zm-1.754-1.739a.831.831 0 0 1 1.17 0c.322.32.322.84 0 1.16a.831.831 0 0 1-1.17 0 .815.815 0 0 1 0-1.16zm-1.753-1.738a.831.831 0 0 1 1.169 0c.323.32.323.839 0 1.159a.831.831 0 0 1-1.169 0 .815.815 0 0 1 0-1.16zm-1.753-1.74a.831.831 0 0 1 1.169 0c.322.32.322.84 0 1.16a.831.831 0 0 1-1.17 0 .815.815 0 0 1 0-1.16zm3.506 17.39a.831.831 0 0 1 1.17 0c.322.32.322.839 0 1.159a.831.831 0 0 1-1.17 0 .815.815 0 0 1 0-1.16zm1.754 1.738a.831.831 0 0 1 1.168 0c.323.32.323.84 0 1.16a.831.831 0 0 1-1.168 0 .815.815 0 0 1 0-1.16zm-3.507-3.477a.831.831 0 0 1 1.169 0c.323.32.323.839 0 1.159a.831.831 0 0 1-1.169 0 .815.815 0 0 1 0-1.16zm-1.753-1.74a.831.831 0 0 1 1.169 0c.322.32.322.84 0 1.16a.831.831 0 0 1-1.17 0 .815.815 0 0 1 0-1.16z" transform="translate(113.77 6.71)"/>
    </g>
</svg>
