<?xml version="1.0" encoding="utf-8"?>
<!-- Generator: Adobe Illustrator 22.1.0, SVG Export Plug-In . SVG Version: 6.00 Build 0)  -->
<svg version="1.1" id="Layer_1" xmlns="http://www.w3.org/2000/svg" xmlns:xlink="http://www.w3.org/1999/xlink" x="0px" y="0px"
	 viewBox="0 0 40 40" style="enable-background:new 0 0 40 40;" xml:space="preserve">
<style type="text/css">
	.st0{fill:url(#SVGID_1_);}
</style>
<linearGradient id="SVGID_1_" gradientUnits="userSpaceOnUse" x1="9.756097e-02" y1="21.3249" x2="39.9907" y2="21.3249">
	<stop  offset="0" style="stop-color:#2BBFDF"/>
	<stop  offset="1" style="stop-color:#1974AD"/>
</linearGradient>
<path class="st0" d="M28.8,23.8c-0.2-0.3-0.5-0.5-0.9-0.5l-12.6,2.3l12-10.5c0.3-0.3,0.4-0.7,0.2-1c-0.2-0.3-0.6-0.5-0.9-0.5
	L15,16.1L26.3,4.9c0.3-0.3,0.3-0.9,0-1.2c-0.3-0.3-0.9-0.3-1.2,0L11.8,16.9c-0.3,0.3-0.3,0.7-0.1,1c0.2,0.3,0.6,0.5,0.9,0.4L23.7,16
	L11.8,26.4c-0.3,0.3-0.4,0.7-0.2,1c0.2,0.3,0.5,0.5,0.9,0.5l12.7-2.4L11.8,37.7c-0.3,0.3-0.4,0.9-0.1,1.2c0.2,0.2,0.4,0.3,0.6,0.3
	c0.2,0,0.4-0.1,0.6-0.2l15.6-14.2C28.9,24.5,28.9,24.1,28.8,23.8z"/>
</svg>
