<?xml version="1.0" encoding="utf-8"?>
<!-- Generator: Adobe Illustrator 22.1.0, SVG Export Plug-In . SVG Version: 6.00 Build 0)  -->
<svg version="1.1" id="Layer_1" xmlns="http://www.w3.org/2000/svg" xmlns:xlink="http://www.w3.org/1999/xlink" x="0px" y="0px"
	 viewBox="0 0 40 40" style="enable-background:new 0 0 40 40;" xml:space="preserve">
<style type="text/css">
	.st0{fill:url(#SVGID_1_);}
	.st1{fill:url(#SVGID_2_);}
	.st2{fill:url(#SVGID_3_);}
	.st3{fill:url(#SVGID_4_);}
	.st4{fill:url(#SVGID_5_);}
	.st5{fill:url(#SVGID_6_);}
	.st6{fill:url(#SVGID_7_);}
	.st7{fill:url(#SVGID_8_);}
	.st8{fill:url(#SVGID_9_);}
	.st9{fill:url(#SVGID_10_);}
</style>
<g>
	<linearGradient id="SVGID_1_" gradientUnits="userSpaceOnUse" x1="9.756097e-02" y1="18.7349" x2="39.9907" y2="18.7349">
		<stop  offset="0" style="stop-color:#2BBFDF"/>
		<stop  offset="1" style="stop-color:#1974AD"/>
	</linearGradient>
	<path class="st0" d="M17,16.5c-0.4-0.3-0.9-0.1-1.2,0.3c-0.7,1-1.2,2.2-1.5,3.3c-0.1,0.5,0.1,0.9,0.6,1.1c0.1,0,0.2,0,0.2,0
		c0.4,0,0.7-0.2,0.8-0.6c0.3-1,0.7-2,1.3-2.9C17.6,17.2,17.4,16.7,17,16.5z"/>
	<linearGradient id="SVGID_2_" gradientUnits="userSpaceOnUse" x1="9.756097e-02" y1="35.0312" x2="39.9907" y2="35.0312">
		<stop  offset="0" style="stop-color:#2BBFDF"/>
		<stop  offset="1" style="stop-color:#1974AD"/>
	</linearGradient>
	<path class="st1" d="M25.2,34.7c-1.1-0.1-2.1-0.4-3-0.9c-0.4-0.2-0.9,0-1.1,0.4c-0.2,0.4,0,0.9,0.4,1.1c1.1,0.5,2.3,0.8,3.5,1
		c0,0,0.1,0,0.1,0c0.4,0,0.8-0.3,0.8-0.7C26,35.2,25.7,34.7,25.2,34.7z"/>
	<linearGradient id="SVGID_3_" gradientUnits="userSpaceOnUse" x1="9.756097e-02" y1="18.5465" x2="39.9907" y2="18.5465">
		<stop  offset="0" style="stop-color:#2BBFDF"/>
		<stop  offset="1" style="stop-color:#1974AD"/>
	</linearGradient>
	<path class="st2" d="M37.4,20.3c0.1,0.4,0.4,0.6,0.8,0.6c0.1,0,0.2,0,0.2,0c0.5-0.1,0.7-0.6,0.6-1.1c-0.4-1.2-0.9-2.3-1.6-3.3
		c-0.3-0.4-0.8-0.5-1.2-0.2c-0.4,0.3-0.5,0.8-0.2,1.2C36.7,18.4,37.1,19.3,37.4,20.3z"/>
	<linearGradient id="SVGID_4_" gradientUnits="userSpaceOnUse" x1="9.756097e-02" y1="31.4332" x2="39.9907" y2="31.4332">
		<stop  offset="0" style="stop-color:#2BBFDF"/>
		<stop  offset="1" style="stop-color:#1974AD"/>
	</linearGradient>
	<path class="st3" d="M17.4,29.7c-0.3-0.4-0.8-0.5-1.2-0.2c-0.4,0.3-0.5,0.8-0.2,1.2c0.7,1,1.5,2,2.4,2.7c0.2,0.1,0.4,0.2,0.6,0.2
		c0.2,0,0.5-0.1,0.6-0.3c0.3-0.4,0.3-0.9-0.1-1.2C18.7,31.4,18,30.6,17.4,29.7z"/>
	<linearGradient id="SVGID_5_" gradientUnits="userSpaceOnUse" x1="9.756097e-02" y1="13.5363" x2="39.9907" y2="13.5363">
		<stop  offset="0" style="stop-color:#2BBFDF"/>
		<stop  offset="1" style="stop-color:#1974AD"/>
	</linearGradient>
	<path class="st4" d="M31.3,13.4c1,0.4,1.9,1,2.7,1.7c0.2,0.1,0.4,0.2,0.6,0.2c0.2,0,0.5-0.1,0.6-0.3c0.3-0.4,0.3-0.9-0.1-1.2
		c-0.9-0.8-2-1.5-3.1-1.9c-0.4-0.2-0.9,0-1.1,0.4C30.7,12.7,30.9,13.2,31.3,13.4z"/>
	<linearGradient id="SVGID_6_" gradientUnits="userSpaceOnUse" x1="9.756097e-02" y1="25.2598" x2="39.9907" y2="25.2598">
		<stop  offset="0" style="stop-color:#2BBFDF"/>
		<stop  offset="1" style="stop-color:#1974AD"/>
	</linearGradient>
	<path class="st5" d="M38.8,23.5h0.9c0-0.5-0.4-0.8-0.9-0.8c-0.5,0-0.9,0.4-0.9,0.9c0,1.1-0.1,2.1-0.4,3.1c-0.1,0.5,0.1,0.9,0.6,1.1
		c0.1,0,0.2,0,0.2,0c0.4,0,0.7-0.2,0.8-0.6c0.3-1.2,0.5-2.4,0.5-3.6L38.8,23.5z"/>
	<linearGradient id="SVGID_7_" gradientUnits="userSpaceOnUse" x1="9.756097e-02" y1="31.3798" x2="39.9907" y2="31.3798">
		<stop  offset="0" style="stop-color:#2BBFDF"/>
		<stop  offset="1" style="stop-color:#1974AD"/>
	</linearGradient>
	<path class="st6" d="M37.3,29.4c-0.4-0.3-0.9-0.1-1.2,0.3c-0.6,0.9-1.3,1.7-2.1,2.4c-0.4,0.3-0.4,0.8-0.1,1.2
		c0.2,0.2,0.4,0.3,0.6,0.3c0.2,0,0.4-0.1,0.6-0.2c0.9-0.8,1.7-1.7,2.4-2.8C37.8,30.2,37.7,29.6,37.3,29.4z"/>
	<linearGradient id="SVGID_8_" gradientUnits="userSpaceOnUse" x1="9.756097e-02" y1="13.6473" x2="39.9907" y2="13.6473">
		<stop  offset="0" style="stop-color:#2BBFDF"/>
		<stop  offset="1" style="stop-color:#1974AD"/>
	</linearGradient>
	<path class="st7" d="M18.2,15.1c0.2,0.2,0.4,0.3,0.6,0.3c0.2,0,0.4-0.1,0.6-0.2c0.8-0.7,1.7-1.3,2.7-1.7c0.4-0.2,0.6-0.7,0.4-1.1
		c-0.2-0.4-0.7-0.6-1.1-0.4c-1.1,0.5-2.1,1.2-3.1,2C17.9,14.3,17.9,14.8,18.2,15.1z"/>
	<linearGradient id="SVGID_9_" gradientUnits="userSpaceOnUse" x1="9.756097e-02" y1="35.0088" x2="39.9907" y2="35.0088">
		<stop  offset="0" style="stop-color:#2BBFDF"/>
		<stop  offset="1" style="stop-color:#1974AD"/>
	</linearGradient>
	<path class="st8" d="M31.4,33.8c-1,0.4-2,0.7-3,0.9c-0.5,0.1-0.8,0.5-0.7,1c0.1,0.4,0.4,0.7,0.8,0.7c0,0,0.1,0,0.1,0
		c1.2-0.2,2.4-0.5,3.5-1c0.4-0.2,0.6-0.7,0.4-1.1C32.3,33.7,31.8,33.6,31.4,33.8z"/>
	<linearGradient id="SVGID_10_" gradientUnits="userSpaceOnUse" x1="9.756097e-02" y1="16.4562" x2="39.9907" y2="16.4562">
		<stop  offset="0" style="stop-color:#2BBFDF"/>
		<stop  offset="1" style="stop-color:#1974AD"/>
	</linearGradient>
	<path class="st9" d="M28.2,12.5c0.5,0.1,0.9-0.3,1-0.7c0.1-0.5-0.3-0.9-0.7-1c-0.6-0.1-1.1-0.1-1.7-0.1c-0.6,0-1.2,0-1.8,0.1
		c-2.1-4.3-6.5-7.3-11.6-7.3C6.2,3.5,0.4,9.3,0.4,16.5s5.8,12.9,12.9,12.9c7.1,0,12.9-5.8,12.9-12.9c0-1.4-0.2-2.7-0.6-4
		c0.4,0,0.7-0.1,1.1-0.1C27.3,12.5,27.7,12.5,28.2,12.5z M16,27.3c0.1-0.2,0.1-0.4,0-0.5c-0.3-1-0.5-2.1-0.5-3.1
		c0-0.5-0.4-0.8-0.9-0.8c0,0,0,0,0,0c-0.5,0-0.8,0.4-0.8,0.9c0,1.2,0.2,2.4,0.5,3.6c0,0.1,0.1,0.2,0.2,0.3c-0.4,0-0.8,0.1-1.3,0.1
		c-6.2,0-11.2-5-11.2-11.2c0-6.2,5-11.2,11.2-11.2s11.2,5,11.2,11.2C24.5,21.7,20.9,26.1,16,27.3z"/>
</g>
</svg>
