<?xml version="1.0" encoding="utf-8"?>
<!-- Generator: Adobe Illustrator 22.1.0, SVG Export Plug-In . SVG Version: 6.00 Build 0)  -->
<svg version="1.1" id="Layer_1" xmlns="http://www.w3.org/2000/svg" xmlns:xlink="http://www.w3.org/1999/xlink" x="0px" y="0px"
	 viewBox="0 0 40 40" style="enable-background:new 0 0 40 40;" xml:space="preserve">
<style type="text/css">
	.st0{fill:url(#SVGID_1_);}
	.st1{fill:url(#SVGID_2_);}
	.st2{fill:url(#SVGID_3_);}
</style>
<g>
	<linearGradient id="SVGID_1_" gradientUnits="userSpaceOnUse" x1="9.756097e-02" y1="20" x2="39.9907" y2="20">
		<stop  offset="0" style="stop-color:#2BBFDF"/>
		<stop  offset="1" style="stop-color:#1974AD"/>
	</linearGradient>
	<path class="st0" d="M11.7,0.1H3.8C3.3,0.1,3,0.5,3,1v38c0,0.5,0.4,0.9,0.9,0.9h7.9c0.5,0,0.9-0.4,0.9-0.9V1
		C12.5,0.5,12.2,0.1,11.7,0.1z M10.8,38.2H4.7V1.8h6.2V38.2z"/>
	<linearGradient id="SVGID_2_" gradientUnits="userSpaceOnUse" x1="9.756097e-02" y1="24.7997" x2="39.9907" y2="24.7997">
		<stop  offset="0" style="stop-color:#2BBFDF"/>
		<stop  offset="1" style="stop-color:#1974AD"/>
	</linearGradient>
	<path class="st1" d="M23.9,9.7h-7.9c-0.5,0-0.9,0.4-0.9,0.9V39c0,0.5,0.4,0.9,0.9,0.9h7.9c0.5,0,0.9-0.4,0.9-0.9V10.6
		C24.8,10.1,24.4,9.7,23.9,9.7z M23.1,38.2h-6.2V11.4h6.2V38.2z"/>
	<linearGradient id="SVGID_3_" gradientUnits="userSpaceOnUse" x1="9.756097e-02" y1="29.4209" x2="39.9907" y2="29.4209">
		<stop  offset="0" style="stop-color:#2BBFDF"/>
		<stop  offset="1" style="stop-color:#1974AD"/>
	</linearGradient>
	<path class="st2" d="M36.2,19h-7.9c-0.5,0-0.9,0.4-0.9,0.9V39c0,0.5,0.4,0.9,0.9,0.9h7.9c0.5,0,0.9-0.4,0.9-0.9V19.8
		C37,19.4,36.7,19,36.2,19z M35.3,38.2h-6.2V20.7h6.2V38.2z"/>
</g>
</svg>
