<?xml version="1.0" encoding="UTF-8"?>
<svg width="206px" height="206px" viewBox="0 0 206 206" version="1.1" xmlns="http://www.w3.org/2000/svg" xmlns:xlink="http://www.w3.org/1999/xlink">
    <!-- Generator: Sketch 49.3 (51167) - http://www.bohemiancoding.com/sketch -->
    <title>coti-dime-white</title>
    <desc>Created with Sketch.</desc>
    <defs></defs>
    <g id="Page-1" stroke="none" stroke-width="1" fill="none" fill-rule="evenodd">
        <g id="cotidime-12" transform="translate(-247.000000, -572.000000)">
            <g id="coti-dime-white" transform="translate(250.000000, 575.000000)">
                <path d="M109.987821,61.7991985 L110,48 C94.5068493,58.1968132 75.1587429,72.6875508 60.0217566,72.4763742 C58.6599517,72.4763742 58,72.9992877 58,74.3367395 L58,105.1283 C58,106.425528 58.6913779,106.988665 60.0008058,106.998721 C69.2979107,107.089054 79.7408645,102.382781 90,96.3765918 L90,111 C105.471074,100.630359 124.799436,85.8940162 139.977021,86.108772 C141.339649,86.108772 142,85.5769956 142,84.2168751 L142,52.9034239 C142,51.5842093 141.308204,51.011527 139.997984,51.0013005 C130.697424,50.909458 120.250856,55.6932483 109.987821,61.7991985 Z M100,192 C49.189803,192 8,150.810197 8,100 C8,49.189803 49.189803,8 100,8 C150.810197,8 192,49.189803 192,100 C192,150.810197 150.810197,192 100,192 Z M58,140.122706 C58,146.750223 61.6295785,151.309278 67.3034023,151.309278 C70.6409457,151.309278 73.102384,149.536312 74.3122434,147.214571 L74.395682,147.214571 C74.395682,147.214571 74.2705242,147.80556 74.2705242,148.649829 L74.2705242,150.802717 L78.1086991,150.802717 L78.1086991,121 L74.103647,121 L74.103647,131.004595 C74.103647,131.806651 74.1870856,132.439853 74.1870856,132.439853 L74.103647,132.439853 C72.7686296,130.160325 70.2237528,128.936134 67.553718,128.936134 C61.9633328,128.936134 58,133.326336 58,140.122706 Z M81.2440006,125.136921 L85.4159299,125.136921 L85.4159299,121 L81.2440006,121 L81.2440006,125.136921 Z M81.3274392,150.802717 L85.3742106,150.802717 L85.3742106,129.442696 L81.3274392,129.442696 L81.3274392,150.802717 Z M88.5512314,150.802717 L92.5980028,150.802717 L92.5980028,140.840335 C92.5980028,136.872268 94.9342832,132.65092 98.9393353,132.65092 C102.151721,132.65092 102.568914,135.225943 102.568914,138.012032 L102.568914,150.802717 L106.615685,150.802717 L106.615685,140.840335 C106.615685,136.745628 108.951966,132.65092 112.873579,132.65092 C116.002526,132.65092 116.586596,135.014875 116.586596,138.012032 L116.586596,150.802717 L120.633368,150.802717 L120.633368,137.125549 C120.633368,131.68001 118.463964,128.936134 113.666246,128.936134 C110.245264,128.936134 107.324913,131.300089 106.156773,133.790684 L106.073334,133.790684 C105.364106,130.58246 103.319861,128.936134 99.7737212,128.936134 C96.4361778,128.936134 93.4323887,131.468943 92.4311257,133.959538 L92.3476871,133.959538 C92.3476871,133.959538 92.472845,133.241909 92.472845,132.355426 L92.472845,129.442696 L88.5512314,129.442696 L88.5512314,150.802717 Z M122.266775,140.122706 C122.266775,146.454728 126.855897,151.309278 133.489264,151.309278 C136.409615,151.309278 139.622,150.169514 141.666246,148.269908 L139.955755,145.272751 C138.286983,146.792436 135.992422,147.763346 133.73958,147.763346 C129.943124,147.763346 126.68902,145.272751 126.480423,140.671481 L141.833123,140.671481 C141.916561,140.080493 142,139.489504 142,138.940729 C142,133.452976 138.829334,128.936134 132.863475,128.936134 C126.855897,128.936134 122.266775,133.326336 122.266775,140.122706 Z" id="Combined-Shape" fill="#666666"></path>
                <path d="M62.13021,140.122706 C62.13021,144.766189 64.5916482,147.763346 68.0960688,147.763346 C71.2250158,147.763346 74.1870856,145.483818 74.1870856,140.080493 C74.1870856,136.239066 72.2262788,132.52428 68.1795074,132.52428 C64.8836833,132.52428 62.13021,135.268156 62.13021,140.122706 Z" id="dime-copy-3" fill="#666666"></path>
                <path d="M126.605581,137.716538 L137.911509,137.716538 C137.786351,134.043965 135.53351,132.102145 132.780036,132.102145 C129.651089,132.102145 127.189651,134.170606 126.605581,137.716538 Z" id="dime-copy-3" fill="#666666"></path>
                <path d="M110,83.3562906 L110,62 C103.67786,65.7483435 95.8073081,71.1306107 90,74.9871741 L90,96 C96.3221404,92.2024657 104.223582,87.1636631 110,83.3562906 Z" id="Shape" fill="#666666" fill-rule="nonzero"></path>
                <g id="Group" transform="translate(58.000000, 48.000000)">
                    <g id="Group-4">
                        <g id="Group-15" transform="translate(0.000000, 73.000000)"></g>
                    </g>
                </g>
                <circle id="Oval-2" stroke="#666666" stroke-width="6" cx="100" cy="100" r="100"></circle>
            </g>
        </g>
    </g>
</svg>