<?xml version="1.0" encoding="utf-8"?>
<!-- Generator: Adobe Illustrator 22.1.0, SVG Export Plug-In . SVG Version: 6.00 Build 0)  -->
<svg version="1.1" id="Layer_1" xmlns="http://www.w3.org/2000/svg" xmlns:xlink="http://www.w3.org/1999/xlink" x="0px" y="0px"
	 viewBox="0 0 40 40" style="enable-background:new 0 0 40 40;" xml:space="preserve">
<style type="text/css">
	.st0{fill:#666666;}
</style>
<path class="st0" d="M20,0C9,0,0,9,0,20c0,11,9,20,20,20s20-9,20-20C40,9,31,0,20,0z M20.1,10c0.3,0.5,0.6,1,0.9,1.5
	c1.7,2.8,3.4,5.6,5.1,8.4l-6-2.7V10z M20,17.4l6.1,2.8c-0.4,0.3-0.9,0.5-1.3,0.8c-0.2,0.1-0.3,0.2-0.5,0.3c-0.7,0.4-1.3,0.8-2,1.2
	c-0.2,0.1-0.4,0.2-0.6,0.4c-0.5,0.3-1.1,0.6-1.6,1c0,0,0,0,0,0c0,0,0,0,0-0.1c0,0,0,0,0,0.1c0,0,0,0-0.1,0c-0.1-0.1-0.2-0.1-0.3-0.2
	c-1.9-1.1-3.8-2.3-5.8-3.4L20,17.4z M13.9,19.9c0.4-0.6,0.7-1.2,1.1-1.8c0.5-0.8,0.9-1.5,1.4-2.3c0.5-0.8,0.9-1.6,1.4-2.3
	c0.5-0.8,0.9-1.5,1.4-2.3c0.2-0.4,0.5-0.8,0.7-1.2v7.2L13.9,19.9C13.9,20,13.9,19.9,13.9,19.9z M26.1,21.4c-0.4,0.6-0.8,1.2-1.3,1.8
	c-1.6,2.2-4.7,6.6-4.9,6.8v0c0,0,0,0,0,0c0,0,0,0,0,0v0c-0.2-0.3-0.5-0.6-0.7-0.9c-0.5-0.7-1-1.4-1.5-2.1c-0.4-0.5-0.8-1.1-1.1-1.6
	c-0.5-0.7-1-1.4-1.5-2.1c-0.4-0.6-0.8-1.1-1.2-1.7c0-0.1-0.1-0.1-0.1-0.2c0,0,0,0,0,0c0.1,0,0.2,0.1,0.3,0.1
	c0.6,0.4,1.3,0.7,1.9,1.1c0.5,0.3,1,0.6,1.6,0.9c0.7,0.4,1.3,0.8,2,1.2c0.1,0.1,0.4,0.2,0.5,0.3c0.1-0.1,3.7-2.2,5.5-3.2
	C25.7,21.6,25.9,21.5,26.1,21.4C26.1,21.3,26.1,21.3,26.1,21.4C26.2,21.3,26.1,21.4,26.1,21.4z"/>
</svg>
