<?xml version="1.0" encoding="utf-8"?>
<!-- Generator: Adobe Illustrator 22.1.0, SVG Export Plug-In . SVG Version: 6.00 Build 0)  -->
<svg version="1.1" id="Layer_1" xmlns="http://www.w3.org/2000/svg" xmlns:xlink="http://www.w3.org/1999/xlink" x="0px" y="0px"
	 viewBox="0 0 292.7 289.4" style="enable-background:new 0 0 292.7 289.4;" xml:space="preserve">
<style type="text/css">
	.st0{fill:#FFFFFF;stroke:url(#SVGID_1_);stroke-width:3;stroke-miterlimit:10;}
	.st1{fill:url(#SVGID_2_);}
	.st2{fill:#FFFFFF;stroke:url(#SVGID_3_);stroke-width:3;stroke-miterlimit:10;}
	.st3{fill:url(#SVGID_4_);}
	.st4{fill:#FFFFFF;stroke:url(#SVGID_5_);stroke-width:3;stroke-miterlimit:10;}
	.st5{fill:url(#SVGID_6_);}
	.st6{fill:#FFFFFF;stroke:url(#SVGID_7_);stroke-width:3;stroke-miterlimit:10;}
	.st7{fill:url(#SVGID_8_);}
	.st8{fill:url(#SVGID_9_);}
	.st9{fill:url(#SVGID_10_);}
	.st10{fill:url(#SVGID_11_);}
	.st11{fill:none;stroke:url(#SVGID_12_);stroke-miterlimit:10;}
	.st12{fill:url(#SVGID_13_);}
	.st13{fill:none;stroke:url(#SVGID_14_);stroke-miterlimit:10;}
	.st14{fill:url(#SVGID_15_);}
	.st15{fill:none;stroke:url(#SVGID_16_);stroke-miterlimit:10;}
	.st16{fill:url(#SVGID_17_);}
</style>
<g>
	<linearGradient id="SVGID_1_" gradientUnits="userSpaceOnUse" x1="158" y1="222.0333" x2="292.6667" y2="222.0333">
		<stop  offset="0" style="stop-color:#3BDFFF"/>
		<stop  offset="1" style="stop-color:#50E3C2"/>
	</linearGradient>
	<circle class="st0" cx="225.3" cy="222" r="65.8"/>
	<linearGradient id="SVGID_2_" gradientUnits="userSpaceOnUse" x1="209" y1="222.0333" x2="241.6667" y2="222.0333">
		<stop  offset="0" style="stop-color:#3BDFFF"/>
		<stop  offset="1" style="stop-color:#50E3C2"/>
	</linearGradient>
	<path class="st1" d="M241.7,231.4c0-8.8-6.4-12-12.6-14.2v-13.4c3.2,0.3,6.4,1.1,9.6,2.1l1.1-8c-2.9-1.3-7-2.1-11-2.4v-5.6
		c-0.3,0-0.3,0-0.5,0c-2.4,0.3-4.8-0.3-7.2,0v5.9c-8,1.6-11.8,7.5-11.8,14.2c0,8.6,6.2,11.8,12.3,13.9v14.7c-4-0.3-7.8-1.6-11.2-3.5
		l-1.3,8.3c3.5,1.9,7.8,3.2,12.6,3.5v7.2h7.8v-7.5C237.4,245.1,241.7,239.5,241.7,231.4z M218.1,209.8c0-2.1,0.8-4,3.5-5.1v9.6
		C219.4,213.2,218.1,211.9,218.1,209.8z M229.3,238.1v-11c2.1,1.1,3.7,2.7,3.7,5.1C232.8,234.9,231.8,237.1,229.3,238.1z"/>
</g>
<g>
	<linearGradient id="SVGID_3_" gradientUnits="userSpaceOnUse" x1="154.2514" y1="67.3333" x2="288.918" y2="67.3333">
		<stop  offset="0" style="stop-color:#E0BE19"/>
		<stop  offset="1" style="stop-color:#3BDFFF"/>
	</linearGradient>
	<circle class="st2" cx="221.6" cy="67.3" r="65.8"/>
	<linearGradient id="SVGID_4_" gradientUnits="userSpaceOnUse" x1="195.5219" y1="67.3333" x2="244.1667" y2="67.3333">
		<stop  offset="0" style="stop-color:#E0BE19"/>
		<stop  offset="1" style="stop-color:#3BDFFF"/>
	</linearGradient>
	<path class="st3" d="M244.2,83.8c-0.4,0.9-0.4,1.8-0.9,2.7c-0.4,2.2-1.3,4.5-1.8,7.1c0,0.4,0,0.4-0.4,0.4h-42.8
		c-0.9,0-0.9,0-0.4-0.4c1.3-4.9,2.7-10.3,4-15.2c0-0.4,0-0.4,0-0.9c-0.9,0.4-1.3,0.4-2.2,0.9c-1.3,0.4-2.7,0.9-3.6,1.3
		c0,0,0,0-0.4,0c0,0,0,0,0-0.4c0.4-1.8,0.9-3.6,1.3-5.8c0.4-0.4,0.9-0.9,0.9-1.8c0-0.4,0-0.4,0.4-0.4c1.3-0.4,2.7-0.9,4-1.3
		c0.4,0,1.3-0.4,1.8-0.4c0.4,0,0.4-0.4,0.4-0.4c0.4-2.7,1.3-4.9,1.8-7.6c1.3-4.9,2.7-10.3,4-15.2c0.4-1.8,0.9-3.6,1.3-5.4
		c0-0.4,0-0.4,0.4-0.4h15.6c0.4,0,0.4,0,0.4,0.4c0,0.9-0.4,1.3-0.4,2.2c-0.9,2.7-1.3,5.4-2.2,7.6c-0.9,3.6-1.8,7.1-3.1,11.2v0.4
		c0.4,0,0.9-0.4,1.3-0.4c2.2-0.9,4-1.3,6.2-2.2c0,0,0.2,0,0.2,0.1c0,0,0,0.2-0.2,0.3c0,0.4,0,0.9-0.4,1.3c-0.4,1.8-0.9,4-1.8,5.8
		c0,0.4,0,0.4-0.4,0.4c-2.7,0.9-4.9,1.8-7.6,2.7c-0.4,0-0.4,0.4-0.4,0.4c-0.4,1.8-0.9,3.1-1.3,4.9c-0.4,2.2-1.3,4.9-1.8,7.1
		c0,0.4,0,0.4,0.4,0.4L244.2,83.8z"/>
</g>
<g>
	<linearGradient id="SVGID_5_" gradientUnits="userSpaceOnUse" x1="0" y1="71.5333" x2="134.6667" y2="71.5333">
		<stop  offset="0" style="stop-color:#E0BE19"/>
		<stop  offset="1" style="stop-color:#E18915"/>
	</linearGradient>
	<circle class="st4" cx="67.3" cy="71.5" r="65.8"/>
	<linearGradient id="SVGID_6_" gradientUnits="userSpaceOnUse" x1="41.3833" y1="71.5333" x2="93.2833" y2="71.5333">
		<stop  offset="0" style="stop-color:#E0BE19"/>
		<stop  offset="1" style="stop-color:#E18915"/>
	</linearGradient>
	<path class="st5" d="M84,68.8c0.9,0.3,1.8,0.6,2.4,0.9c1.8,0.6,3.6,1.8,4.8,3.3c0.9,1.2,1.5,2.7,1.8,4.2c0.6,3.6,0.3,6.9-0.9,10.2
		c-1.2,3-3.3,5.1-6.3,6.6c-2.1,0.9-4.2,1.5-6.3,1.8c-2.1,0.3-4.2,0.6-6,0.6c-0.3,0-0.3,0-0.3,0.3c0,3.3,0,6.9,0,10.2
		c0,0.6,0,0.3-0.3,0.3c-2.1,0-3.9,0-6,0c-0.3,0-0.3,0-0.3-0.3c0-3.3,0-6.9,0-10.2c0-0.3,0-0.3-0.3-0.3c-1.5,0-3.3,0-4.8,0
		c-0.3,0-0.3,0-0.3,0.3c0,3.3,0,6.9,0,10.2c0.3,0.6,0.3,0.6,0,0.6c-2.1,0-3.9,0-6,0c-0.3,0-0.3,0-0.3-0.3c0-3.6,0-6.9,0-10.5
		c0-0.3,0-0.3-0.3-0.3c-3.6,0-7.5,0-11.1,0c-0.6,0-1.2,0-1.8,0c-0.3,0-0.3,0-0.3-0.3c0.3-2.4,0.9-5.1,1.2-7.5c0-0.3,0-0.3,0.3-0.3
		c1.5,0,3,0,4.5,0c0.3,0,0.9,0,1.2-0.3c0.9-0.3,1.2-1.2,1.5-2.1c0-5.7,0-11.4,0-16.8c0-4.2,0-8.1,0-12.3c0-1.5-0.9-2.7-2.4-3
		c-0.6-0.3-1.2-0.3-2.1-0.3c-1.2,0-2.4,0-3.6,0c-0.3,0-0.3,0-0.3-0.3c0-2.1,0-4.5,0-6.6c0-0.3,0-0.3,0.3-0.3c3,0,5.7,0,8.7,0
		c1.5,0,2.7,0,4.2,0c0.3,0,0.3,0,0.3-0.3c0-3.3,0-6.6,0-10.2c0-0.3,0-0.3,0.6-0.3c1.8,0,3.9,0,5.7,0c0.3,0,0.3,0,0.3,0.3
		c0,3.3,0,6.6,0,9.9c0,0.3,0,0.3,0.3,0.3c1.5,0,3,0,4.8,0c0.3,0,0.3,0,0.3-0.3c0-3.3,0-6.6,0-9.9c0-0.3,0-0.3,0.3-0.3
		c2.1,0,3.9,0,6,0c0.3,0,0.3,0,0.3,0.3c0,3.3,0,6.9,0,10.2c0,0.3,0,0.3,0.3,0.3c2.1,0.3,4.2,0.6,6.3,1.2c2.1,0.9,3.9,1.5,5.7,3
		c2.1,1.8,3.3,3.9,3.6,6.6c0.3,1.8,0.3,3.3,0,5.1c-0.6,3-2.4,5.1-5.1,6.6C84.3,68.8,84,68.8,84,68.8z M74.1,87.7
		c0.9-0.3,2.4-0.6,3.6-1.5c3.6-2.4,3.3-7.2,0.6-9.3c-0.9-0.9-2.1-1.5-3.3-1.8c-2.4-0.9-4.8-0.9-7.2-1.2c-1.8,0-3.9,0-5.7,0
		c-0.3,0-0.3,0-0.3,0.3c0,4.8,0,9.3,0,14.1c0,0.3,0,0.3,0.3,0.3c2.1,0,4.2,0,6.3,0C70.2,88.3,72,88.3,74.1,87.7z M71.7,66.7
		c0.9-0.3,1.8-0.6,2.4-0.9c3.3-1.8,3.6-4.8,3-6.9c-0.3-1.5-1.2-2.4-2.7-3c-1.5-0.9-3-1.2-4.5-1.5c-2.7-0.3-5.1-0.3-7.8-0.3
		c-0.3,0-0.3,0-0.3,0.3c0,1.5,0,3,0,4.5c0,2.7,0,5.4,0,8.1c0,0.3,0,0.3,0.3,0.3c1.2,0,2.1,0,3,0C67.2,67.3,69.3,67.3,71.7,66.7z"/>
</g>
<g>
	<linearGradient id="SVGID_7_" gradientUnits="userSpaceOnUse" x1="0" y1="222.0333" x2="134.6667" y2="222.0333">
		<stop  offset="0" style="stop-color:#3BDFFF"/>
		<stop  offset="1" style="stop-color:#892D98"/>
	</linearGradient>
	<circle class="st6" cx="67.3" cy="222" r="65.8"/>
	<g>
		<linearGradient id="SVGID_8_" gradientUnits="userSpaceOnUse" x1="45.6667" y1="203.2519" x2="88.3105" y2="203.2519">
			<stop  offset="0" style="stop-color:#3BDFFF"/>
			<stop  offset="1" style="stop-color:#892D98"/>
		</linearGradient>
		<path class="st7" d="M67,184.3c-0.9,1.6-1.9,2.8-2.5,4.4c-1.9,2.8-3.5,5.7-5.4,8.5c-1.6,2.8-3.5,6-5.4,8.8c-1.6,2.8-3.5,6-5.1,8.8
			c-1.3,2.2-2.8,4.7-4.1,6.9l-0.3,0.3L67,211.8V184.3z"/>
		<linearGradient id="SVGID_9_" gradientUnits="userSpaceOnUse" x1="45.6667" y1="224.3995" x2="88.3105" y2="224.3995">
			<stop  offset="0" style="stop-color:#3BDFFF"/>
			<stop  offset="1" style="stop-color:#892D98"/>
		</linearGradient>
		<polygon class="st8" points="67.4,236.4 67.4,236.4 90.6,222.8 90.6,222.8 90.6,222.8 90.3,222.7 67.4,212.4 67.4,212.4 
			67.4,212.4 44.2,222.8 67.4,236.4 		"/>
		<linearGradient id="SVGID_10_" gradientUnits="userSpaceOnUse" x1="45.6667" y1="243.4978" x2="88.3105" y2="243.4978">
			<stop  offset="0" style="stop-color:#3BDFFF"/>
			<stop  offset="1" style="stop-color:#892D98"/>
		</linearGradient>
		<path class="st9" d="M84.9,235.8c3.5-4.8,6.2-8.5,6.2-8.6c0,0,0,0-0.1,0.1c-1.5,1-21.5,12.2-23.5,13.4v0c0,0-0.1,0-0.1,0
			c-1.5-0.8-23.4-13.2-23.7-13.5c0,0.3,21.6,29.5,23.6,32.3v0.2c0,0,0,0,0.1-0.1c0.1,0.1,0.1,0.1,0.1,0.1v-0.2c0,0,0,0,0,0v0
			C68.7,257.7,78.3,244.7,84.9,235.8z"/>
		<linearGradient id="SVGID_11_" gradientUnits="userSpaceOnUse" x1="45.6667" y1="203.253" x2="88.3105" y2="203.253">
			<stop  offset="0" style="stop-color:#3BDFFF"/>
			<stop  offset="1" style="stop-color:#892D98"/>
		</linearGradient>
		<path class="st10" d="M90.5,222.2L90.5,222.2L90.5,222.2l-0.2-0.2l-0.1-0.1c-0.9-1.5-1.9-3.2-2.8-4.8c-0.4-0.7-0.9-1.5-1.3-2.1
			c-1.6-2.8-3.5-6-5.1-8.8c-0.7-1.1-1.4-2.2-2.1-3.3c-1.2-1.9-2.3-3.8-3.3-5.6c-1.4-2.2-2.7-4.3-4-6.5c-0.4-0.7-0.9-1.4-1.3-2.1
			c-0.5-1.3-1.2-2.3-2-3.5c-0.2-0.3-0.4-0.6-0.6-0.9v0c0,0,0,0,0,0v27.5l9.7,4.5L90.5,222.2z"/>
	</g>
</g>
<g>
	<g>
		<linearGradient id="SVGID_12_" gradientUnits="userSpaceOnUse" x1="122.2187" y1="122.7373" x2="171.7268" y2="122.7373">
			<stop  offset="0.1" style="stop-color:#FFBC43"/>
			<stop  offset="0.3038" style="stop-color:#FFA843"/>
			<stop  offset="0.8096" style="stop-color:#FF7842"/>
		</linearGradient>
		<path class="st11" d="M171.3,129.7c-5-8.2-14-13.7-24.3-13.7c-10,0-18.7,5.1-23.8,12.9"/>
		<g>
			<linearGradient id="SVGID_13_" gradientUnits="userSpaceOnUse" x1="122.2187" y1="126.8022" x2="171.7268" y2="126.8022">
				<stop  offset="0.1" style="stop-color:#FFBC43"/>
				<stop  offset="0.3038" style="stop-color:#FFA843"/>
				<stop  offset="0.8096" style="stop-color:#FF7842"/>
			</linearGradient>
			<polygon class="st12" points="121.8,123.9 122.8,123.8 123.5,128.6 128.3,127.6 128.5,128.5 122.6,129.8 			"/>
		</g>
	</g>
</g>
<g>
	<g>
		<linearGradient id="SVGID_14_" gradientUnits="userSpaceOnUse" x1="147.7454" y1="152.2987" x2="175.8481" y2="152.2987">
			<stop  offset="0.1" style="stop-color:#2BBFDF"/>
			<stop  offset="0.5048" style="stop-color:#207AC1"/>
			<stop  offset="0.8096" style="stop-color:#194AAD"/>
		</linearGradient>
		<path class="st13" d="M147.8,172.7c15.3-0.4,27.6-12.9,27.6-28.3c0-4.6-1.1-8.9-3-12.7"/>
		<g>
			<linearGradient id="SVGID_15_" gradientUnits="userSpaceOnUse" x1="147.7517" y1="133.7108" x2="175.8543" y2="133.7108">
				<stop  offset="0.1" style="stop-color:#2BBFDF"/>
				<stop  offset="0.5048" style="stop-color:#207AC1"/>
				<stop  offset="0.8096" style="stop-color:#194AAD"/>
			</linearGradient>
			<polygon class="st14" points="177.4,133 177,133.9 172.5,132 171,136.7 170,136.4 171.9,130.7 			"/>
		</g>
	</g>
</g>
<g>
	<g>
		<linearGradient id="SVGID_16_" gradientUnits="userSpaceOnUse" x1="118.1758" y1="151.7687" x2="146.5699" y2="151.7687">
			<stop  offset="0.1" style="stop-color:#2BBFDF"/>
			<stop  offset="0.562" style="stop-color:#6A5DAF"/>
			<stop  offset="0.8096" style="stop-color:#892D98"/>
		</linearGradient>
		<path class="st15" d="M122.2,130.6c-2.2,4.1-3.5,8.7-3.5,13.7c0,15.1,11.9,27.5,26.8,28.3"/>
		<g>
			<linearGradient id="SVGID_17_" gradientUnits="userSpaceOnUse" x1="118.1758" y1="172.2859" x2="146.5699" y2="172.2859">
				<stop  offset="0.1" style="stop-color:#2BBFDF"/>
				<stop  offset="0.562" style="stop-color:#6A5DAF"/>
				<stop  offset="0.8096" style="stop-color:#892D98"/>
			</linearGradient>
			<polygon class="st16" points="141.8,176.4 141.2,175.6 145.1,172.5 141.8,168.9 142.5,168.2 146.6,172.7 			"/>
		</g>
	</g>
</g>
</svg>
