<?xml version="1.0" encoding="utf-8"?>
<!-- Generator: Adobe Illustrator 22.1.0, SVG Export Plug-In . SVG Version: 6.00 Build 0)  -->
<svg version="1.1" id="Isolation_Mode" xmlns="http://www.w3.org/2000/svg" xmlns:xlink="http://www.w3.org/1999/xlink" x="0px"
	 y="0px" viewBox="0 0 122 43" style="enable-background:new 0 0 122 43;" xml:space="preserve">
<style type="text/css">
	.st0{fill:url(#SVGID_1_);}
	.st1{fill:url(#SVGID_2_);}
	.st2{fill:url(#SVGID_3_);}
	.st3{fill:#0C041E;}
</style>
<g>
	<g>
		<linearGradient id="SVGID_1_" gradientUnits="userSpaceOnUse" x1="100.4319" y1="27.5749" x2="122" y2="27.5749">
			<stop  offset="0" style="stop-color:#FC6D2B"/>
			<stop  offset="1" style="stop-color:#FEBA0E"/>
		</linearGradient>
		<path class="st0" d="M114,12.9h8c0,0-0.3,6.1-6.9,16.2s-6.4,13-6.4,13h-8.3c0,0,0.3-6.3,7.3-15.6S114,12.9,114,12.9z"/>
		<linearGradient id="SVGID_2_" gradientUnits="userSpaceOnUse" x1="103.9967" y1="15.6789" x2="116.8423" y2="37.2242">
			<stop  offset="0.1" style="stop-color:#194AAD"/>
			<stop  offset="0.4993" style="stop-color:#248FCB"/>
			<stop  offset="0.8" style="stop-color:#2BBFDF"/>
		</linearGradient>
		<path class="st1" d="M108.5,12.9h-8c0,0,0.3,6.1,6.9,16.2c6.6,10.2,6.4,13,6.4,13h8.3c0,0-0.3-6.3-7.3-15.6S108.5,12.9,108.5,12.9
			z"/>
		<linearGradient id="SVGID_3_" gradientUnits="userSpaceOnUse" x1="108.3892" y1="31.3806" x2="114.3889" y2="25.3809">
			<stop  offset="0" style="stop-color:#32ADD3"/>
			<stop  offset="1" style="stop-color:#333366"/>
		</linearGradient>
		<path class="st2" d="M115.8,28.1c-0.2,0.3-0.4,0.7-0.7,1.1c-1.7,2.6-3,4.7-3.8,6.5c-0.9-1.7-2.2-3.9-3.9-6.5
			c-0.2-0.4-0.5-0.7-0.7-1.1c0.4-0.5,0.7-1,1.1-1.5c1.5-1.9,2.6-3.6,3.4-5.1c0.9,1.5,2,3.2,3.4,5.1C115,27.1,115.4,27.6,115.8,28.1z
			"/>
	</g>
	<g>
		<g>
			<g>
				<g>
					<path class="st3" d="M16.4,10.9c7.7,0,11.5,4.5,11.5,4.5l-2.8,4.1c0,0-3.3-3.5-8.5-3.5C10.5,16,6,20.6,6,26.9
						c0,6.2,4.5,11,10.8,11c5.7,0,9.4-4.1,9.4-4.1l2.4,4.3c0,0-4.2,4.9-12.2,4.9C6.8,42.9,0,36.1,0,26.9C0,17.9,6.8,10.9,16.4,10.9z
						"/>
				</g>
			</g>
			<g>
				<g>
					<path class="st3" d="M45,10.9c9.1,0,16.5,6.7,16.5,16c0,9.3-7.4,16.1-16.5,16.1s-16.5-6.8-16.5-16.1
						C28.5,17.6,35.9,10.9,45,10.9z M45,37.9c5.8,0,10.5-4.6,10.5-11C55.6,20.5,50.8,16,45,16c-5.8,0-10.5,4.5-10.5,10.9
						C34.5,33.3,39.3,37.9,45,37.9z"/>
				</g>
			</g>
			<g>
				<g>
					<path class="st3" d="M65.3,16.8h-4V12h4.2V3.2h5.7V12h7.4v4.7h-7.4v13.6c0,6.1,5.3,6.9,7.6,6.9c0.8,0,1.4-0.1,1.4-0.1v5.2
						c0,0-0.8,0.1-2.1,0.1c-3.9,0-12.8-1.2-12.8-11.4V16.8z"/>
				</g>
			</g>
			<g>
				<g>
					<path class="st3" d="M83.2,0.1h5.9v6h-5.9V0.1z M83.2,12.3h5.9v29.9h-5.9V12.3z"/>
				</g>
			</g>
		</g>
	</g>
</g>
</svg>
