<?xml version="1.0" encoding="utf-8"?>
<!-- Generator: Adobe Illustrator 22.1.0, SVG Export Plug-In . SVG Version: 6.00 Build 0)  -->
<svg version="1.1" id="Layer_1" xmlns="http://www.w3.org/2000/svg" xmlns:xlink="http://www.w3.org/1999/xlink" x="0px" y="0px"
	 viewBox="0 0 40 40" style="enable-background:new 0 0 40 40;" xml:space="preserve">
<style type="text/css">
	.st0{fill:#666666;}
</style>
<g>
	<path class="st0" d="M22.1,21c-0.7-0.2-1.3-0.3-2-0.3c-0.5,0-1.1,0-1.6,0c-0.1,0-0.1,0-0.1,0.1c0,1.3,0,2.6,0,3.9
		c0,0.1,0,0.1,0.1,0.1c0.6,0,1.2,0,1.8,0c0.5,0,1-0.1,1.6-0.2c0.3-0.1,0.7-0.2,1-0.4c1-0.6,0.9-2,0.2-2.6
		C22.7,21.2,22.4,21.1,22.1,21z"/>
	<path class="st0" d="M20,0C9,0,0,9,0,20c0,11,9,20,20,20s20-9,20-20C40,9,31,0,20,0z M26.9,24.4c-0.3,0.8-0.9,1.4-1.7,1.8
		c-0.5,0.3-1.1,0.4-1.7,0.5c-0.6,0.1-1.1,0.2-1.7,0.2c-0.1,0-0.1,0-0.1,0.1c0,0.9,0,1.9,0,2.9c0,0.1,0,0.1-0.1,0.1
		c-0.6,0-1.1,0-1.7,0c-0.1,0-0.1,0-0.1-0.1c0-1,0-1.9,0-2.9c0-0.1,0-0.1-0.1-0.1c-0.4,0-0.9,0-1.3,0c-0.1,0-0.1,0-0.1,0.1
		c0,1,0,1.9,0,2.9c0,0.1,0,0.1-0.1,0.1c-0.6,0-1.1,0-1.7,0c-0.1,0-0.1,0-0.1-0.1c0-1,0-1.9,0-2.9c0-0.1,0-0.1-0.1-0.1
		c-1,0-2.1,0-3.1,0c-0.2,0-0.3,0-0.5,0c-0.1,0,0,0,0-0.1c0.1-0.7,0.2-1.4,0.4-2.1c0-0.1,0-0.1,0.1-0.1c0.4,0,0.8,0,1.3,0
		c0.1,0,0.2,0,0.3-0.1c0.3-0.1,0.4-0.3,0.4-0.6c0-1.6,0-3.1,0-4.7c0-1.1,0-2.3,0-3.4c0-0.4-0.3-0.8-0.7-0.9C14.3,15,14.1,15,13.9,15
		c-0.3,0-0.7,0-1,0c0,0-0.1,0-0.1-0.1c0-0.6,0-1.2,0-1.8c0-0.1,0-0.1,0.1-0.1c0.8,0,1.6,0,2.4,0c0.4,0,0.8,0,1.2,0
		c0.1,0,0.1,0,0.1-0.1c0-0.9,0-1.9,0-2.8c0-0.2,0-0.1,0.1-0.1c0.5,0,1.1,0,1.6,0c0.1,0,0.1,0,0.1,0.1c0,0.9,0,1.9,0,2.8
		c0,0.1,0,0.1,0.1,0.1c0.4,0,0.9,0,1.3,0c0.1,0,0.1,0,0.1-0.1c0-0.9,0-1.9,0-2.8c0-0.1,0-0.1,0.1-0.1c0.6,0,1.1,0,1.7,0
		c0.1,0,0.1,0,0.1,0.1c0,1,0,1.9,0,2.8c0,0.1,0,0.1,0.1,0.1c0.6,0.1,1.2,0.1,1.8,0.3c0.6,0.2,1.1,0.4,1.6,0.8c0.6,0.5,0.9,1.1,1,1.8
		c0.1,0.5,0.1,1,0,1.4c-0.2,0.8-0.7,1.4-1.4,1.8c-0.1,0-0.1,0-0.1,0.1c0.2,0.1,0.5,0.1,0.7,0.2c0.5,0.2,1,0.5,1.3,0.9
		c0.3,0.3,0.5,0.7,0.5,1.2C27.3,22.5,27.2,23.5,26.9,24.4z"/>
	<path class="st0" d="M18.5,18.8c0.3,0,0.6,0,0.9,0c0.6,0,1.2,0,1.8-0.2c0.2-0.1,0.5-0.1,0.7-0.3c0.9-0.5,1-1.3,0.8-1.9
		c-0.1-0.4-0.4-0.7-0.7-0.9c-0.4-0.2-0.8-0.3-1.3-0.4c-0.7-0.1-1.4-0.1-2.2-0.1c-0.1,0-0.1,0-0.1,0.1c0,0.4,0,0.8,0,1.3
		C18.4,17.2,18.4,18,18.5,18.8C18.4,18.8,18.4,18.8,18.5,18.8z"/>
</g>
</svg>
