<?xml version="1.0" encoding="utf-8"?>
<!-- Generator: Adobe Illustrator 22.1.0, SVG Export Plug-In . SVG Version: 6.00 Build 0)  -->
<svg version="1.1" id="Layer_1" xmlns="http://www.w3.org/2000/svg" xmlns:xlink="http://www.w3.org/1999/xlink" x="0px" y="0px"
	 viewBox="0 0 40 40" style="enable-background:new 0 0 40 40;" xml:space="preserve">
<style type="text/css">
	.st0{fill:#666666;}
	.st1{fill:url(#SVGID_1_);}
	.st2{fill:url(#SVGID_2_);}
	.st3{fill:#FFFFFF;}
</style>
<circle class="st0" cx="20" cy="20" r="20"/>
<g>
	<linearGradient id="SVGID_1_" gradientUnits="userSpaceOnUse" x1="16.3727" y1="27.362" x2="13.5992" y2="11.6322">
		<stop  offset="0.1" style="stop-color:#FFFFFF"/>
		<stop  offset="0.8" style="stop-color:#FFFFFF;stop-opacity:0.5"/>
	</linearGradient>
	<path class="st1" d="M7.6,17.8c-0.4,0-0.6,0.2-0.6,0.6c0,0,0,8.6,0,9.8c0,0.4,0.2,0.6,0.6,0.6c4.7,0,10.5-4.1,15.3-7.4l0-11.3
		C18.1,13.2,12.2,17.9,7.6,17.8z"/>
	
		<linearGradient id="SVGID_2_" gradientUnits="userSpaceOnUse" x1="4836.2568" y1="-25.0036" x2="4839.9272" y2="-45.8217" gradientTransform="matrix(-1 0 0 -1 4863.0952 -14.7595)">
		<stop  offset="0.1" style="stop-color:#FFFFFF"/>
		<stop  offset="0.8" style="stop-color:#FFFFFF;stop-opacity:0.5"/>
	</linearGradient>
	<path class="st2" d="M32.4,22.2c0.4,0,0.6-0.2,0.6-0.6c0,0,0-8.6,0-9.8c0-0.4-0.2-0.6-0.6-0.6c-4.7,0-10.5,4.1-15.3,7.4l0,11.3
		C21.9,26.8,27.8,22.1,32.4,22.2z"/>
	<path class="st3" d="M22.8,21.3l0-6.5c-2,1.2-3.9,2.6-5.7,3.8l0,6.5C19.1,23.9,21,22.6,22.8,21.3z"/>
</g>
</svg>
