<?xml version="1.0" encoding="utf-8"?>
<!-- Generator: Adobe Illustrator 22.1.0, SVG Export Plug-In . SVG Version: 6.00 Build 0)  -->
<svg version="1.1" id="Layer_5" xmlns="http://www.w3.org/2000/svg" xmlns:xlink="http://www.w3.org/1999/xlink" x="0px" y="0px"
	 viewBox="0 0 28 28" style="enable-background:new 0 0 28 28;" xml:space="preserve">
<style type="text/css">
	.st0{fill:#51595B;}
</style>
<g>
	<path class="st0" d="M28,14c-0.1,2.4-0.1,4.7-0.3,7c-0.4,3.8-3.1,6.6-6.8,6.7c-4.6,0.2-9.3,0.2-14,0c-3.6-0.2-6.5-2.9-6.7-6.4
		c-0.3-4.9-0.3-9.8,0-14.6c0.2-3.5,3-6.2,6.5-6.4c4.9-0.2,9.8-0.2,14.7,0c3.2,0.1,5.9,3.1,6.2,6.5C27.9,9.2,27.9,11.6,28,14z
		 M25.4,10.8c0-1-0.1-2.1-0.2-3.1c-0.2-3-1.9-4.8-4.8-4.9c-4.2-0.2-8.5-0.2-12.8,0c-3,0.1-4.8,1.8-5,4.8c-0.2,4.3-0.2,8.7,0,13
		c0.1,2.9,2,4.7,5,4.8c4.1,0.1,8.2,0.2,12.3,0c3.6-0.1,5.1-1.9,5.3-5.4C25.3,17.9,25.4,11.8,25.4,10.8z"/>
	<path class="st0" d="M14,6.8c3.9,0,7,3.1,7,7.1c0,4.1-3,7.2-7.2,7.2c-3.9,0-7.1-3.1-7.1-7C6.7,10,9.8,6.9,14,6.8z M13.9,18.6
		c2.6,0,4.6-2.1,4.6-4.7s-2.2-4.6-4.7-4.6c-2.5,0.1-4.6,2.2-4.6,4.7C9.2,16.5,11.4,18.7,13.9,18.6z"/>
	<path class="st0" d="M23,6.5c0,0.9-0.7,1.7-1.5,1.7c-0.9,0-1.8-0.7-1.8-1.6s0.7-1.7,1.6-1.7C22.2,4.8,23,5.5,23,6.5z"/>
</g>
</svg>
