<?xml version="1.0" encoding="utf-8"?>
<!-- Generator: Adobe Illustrator 22.1.0, SVG Export Plug-In . SVG Version: 6.00 Build 0)  -->
<svg version="1.1" id="Layer_8" xmlns="http://www.w3.org/2000/svg" xmlns:xlink="http://www.w3.org/1999/xlink" x="0px" y="0px"
	 viewBox="0 0 28 28" style="enable-background:new 0 0 28 28;" xml:space="preserve">
<style type="text/css">
	.st0{fill:#51595B;}
</style>
<g>
	<path class="st0" d="M27.4,7.2C28,9.4,28,14,28,14s0,4.6-0.6,6.8c-0.3,1.2-1.3,2.2-2.5,2.5C22.8,23.9,14,23.9,14,23.9
		s-8.8,0-10.9-0.6C1.8,23,0.9,22,0.6,20.8C0,18.6,0,14,0,14s0-4.6,0.6-6.8C0.9,6,1.8,5,3.1,4.7C5.2,4.1,14,4.1,14,4.1
		s8.8,0,10.9,0.6C26.2,5,27.1,6,27.4,7.2z M11.5,18.1l7.4-4.1l-7.4-4.1V18.1z"/>
</g>
</svg>
