<?xml version="1.0" encoding="utf-8"?>
<!-- Generator: Adobe Illustrator 22.1.0, SVG Export Plug-In . SVG Version: 6.00 Build 0)  -->
<svg version="1.1" id="Layer_6" xmlns="http://www.w3.org/2000/svg" xmlns:xlink="http://www.w3.org/1999/xlink" x="0px" y="0px"
	 viewBox="0 0 28 28" style="enable-background:new 0 0 28 28;" xml:space="preserve">
<style type="text/css">
	.st0{fill:#51595B;}
</style>
<g>
	<path class="st0" d="M6,8.5C5.7,6,6.6,3.6,9.1,2c3.2-2.2,9.1-2.1,11.6,2.3c0.7,1.2,0.9,2.5,0.9,3.9c0,0.8,0,1.6,0,2.4
		c0,1,0.2,1.1,1.2,0.9c0.5-0.1,1-0.2,1.4-0.1c0.3,0.1,0.8,0.5,0.9,0.8c0.1,0.3-0.2,0.8-0.5,1c-0.4,0.3-0.9,0.5-1.4,0.7
		c-1.6,0.6-1.8,1.1-0.9,2.6c1.1,2,2.7,3.4,4.9,4c0.3,0.1,0.8,0.4,0.8,0.7s-0.3,0.7-0.6,0.9c-0.7,0.3-1.5,0.6-2.2,0.7
		c-0.6,0.1-1,0.3-1.1,1c-0.1,0.8-0.6,1-1.3,0.9c-1.9-0.5-3.5,0.1-5.1,1.3c-2.5,1.8-4.9,1.7-7.4-0.1c-1.4-1-2.9-1.6-4.6-1.2
		c-1,0.2-1.6,0-1.8-1.1c0-0.3-0.5-0.5-0.8-0.7c-0.8-0.3-1.6-0.4-2.3-0.8c-0.3-0.1-0.6-0.6-0.7-1c0-0.2,0.5-0.5,0.8-0.6
		c2.3-0.6,3.8-2.1,4.9-4.2c0.5-1.5,0.3-2-1.2-2.5c-0.5-0.2-1-0.3-1.4-0.7c-0.3-0.3-0.6-0.9-0.5-1.2c0.1-0.3,0.7-0.5,1.1-0.8
		c0,0,0.1,0,0.2,0c0.7,0.1,1.4,0.1,2.1,0.2c0-0.7,0-1.5,0-2.2C6,8.9,6,8.8,6,8.5z"/>
</g>
</svg>
