<?xml version="1.0" encoding="utf-8"?>
<!-- Generator: Adobe Illustrator 22.1.0, SVG Export Plug-In . SVG Version: 6.00 Build 0)  -->
<svg version="1.1" id="Layer_2" xmlns="http://www.w3.org/2000/svg" xmlns:xlink="http://www.w3.org/1999/xlink" x="0px" y="0px"
	 viewBox="0 0 28 28" style="enable-background:new 0 0 28 28;" xml:space="preserve">
<style type="text/css">
	.st0{fill:#51595B;}
</style>
<path class="st0" d="M28,5.2c-1,0.5-2.2,0.8-3.3,0.9c1.2-0.7,2.1-1.9,2.5-3.2c-1.1,0.7-2.4,1.2-3.6,1.4c-1.1-1.2-2.6-1.8-4.2-1.8
	c-3.2,0-5.7,2.6-5.7,5.8c0,0.5,0.1,0.9,0.1,1.3C9,9.4,4.8,7.1,1.9,3.5C1.4,4.4,1.2,5.4,1.2,6.5c0,1.9,1,3.8,2.6,4.8
	c-0.9,0-1.8-0.3-2.6-0.7v0.1c0,2.8,2,5.2,4.6,5.7c-0.8,0.2-1.7,0.3-2.6,0.1c0.7,2.3,2.9,4,5.4,4C6.5,22.1,4,23,1.4,23
	c-0.5,0-0.9,0-1.4-0.1c2.6,1.7,5.7,2.6,8.8,2.6c10.6,0,16.3-8.9,16.3-16.6c0-0.3,0-0.5,0-0.8C26.3,7.4,27.2,6.4,28,5.2z"/>
</svg>
