<?xml version="1.0" encoding="utf-8"?>
<!-- Generator: Adobe Illustrator 22.1.0, SVG Export Plug-In . SVG Version: 6.00 Build 0)  -->
<svg version="1.1" id="Layer_1" xmlns="http://www.w3.org/2000/svg" xmlns:xlink="http://www.w3.org/1999/xlink" x="0px" y="0px"
	 viewBox="0 0 40 40" style="enable-background:new 0 0 40 40;" xml:space="preserve">
<style type="text/css">
	.st0{fill:url(#SVGID_1_);}
	.st1{fill:url(#SVGID_2_);}
</style>
<g>
	<linearGradient id="SVGID_1_" gradientUnits="userSpaceOnUse" x1="9.756097e-02" y1="20" x2="39.9907" y2="20">
		<stop  offset="0" style="stop-color:#2BBFDF"/>
		<stop  offset="1" style="stop-color:#1974AD"/>
	</linearGradient>
	<path class="st0" d="M34,8.7c-0.5-0.2-1.2-0.5-1.8-0.8c-3.2-1.3-5.5-2.9-7.4-4.2c-1.9-1.3-3.4-2.4-4.8-2.4s-2.9,1.1-4.8,2.4
		C13.3,5.1,11,6.7,7.8,8C7.2,8.2,6.5,8.5,6,8.7C5.6,8.9,5.4,9.2,5.5,9.6l0.1,0.9c0.2,1.8,0.6,4.5,0.6,8.8c0,9.1,11.1,17.6,13.3,19.2
		c0.1,0.1,0.3,0.2,0.5,0.2c0.2,0,0.4-0.1,0.5-0.2c2.2-1.6,13.3-10.1,13.3-19.2c0-4.3,0.4-7,0.6-8.8l0.1-0.9
		C34.6,9.2,34.4,8.9,34,8.7z M32.7,10.3c-0.2,1.8-0.6,4.6-0.6,9c0,7.7-9.2,15.3-12.1,17.5C17.1,34.6,7.9,27,7.9,19.3
		c0-4.4-0.4-7.2-0.6-9.2l0-0.1C7.6,9.9,8,9.7,8.5,9.5c3.3-1.3,5.8-3,7.7-4.4C17.8,4,19.2,3,20,3s2.2,1,3.8,2.1
		c2,1.4,4.4,3.1,7.7,4.4c0.4,0.2,0.8,0.3,1.2,0.5L32.7,10.3z"/>
	<linearGradient id="SVGID_2_" gradientUnits="userSpaceOnUse" x1="9.756097e-02" y1="18.98" x2="39.9907" y2="18.98">
		<stop  offset="0" style="stop-color:#2BBFDF"/>
		<stop  offset="1" style="stop-color:#1974AD"/>
	</linearGradient>
	<path class="st1" d="M29.4,12.4L18,23.8l-5.4-5.4c-0.3-0.3-0.9-0.3-1.2,0c-0.3,0.3-0.3,0.9,0,1.2l6,6c0.2,0.2,0.4,0.2,0.6,0.2
		c0.2,0,0.4-0.1,0.6-0.2l12-12c0.3-0.3,0.3-0.9,0-1.2C30.3,12,29.8,12,29.4,12.4z"/>
</g>
</svg>
