<?xml version="1.0" encoding="utf-8"?>
<!-- Generator: Adobe Illustrator 22.1.0, SVG Export Plug-In . SVG Version: 6.00 Build 0)  -->
<svg version="1.1" id="Layer_1" xmlns="http://www.w3.org/2000/svg" xmlns:xlink="http://www.w3.org/1999/xlink" x="0px" y="0px"
	 viewBox="0 0 40 40" style="enable-background:new 0 0 40 40;" xml:space="preserve">
<style type="text/css">
	.st0{fill:url(#SVGID_1_);}
	.st1{fill:url(#SVGID_2_);}
	.st2{fill:url(#SVGID_3_);}
</style>
<g>
	<linearGradient id="SVGID_1_" gradientUnits="userSpaceOnUse" x1="9.756097e-02" y1="21.2667" x2="39.9907" y2="21.2667">
		<stop  offset="0" style="stop-color:#2BBFDF"/>
		<stop  offset="1" style="stop-color:#1974AD"/>
	</linearGradient>
	<path class="st0" d="M25.5,4.5c-4.8,0-9.2,2.5-11.7,6.6c-1-0.3-2-0.4-3-0.4c-5.7,0-10.3,4.6-10.3,10.3c0,5.7,4.6,10.3,10.3,10.3
		c0.3,0,0.7,0,1,0c0,0.1,0,0.1,0,0.2c0,3.7,3,6.7,6.7,6.7c3.5,0,6.5-2.7,6.7-6.2c0.1,0,0.2,0,0.2,0c7.6,0,13.7-6.1,13.7-13.7
		S33,4.5,25.5,4.5z M25.5,30.1c-0.3,0-0.7,0-1,0c-0.2,0-0.5,0.1-0.7,0.3c-0.2,0.2-0.3,0.5-0.2,0.7l0,0.2c0,2.8-2.3,5-5,5
		c-2.8,0-5-2.3-5-5c0-0.3,0-0.7,0.1-1c0.1-0.3,0-0.6-0.2-0.8c-0.2-0.2-0.4-0.2-0.6-0.2c-0.1,0-0.1,0-0.2,0c-0.6,0.1-1.2,0.2-1.8,0.2
		c-4.8,0-8.6-3.9-8.6-8.6c0-4.8,3.9-8.6,8.6-8.6c1.1,0,2.1,0.2,3.1,0.6c0.4,0.2,0.9,0,1.1-0.4c2.1-3.9,6.1-6.3,10.6-6.3
		c6.6,0,12,5.4,12,12C37.5,24.8,32.1,30.1,25.5,30.1z"/>
	<linearGradient id="SVGID_2_" gradientUnits="userSpaceOnUse" x1="9.756097e-02" y1="5.8189" x2="39.9907" y2="5.8189">
		<stop  offset="0" style="stop-color:#2BBFDF"/>
		<stop  offset="1" style="stop-color:#1974AD"/>
	</linearGradient>
	<path class="st1" d="M9.8,8.3c1.4,0,2.5-1.1,2.5-2.5c0-1.4-1.1-2.5-2.5-2.5c-1.4,0-2.5,1.1-2.5,2.5C7.4,7.2,8.5,8.3,9.8,8.3z
		 M9.8,5c0.4,0,0.8,0.4,0.8,0.8s-0.4,0.8-0.8,0.8S9.1,6.3,9.1,5.8S9.4,5,9.8,5z"/>
	<linearGradient id="SVGID_3_" gradientUnits="userSpaceOnUse" x1="9.756097e-02" y1="35.3201" x2="39.9907" y2="35.3201">
		<stop  offset="0" style="stop-color:#2BBFDF"/>
		<stop  offset="1" style="stop-color:#1974AD"/>
	</linearGradient>
	<path class="st2" d="M31.4,32.7c-1.4,0-2.6,1.2-2.6,2.6c0,1.4,1.2,2.6,2.6,2.6c1.4,0,2.6-1.2,2.6-2.6C34,33.9,32.8,32.7,31.4,32.7z
		 M31.4,36.2c-0.5,0-0.9-0.4-0.9-0.9c0-0.5,0.4-0.9,0.9-0.9c0.5,0,0.9,0.4,0.9,0.9C32.3,35.8,31.9,36.2,31.4,36.2z"/>
</g>
</svg>
